0
SECTION
2
HEADER
9
$INSUNITS
70
4
9
$ACADVER
1
AC1014
9
$HANDSEED
5
FFFF
0
ENDSEC
0
SECTION
2
TABLES
0
TABLE
2
VPORT
5
8
100
AcDbSymbolTable
0
ENDTAB
0
TABLE
2
LTYPE
5
5
100
AcDbSymbolTable
0
LTYPE
5
14
100
AcDbSymbolTableRecord
100
AcDbLinetypeTableRecord
2
BYBLOCK
70
0
0
LTYPE
5
15
100
AcDbSymbolTableRecord
100
AcDbLinetypeTableRecord
2
BYLAYER
70
0
0
ENDTAB
0
TABLE
2
LAYER
5
2
100
AcDbSymbolTable
70
2
0
LAYER
5
50
100
AcDbSymbolTableRecord
100
AcDbLayerTableRecord
2
0
70
0
6
CONTINUOUS
0
ENDTAB
0
TABLE
2
STYLE
5
3
100
AcDbSymbolTable
70
1
0
STYLE
5
11
100
AcDbSymbolTableRecord
100
AcDbTextStyleTableRecord
2
STANDARD
70
0
0
ENDTAB
0
TABLE
2
VIEW
5
6
100
AcDbSymbolTable
70
0
0
ENDTAB
0
TABLE
2
UCS
5
7
100
AcDbSymbolTable
70
0
0
ENDTAB
0
TABLE
2
APPID
5
9
100
AcDbSymbolTable
70
2
0
APPID
5
12
100
AcDbSymbolTableRecord
100
AcDbRegAppTableRecord
2
ACAD
70
0
0
ENDTAB
0
TABLE
2
DIMSTYLE
5
A
100
AcDbSymbolTable
70
1
0
ENDTAB
0
TABLE
2
BLOCK_RECORD
5
1
100
AcDbSymbolTable
70
1
0
BLOCK_RECORD
5
1F
100
AcDbSymbolTableRecord
100
AcDbBlockTableRecord
2
*MODEL_SPACE
0
BLOCK_RECORD
5
1B
100
AcDbSymbolTableRecord
100
AcDbBlockTableRecord
2
*PAPER_SPACE
0
ENDTAB
0
ENDSEC
0
SECTION
2
BLOCKS
0
BLOCK
5
20
100
AcDbEntity
100
AcDbBlockBegin
2
*MODEL_SPACE
0
ENDBLK
5
21
100
AcDbEntity
100
AcDbBlockEnd
0
BLOCK
5
1C
100
AcDbEntity
100
AcDbBlockBegin
2
*PAPER_SPACE
0
ENDBLK
5
1D
100
AcDbEntity
100
AcDbBlockEnd
0
ENDSEC
0
SECTION
2
ENTITIES
0
LWPOLYLINE
5
100
100
AcDbEntity
8
0
100
AcDbPolyline
90
4
70
1
43
0.0
10
30.48
20
64.25
10
-30.48
20
64.25
10
-30.48
20
-64.25
10
30.48
20
-64.25
0
LWPOLYLINE
5
101
100
AcDbEntity
8
0
100
AcDbPolyline
90
4
70
1
43
0.0
10
30.229999999999997
20
64.25
10
-30.229999999999997
20
64.25
10
-30.229999999999997
20
-64.25
10
30.229999999999997
20
-64.25
0
LINE
5
102
100
AcDbEntity
8
0
100
AcDbLine
10
-2.2204460492503127e-15
20
64.25
30
0
11
2.2204460492503131e-15
21
-64.25
31
0
0
LWPOLYLINE
5
103
100
AcDbEntity
8
0
100
AcDbPolyline
90
4
70
1
43
0.0
10
29.980000000000004
20
53.249999999999993
10
-29.980000000000004
20
53.249999999999993
10
-29.980000000000004
20
-53.250000000000014
10
29.980000000000004
20
-53.250000000000014
0
CIRCLE
5
104
100
AcDbEntity
8
0
100
AcDbCircle
10
-22.98
20
61.250000000000007
30
0
40
1.5000000000000009
0
CIRCLE
5
105
100
AcDbEntity
8
0
100
AcDbCircle
10
22.740000000000002
20
61.250000000000007
30
0
40
1.5000000000000002
0
LINE
5
106
100
AcDbEntity
8
0
100
AcDbLine
10
30.229999999999997
20
-4.4130599845716935e-15
30
0
11
-29.980000000000004
21
-1.3294844181572946e-14
31
0
0
CIRCLE
5
107
100
AcDbEntity
8
0
100
AcDbCircle
10
-22.98
20
-61.250000000000007
30
0
40
1.5000000000000013
0
CIRCLE
5
108
100
AcDbEntity
8
0
100
AcDbCircle
10
22.740000000000002
20
-61.250000000000007
30
0
40
1.4999999999999989
0
LINE
5
109
100
AcDbEntity
8
0
100
AcDbLine
10
-29.980000000000004
20
50
30
0
11
29.980000000000004
21
50.000000000000014
31
0
0
LINE
5
110
100
AcDbEntity
8
0
100
AcDbLine
10
-29.980000000000004
20
-50
30
0
11
29.980000000000004
21
-50
31
0
0
LINE
5
111
100
AcDbEntity
8
0
100
AcDbLine
10
21.239999999999995
20
-61.250000000000007
30
0
11
24.239999999999995
21
-61.250000000000007
31
0
0
CIRCLE
5
112
100
AcDbEntity
8
0
100
AcDbCircle
10
21.239999999999995
20
-61.250000000000007
30
0
40
1.4999999999999989
0
CIRCLE
5
113
100
AcDbEntity
8
0
100
AcDbCircle
10
24.239999999999995
20
-61.250000000000007
30
0
40
1.4999999999999978
0
LINE
5
114
100
AcDbEntity
8
0
100
AcDbLine
10
21.239999999999988
20
-59.750000000000014
30
0
11
24.239999999999995
21
-59.750000000000014
31
0
0
LINE
5
115
100
AcDbEntity
8
0
100
AcDbLine
10
24.240000000001622
20
-62.74999999999676
30
0
11
21.240000000001594
21
-62.75
31
0
0
CIRCLE
5
116
100
AcDbEntity
8
0
100
AcDbCircle
10
-24.48
20
-61.250000000000007
30
0
40
1.4999999999999989
0
LINE
5
117
100
AcDbEntity
8
0
100
AcDbLine
10
-24.480000000000008
20
-59.750000000000014
30
0
11
-21.48
21
-59.750000000000014
31
0
0
LINE
5
118
100
AcDbEntity
8
0
100
AcDbLine
10
-24.48
20
-61.250000000000007
30
0
11
-21.48
21
-61.250000000000007
31
0
0
LINE
5
119
100
AcDbEntity
8
0
100
AcDbLine
10
-21.479999999998377
20
-62.74999999999676
30
0
11
-24.479999999998402
21
-62.75
31
0
0
CIRCLE
5
120
100
AcDbEntity
8
0
100
AcDbCircle
10
-21.48
20
-61.250000000000007
30
0
40
1.4999999999999978
0
LINE
5
121
100
AcDbEntity
8
0
100
AcDbLine
10
21.240000000000002
20
61.250000000000007
30
0
11
24.239999999999998
21
61.250000000000007
31
0
0
CIRCLE
5
122
100
AcDbEntity
8
0
100
AcDbCircle
10
21.240000000000002
20
61.250000000000007
30
0
40
1.4999999999999989
0
CIRCLE
5
123
100
AcDbEntity
8
0
100
AcDbCircle
10
24.239999999999998
20
61.250000000000007
30
0
40
1.4999999999999978
0
LINE
5
124
100
AcDbEntity
8
0
100
AcDbLine
10
21.239999999999991
20
62.75
30
0
11
24.239999999999998
21
62.75
31
0
0
LINE
5
125
100
AcDbEntity
8
0
100
AcDbLine
10
-24.480000000000008
20
62.75
30
0
11
-21.48
21
62.75
31
0
0
LINE
5
126
100
AcDbEntity
8
0
100
AcDbLine
10
24.240000000001626
20
59.750000000003254
30
0
11
21.240000000001601
21
59.750000000000014
31
0
0
CIRCLE
5
127
100
AcDbEntity
8
0
100
AcDbCircle
10
-24.48
20
61.250000000000007
30
0
40
1.4999999999999989
0
LINE
5
128
100
AcDbEntity
8
0
100
AcDbLine
10
-24.48
20
61.250000000000007
30
0
11
-21.48
21
61.250000000000007
31
0
0
CIRCLE
5
129
100
AcDbEntity
8
0
100
AcDbCircle
10
-21.48
20
61.250000000000007
30
0
40
1.4999999999999978
0
LINE
5
130
100
AcDbEntity
8
0
100
AcDbLine
10
-21.479999999998377
20
59.750000000003254
30
0
11
-24.479999999998402
21
59.750000000000014
31
0
0
CIRCLE
5
131
100
AcDbEntity
8
0
100
AcDbCircle
10
-20.32
20
40.639999999999993
30
0
40
3.0000000000000009
0
CIRCLE
5
132
100
AcDbEntity
8
0
100
AcDbCircle
10
-20.32
20
20.319999999999993
30
0
40
3
0
CIRCLE
5
133
100
AcDbEntity
8
0
100
AcDbCircle
10
-20.32
20
-8.8817841970012523e-15
30
0
40
3.0000000000000004
0
CIRCLE
5
134
100
AcDbEntity
8
0
100
AcDbCircle
10
-20.32
20
-20.320000000000007
30
0
40
3.0000000000000018
0
CIRCLE
5
135
100
AcDbEntity
8
0
100
AcDbCircle
10
0
20
-40.640000000000008
30
0
40
3.0000000000000009
0
CIRCLE
5
136
100
AcDbEntity
8
0
100
AcDbCircle
10
20.32
20
-40.640000000000008
30
0
40
3.0000000000000027
0
CIRCLE
5
137
100
AcDbEntity
8
0
100
AcDbCircle
10
0
20
40.639999999999993
30
0
40
3.4999999999999982
0
CIRCLE
5
138
100
AcDbEntity
8
0
100
AcDbCircle
10
20.32
20
40.639999999999993
30
0
40
3.4999999999999982
0
CIRCLE
5
139
100
AcDbEntity
8
0
100
AcDbCircle
10
0
20
20.319999999999993
30
0
40
3.5000000000000009
0
CIRCLE
5
140
100
AcDbEntity
8
0
100
AcDbCircle
10
20.32
20
20.319999999999993
30
0
40
3.5000000000000013
0
CIRCLE
5
141
100
AcDbEntity
8
0
100
AcDbCircle
10
0
20
-8.8817841970012523e-15
30
0
40
3.5
0
CIRCLE
5
142
100
AcDbEntity
8
0
100
AcDbCircle
10
20.32
20
-8.8817841970012523e-15
30
0
40
3.5000000000000004
0
CIRCLE
5
143
100
AcDbEntity
8
0
100
AcDbCircle
10
0
20
-20.320000000000007
30
0
40
3.5000000000000009
0
CIRCLE
5
144
100
AcDbEntity
8
0
100
AcDbCircle
10
20.32
20
-20.320000000000007
30
0
40
3.5000000000000009
0
ENDSEC
0
SECTION
2
OBJECTS
0
DICTIONARY
5
C
100
AcDbDictionary
3
ACAD_GROUP
350
D
3
ACAD_MLINESTYLE
350
17
0
DICTIONARY
5
D
100
AcDbDictionary
0
DICTIONARY
5
1A
330
C
100
AcDbDictionary
0
DICTIONARY
5
17
100
AcDbDictionary
0
ENDSEC
0
EOF
