G04 #@! TF.GenerationSoftware,KiCad,Pcbnew,(5.0.0)*
G04 #@! TF.CreationDate,2018-08-16T01:02:05+08:00*
G04 #@! TF.ProjectId,Mixer,4D697865722E6B696361645F70636200,rev?*
G04 #@! TF.SameCoordinates,Original*
G04 #@! TF.FileFunction,Paste,Bot*
G04 #@! TF.FilePolarity,Positive*
%FSLAX46Y46*%
G04 Gerber Fmt 4.6, Leading zero omitted, Abs format (unit mm)*
G04 Created by KiCad (PCBNEW (5.0.0)) date 08/16/18 01:02:05*
%MOMM*%
%LPD*%
G01*
G04 APERTURE LIST*
%ADD10R,2.600000X1.600000*%
%ADD11C,0.100000*%
%ADD12C,0.975000*%
%ADD13R,1.500000X1.050000*%
%ADD14R,1.500000X2.400000*%
%ADD15R,1.500000X0.600000*%
G04 APERTURE END LIST*
D10*
G04 #@! TO.C,C8*
X97177000Y-71755000D03*
X93577000Y-71755000D03*
G04 #@! TD*
G04 #@! TO.C,C6*
X93577000Y-92075000D03*
X97177000Y-92075000D03*
G04 #@! TD*
D11*
G04 #@! TO.C,C7*
G36*
X96492142Y-138246174D02*
X96515803Y-138249684D01*
X96539007Y-138255496D01*
X96561529Y-138263554D01*
X96583153Y-138273782D01*
X96603670Y-138286079D01*
X96622883Y-138300329D01*
X96640607Y-138316393D01*
X96656671Y-138334117D01*
X96670921Y-138353330D01*
X96683218Y-138373847D01*
X96693446Y-138395471D01*
X96701504Y-138417993D01*
X96707316Y-138441197D01*
X96710826Y-138464858D01*
X96712000Y-138488750D01*
X96712000Y-138976250D01*
X96710826Y-139000142D01*
X96707316Y-139023803D01*
X96701504Y-139047007D01*
X96693446Y-139069529D01*
X96683218Y-139091153D01*
X96670921Y-139111670D01*
X96656671Y-139130883D01*
X96640607Y-139148607D01*
X96622883Y-139164671D01*
X96603670Y-139178921D01*
X96583153Y-139191218D01*
X96561529Y-139201446D01*
X96539007Y-139209504D01*
X96515803Y-139215316D01*
X96492142Y-139218826D01*
X96468250Y-139220000D01*
X95555750Y-139220000D01*
X95531858Y-139218826D01*
X95508197Y-139215316D01*
X95484993Y-139209504D01*
X95462471Y-139201446D01*
X95440847Y-139191218D01*
X95420330Y-139178921D01*
X95401117Y-139164671D01*
X95383393Y-139148607D01*
X95367329Y-139130883D01*
X95353079Y-139111670D01*
X95340782Y-139091153D01*
X95330554Y-139069529D01*
X95322496Y-139047007D01*
X95316684Y-139023803D01*
X95313174Y-139000142D01*
X95312000Y-138976250D01*
X95312000Y-138488750D01*
X95313174Y-138464858D01*
X95316684Y-138441197D01*
X95322496Y-138417993D01*
X95330554Y-138395471D01*
X95340782Y-138373847D01*
X95353079Y-138353330D01*
X95367329Y-138334117D01*
X95383393Y-138316393D01*
X95401117Y-138300329D01*
X95420330Y-138286079D01*
X95440847Y-138273782D01*
X95462471Y-138263554D01*
X95484993Y-138255496D01*
X95508197Y-138249684D01*
X95531858Y-138246174D01*
X95555750Y-138245000D01*
X96468250Y-138245000D01*
X96492142Y-138246174D01*
X96492142Y-138246174D01*
G37*
D12*
X96012000Y-138732500D03*
D11*
G36*
X96492142Y-136371174D02*
X96515803Y-136374684D01*
X96539007Y-136380496D01*
X96561529Y-136388554D01*
X96583153Y-136398782D01*
X96603670Y-136411079D01*
X96622883Y-136425329D01*
X96640607Y-136441393D01*
X96656671Y-136459117D01*
X96670921Y-136478330D01*
X96683218Y-136498847D01*
X96693446Y-136520471D01*
X96701504Y-136542993D01*
X96707316Y-136566197D01*
X96710826Y-136589858D01*
X96712000Y-136613750D01*
X96712000Y-137101250D01*
X96710826Y-137125142D01*
X96707316Y-137148803D01*
X96701504Y-137172007D01*
X96693446Y-137194529D01*
X96683218Y-137216153D01*
X96670921Y-137236670D01*
X96656671Y-137255883D01*
X96640607Y-137273607D01*
X96622883Y-137289671D01*
X96603670Y-137303921D01*
X96583153Y-137316218D01*
X96561529Y-137326446D01*
X96539007Y-137334504D01*
X96515803Y-137340316D01*
X96492142Y-137343826D01*
X96468250Y-137345000D01*
X95555750Y-137345000D01*
X95531858Y-137343826D01*
X95508197Y-137340316D01*
X95484993Y-137334504D01*
X95462471Y-137326446D01*
X95440847Y-137316218D01*
X95420330Y-137303921D01*
X95401117Y-137289671D01*
X95383393Y-137273607D01*
X95367329Y-137255883D01*
X95353079Y-137236670D01*
X95340782Y-137216153D01*
X95330554Y-137194529D01*
X95322496Y-137172007D01*
X95316684Y-137148803D01*
X95313174Y-137125142D01*
X95312000Y-137101250D01*
X95312000Y-136613750D01*
X95313174Y-136589858D01*
X95316684Y-136566197D01*
X95322496Y-136542993D01*
X95330554Y-136520471D01*
X95340782Y-136498847D01*
X95353079Y-136478330D01*
X95367329Y-136459117D01*
X95383393Y-136441393D01*
X95401117Y-136425329D01*
X95420330Y-136411079D01*
X95440847Y-136398782D01*
X95462471Y-136388554D01*
X95484993Y-136380496D01*
X95508197Y-136374684D01*
X95531858Y-136371174D01*
X95555750Y-136370000D01*
X96468250Y-136370000D01*
X96492142Y-136371174D01*
X96492142Y-136371174D01*
G37*
D12*
X96012000Y-136857500D03*
G04 #@! TD*
D11*
G04 #@! TO.C,C5*
G36*
X110462142Y-138246174D02*
X110485803Y-138249684D01*
X110509007Y-138255496D01*
X110531529Y-138263554D01*
X110553153Y-138273782D01*
X110573670Y-138286079D01*
X110592883Y-138300329D01*
X110610607Y-138316393D01*
X110626671Y-138334117D01*
X110640921Y-138353330D01*
X110653218Y-138373847D01*
X110663446Y-138395471D01*
X110671504Y-138417993D01*
X110677316Y-138441197D01*
X110680826Y-138464858D01*
X110682000Y-138488750D01*
X110682000Y-138976250D01*
X110680826Y-139000142D01*
X110677316Y-139023803D01*
X110671504Y-139047007D01*
X110663446Y-139069529D01*
X110653218Y-139091153D01*
X110640921Y-139111670D01*
X110626671Y-139130883D01*
X110610607Y-139148607D01*
X110592883Y-139164671D01*
X110573670Y-139178921D01*
X110553153Y-139191218D01*
X110531529Y-139201446D01*
X110509007Y-139209504D01*
X110485803Y-139215316D01*
X110462142Y-139218826D01*
X110438250Y-139220000D01*
X109525750Y-139220000D01*
X109501858Y-139218826D01*
X109478197Y-139215316D01*
X109454993Y-139209504D01*
X109432471Y-139201446D01*
X109410847Y-139191218D01*
X109390330Y-139178921D01*
X109371117Y-139164671D01*
X109353393Y-139148607D01*
X109337329Y-139130883D01*
X109323079Y-139111670D01*
X109310782Y-139091153D01*
X109300554Y-139069529D01*
X109292496Y-139047007D01*
X109286684Y-139023803D01*
X109283174Y-139000142D01*
X109282000Y-138976250D01*
X109282000Y-138488750D01*
X109283174Y-138464858D01*
X109286684Y-138441197D01*
X109292496Y-138417993D01*
X109300554Y-138395471D01*
X109310782Y-138373847D01*
X109323079Y-138353330D01*
X109337329Y-138334117D01*
X109353393Y-138316393D01*
X109371117Y-138300329D01*
X109390330Y-138286079D01*
X109410847Y-138273782D01*
X109432471Y-138263554D01*
X109454993Y-138255496D01*
X109478197Y-138249684D01*
X109501858Y-138246174D01*
X109525750Y-138245000D01*
X110438250Y-138245000D01*
X110462142Y-138246174D01*
X110462142Y-138246174D01*
G37*
D12*
X109982000Y-138732500D03*
D11*
G36*
X110462142Y-136371174D02*
X110485803Y-136374684D01*
X110509007Y-136380496D01*
X110531529Y-136388554D01*
X110553153Y-136398782D01*
X110573670Y-136411079D01*
X110592883Y-136425329D01*
X110610607Y-136441393D01*
X110626671Y-136459117D01*
X110640921Y-136478330D01*
X110653218Y-136498847D01*
X110663446Y-136520471D01*
X110671504Y-136542993D01*
X110677316Y-136566197D01*
X110680826Y-136589858D01*
X110682000Y-136613750D01*
X110682000Y-137101250D01*
X110680826Y-137125142D01*
X110677316Y-137148803D01*
X110671504Y-137172007D01*
X110663446Y-137194529D01*
X110653218Y-137216153D01*
X110640921Y-137236670D01*
X110626671Y-137255883D01*
X110610607Y-137273607D01*
X110592883Y-137289671D01*
X110573670Y-137303921D01*
X110553153Y-137316218D01*
X110531529Y-137326446D01*
X110509007Y-137334504D01*
X110485803Y-137340316D01*
X110462142Y-137343826D01*
X110438250Y-137345000D01*
X109525750Y-137345000D01*
X109501858Y-137343826D01*
X109478197Y-137340316D01*
X109454993Y-137334504D01*
X109432471Y-137326446D01*
X109410847Y-137316218D01*
X109390330Y-137303921D01*
X109371117Y-137289671D01*
X109353393Y-137273607D01*
X109337329Y-137255883D01*
X109323079Y-137236670D01*
X109310782Y-137216153D01*
X109300554Y-137194529D01*
X109292496Y-137172007D01*
X109286684Y-137148803D01*
X109283174Y-137125142D01*
X109282000Y-137101250D01*
X109282000Y-136613750D01*
X109283174Y-136589858D01*
X109286684Y-136566197D01*
X109292496Y-136542993D01*
X109300554Y-136520471D01*
X109310782Y-136498847D01*
X109323079Y-136478330D01*
X109337329Y-136459117D01*
X109353393Y-136441393D01*
X109371117Y-136425329D01*
X109390330Y-136411079D01*
X109410847Y-136398782D01*
X109432471Y-136388554D01*
X109454993Y-136380496D01*
X109478197Y-136374684D01*
X109501858Y-136371174D01*
X109525750Y-136370000D01*
X110438250Y-136370000D01*
X110462142Y-136371174D01*
X110462142Y-136371174D01*
G37*
D12*
X109982000Y-136857500D03*
G04 #@! TD*
D11*
G04 #@! TO.C,C4*
G36*
X114272142Y-141451174D02*
X114295803Y-141454684D01*
X114319007Y-141460496D01*
X114341529Y-141468554D01*
X114363153Y-141478782D01*
X114383670Y-141491079D01*
X114402883Y-141505329D01*
X114420607Y-141521393D01*
X114436671Y-141539117D01*
X114450921Y-141558330D01*
X114463218Y-141578847D01*
X114473446Y-141600471D01*
X114481504Y-141622993D01*
X114487316Y-141646197D01*
X114490826Y-141669858D01*
X114492000Y-141693750D01*
X114492000Y-142181250D01*
X114490826Y-142205142D01*
X114487316Y-142228803D01*
X114481504Y-142252007D01*
X114473446Y-142274529D01*
X114463218Y-142296153D01*
X114450921Y-142316670D01*
X114436671Y-142335883D01*
X114420607Y-142353607D01*
X114402883Y-142369671D01*
X114383670Y-142383921D01*
X114363153Y-142396218D01*
X114341529Y-142406446D01*
X114319007Y-142414504D01*
X114295803Y-142420316D01*
X114272142Y-142423826D01*
X114248250Y-142425000D01*
X113335750Y-142425000D01*
X113311858Y-142423826D01*
X113288197Y-142420316D01*
X113264993Y-142414504D01*
X113242471Y-142406446D01*
X113220847Y-142396218D01*
X113200330Y-142383921D01*
X113181117Y-142369671D01*
X113163393Y-142353607D01*
X113147329Y-142335883D01*
X113133079Y-142316670D01*
X113120782Y-142296153D01*
X113110554Y-142274529D01*
X113102496Y-142252007D01*
X113096684Y-142228803D01*
X113093174Y-142205142D01*
X113092000Y-142181250D01*
X113092000Y-141693750D01*
X113093174Y-141669858D01*
X113096684Y-141646197D01*
X113102496Y-141622993D01*
X113110554Y-141600471D01*
X113120782Y-141578847D01*
X113133079Y-141558330D01*
X113147329Y-141539117D01*
X113163393Y-141521393D01*
X113181117Y-141505329D01*
X113200330Y-141491079D01*
X113220847Y-141478782D01*
X113242471Y-141468554D01*
X113264993Y-141460496D01*
X113288197Y-141454684D01*
X113311858Y-141451174D01*
X113335750Y-141450000D01*
X114248250Y-141450000D01*
X114272142Y-141451174D01*
X114272142Y-141451174D01*
G37*
D12*
X113792000Y-141937500D03*
D11*
G36*
X114272142Y-143326174D02*
X114295803Y-143329684D01*
X114319007Y-143335496D01*
X114341529Y-143343554D01*
X114363153Y-143353782D01*
X114383670Y-143366079D01*
X114402883Y-143380329D01*
X114420607Y-143396393D01*
X114436671Y-143414117D01*
X114450921Y-143433330D01*
X114463218Y-143453847D01*
X114473446Y-143475471D01*
X114481504Y-143497993D01*
X114487316Y-143521197D01*
X114490826Y-143544858D01*
X114492000Y-143568750D01*
X114492000Y-144056250D01*
X114490826Y-144080142D01*
X114487316Y-144103803D01*
X114481504Y-144127007D01*
X114473446Y-144149529D01*
X114463218Y-144171153D01*
X114450921Y-144191670D01*
X114436671Y-144210883D01*
X114420607Y-144228607D01*
X114402883Y-144244671D01*
X114383670Y-144258921D01*
X114363153Y-144271218D01*
X114341529Y-144281446D01*
X114319007Y-144289504D01*
X114295803Y-144295316D01*
X114272142Y-144298826D01*
X114248250Y-144300000D01*
X113335750Y-144300000D01*
X113311858Y-144298826D01*
X113288197Y-144295316D01*
X113264993Y-144289504D01*
X113242471Y-144281446D01*
X113220847Y-144271218D01*
X113200330Y-144258921D01*
X113181117Y-144244671D01*
X113163393Y-144228607D01*
X113147329Y-144210883D01*
X113133079Y-144191670D01*
X113120782Y-144171153D01*
X113110554Y-144149529D01*
X113102496Y-144127007D01*
X113096684Y-144103803D01*
X113093174Y-144080142D01*
X113092000Y-144056250D01*
X113092000Y-143568750D01*
X113093174Y-143544858D01*
X113096684Y-143521197D01*
X113102496Y-143497993D01*
X113110554Y-143475471D01*
X113120782Y-143453847D01*
X113133079Y-143433330D01*
X113147329Y-143414117D01*
X113163393Y-143396393D01*
X113181117Y-143380329D01*
X113200330Y-143366079D01*
X113220847Y-143353782D01*
X113242471Y-143343554D01*
X113264993Y-143335496D01*
X113288197Y-143329684D01*
X113311858Y-143326174D01*
X113335750Y-143325000D01*
X114248250Y-143325000D01*
X114272142Y-143326174D01*
X114272142Y-143326174D01*
G37*
D12*
X113792000Y-143812500D03*
G04 #@! TD*
D11*
G04 #@! TO.C,C3*
G36*
X110462142Y-131291174D02*
X110485803Y-131294684D01*
X110509007Y-131300496D01*
X110531529Y-131308554D01*
X110553153Y-131318782D01*
X110573670Y-131331079D01*
X110592883Y-131345329D01*
X110610607Y-131361393D01*
X110626671Y-131379117D01*
X110640921Y-131398330D01*
X110653218Y-131418847D01*
X110663446Y-131440471D01*
X110671504Y-131462993D01*
X110677316Y-131486197D01*
X110680826Y-131509858D01*
X110682000Y-131533750D01*
X110682000Y-132021250D01*
X110680826Y-132045142D01*
X110677316Y-132068803D01*
X110671504Y-132092007D01*
X110663446Y-132114529D01*
X110653218Y-132136153D01*
X110640921Y-132156670D01*
X110626671Y-132175883D01*
X110610607Y-132193607D01*
X110592883Y-132209671D01*
X110573670Y-132223921D01*
X110553153Y-132236218D01*
X110531529Y-132246446D01*
X110509007Y-132254504D01*
X110485803Y-132260316D01*
X110462142Y-132263826D01*
X110438250Y-132265000D01*
X109525750Y-132265000D01*
X109501858Y-132263826D01*
X109478197Y-132260316D01*
X109454993Y-132254504D01*
X109432471Y-132246446D01*
X109410847Y-132236218D01*
X109390330Y-132223921D01*
X109371117Y-132209671D01*
X109353393Y-132193607D01*
X109337329Y-132175883D01*
X109323079Y-132156670D01*
X109310782Y-132136153D01*
X109300554Y-132114529D01*
X109292496Y-132092007D01*
X109286684Y-132068803D01*
X109283174Y-132045142D01*
X109282000Y-132021250D01*
X109282000Y-131533750D01*
X109283174Y-131509858D01*
X109286684Y-131486197D01*
X109292496Y-131462993D01*
X109300554Y-131440471D01*
X109310782Y-131418847D01*
X109323079Y-131398330D01*
X109337329Y-131379117D01*
X109353393Y-131361393D01*
X109371117Y-131345329D01*
X109390330Y-131331079D01*
X109410847Y-131318782D01*
X109432471Y-131308554D01*
X109454993Y-131300496D01*
X109478197Y-131294684D01*
X109501858Y-131291174D01*
X109525750Y-131290000D01*
X110438250Y-131290000D01*
X110462142Y-131291174D01*
X110462142Y-131291174D01*
G37*
D12*
X109982000Y-131777500D03*
D11*
G36*
X110462142Y-133166174D02*
X110485803Y-133169684D01*
X110509007Y-133175496D01*
X110531529Y-133183554D01*
X110553153Y-133193782D01*
X110573670Y-133206079D01*
X110592883Y-133220329D01*
X110610607Y-133236393D01*
X110626671Y-133254117D01*
X110640921Y-133273330D01*
X110653218Y-133293847D01*
X110663446Y-133315471D01*
X110671504Y-133337993D01*
X110677316Y-133361197D01*
X110680826Y-133384858D01*
X110682000Y-133408750D01*
X110682000Y-133896250D01*
X110680826Y-133920142D01*
X110677316Y-133943803D01*
X110671504Y-133967007D01*
X110663446Y-133989529D01*
X110653218Y-134011153D01*
X110640921Y-134031670D01*
X110626671Y-134050883D01*
X110610607Y-134068607D01*
X110592883Y-134084671D01*
X110573670Y-134098921D01*
X110553153Y-134111218D01*
X110531529Y-134121446D01*
X110509007Y-134129504D01*
X110485803Y-134135316D01*
X110462142Y-134138826D01*
X110438250Y-134140000D01*
X109525750Y-134140000D01*
X109501858Y-134138826D01*
X109478197Y-134135316D01*
X109454993Y-134129504D01*
X109432471Y-134121446D01*
X109410847Y-134111218D01*
X109390330Y-134098921D01*
X109371117Y-134084671D01*
X109353393Y-134068607D01*
X109337329Y-134050883D01*
X109323079Y-134031670D01*
X109310782Y-134011153D01*
X109300554Y-133989529D01*
X109292496Y-133967007D01*
X109286684Y-133943803D01*
X109283174Y-133920142D01*
X109282000Y-133896250D01*
X109282000Y-133408750D01*
X109283174Y-133384858D01*
X109286684Y-133361197D01*
X109292496Y-133337993D01*
X109300554Y-133315471D01*
X109310782Y-133293847D01*
X109323079Y-133273330D01*
X109337329Y-133254117D01*
X109353393Y-133236393D01*
X109371117Y-133220329D01*
X109390330Y-133206079D01*
X109410847Y-133193782D01*
X109432471Y-133183554D01*
X109454993Y-133175496D01*
X109478197Y-133169684D01*
X109501858Y-133166174D01*
X109525750Y-133165000D01*
X110438250Y-133165000D01*
X110462142Y-133166174D01*
X110462142Y-133166174D01*
G37*
D12*
X109982000Y-133652500D03*
G04 #@! TD*
D11*
G04 #@! TO.C,C2*
G36*
X92682142Y-141451174D02*
X92705803Y-141454684D01*
X92729007Y-141460496D01*
X92751529Y-141468554D01*
X92773153Y-141478782D01*
X92793670Y-141491079D01*
X92812883Y-141505329D01*
X92830607Y-141521393D01*
X92846671Y-141539117D01*
X92860921Y-141558330D01*
X92873218Y-141578847D01*
X92883446Y-141600471D01*
X92891504Y-141622993D01*
X92897316Y-141646197D01*
X92900826Y-141669858D01*
X92902000Y-141693750D01*
X92902000Y-142181250D01*
X92900826Y-142205142D01*
X92897316Y-142228803D01*
X92891504Y-142252007D01*
X92883446Y-142274529D01*
X92873218Y-142296153D01*
X92860921Y-142316670D01*
X92846671Y-142335883D01*
X92830607Y-142353607D01*
X92812883Y-142369671D01*
X92793670Y-142383921D01*
X92773153Y-142396218D01*
X92751529Y-142406446D01*
X92729007Y-142414504D01*
X92705803Y-142420316D01*
X92682142Y-142423826D01*
X92658250Y-142425000D01*
X91745750Y-142425000D01*
X91721858Y-142423826D01*
X91698197Y-142420316D01*
X91674993Y-142414504D01*
X91652471Y-142406446D01*
X91630847Y-142396218D01*
X91610330Y-142383921D01*
X91591117Y-142369671D01*
X91573393Y-142353607D01*
X91557329Y-142335883D01*
X91543079Y-142316670D01*
X91530782Y-142296153D01*
X91520554Y-142274529D01*
X91512496Y-142252007D01*
X91506684Y-142228803D01*
X91503174Y-142205142D01*
X91502000Y-142181250D01*
X91502000Y-141693750D01*
X91503174Y-141669858D01*
X91506684Y-141646197D01*
X91512496Y-141622993D01*
X91520554Y-141600471D01*
X91530782Y-141578847D01*
X91543079Y-141558330D01*
X91557329Y-141539117D01*
X91573393Y-141521393D01*
X91591117Y-141505329D01*
X91610330Y-141491079D01*
X91630847Y-141478782D01*
X91652471Y-141468554D01*
X91674993Y-141460496D01*
X91698197Y-141454684D01*
X91721858Y-141451174D01*
X91745750Y-141450000D01*
X92658250Y-141450000D01*
X92682142Y-141451174D01*
X92682142Y-141451174D01*
G37*
D12*
X92202000Y-141937500D03*
D11*
G36*
X92682142Y-143326174D02*
X92705803Y-143329684D01*
X92729007Y-143335496D01*
X92751529Y-143343554D01*
X92773153Y-143353782D01*
X92793670Y-143366079D01*
X92812883Y-143380329D01*
X92830607Y-143396393D01*
X92846671Y-143414117D01*
X92860921Y-143433330D01*
X92873218Y-143453847D01*
X92883446Y-143475471D01*
X92891504Y-143497993D01*
X92897316Y-143521197D01*
X92900826Y-143544858D01*
X92902000Y-143568750D01*
X92902000Y-144056250D01*
X92900826Y-144080142D01*
X92897316Y-144103803D01*
X92891504Y-144127007D01*
X92883446Y-144149529D01*
X92873218Y-144171153D01*
X92860921Y-144191670D01*
X92846671Y-144210883D01*
X92830607Y-144228607D01*
X92812883Y-144244671D01*
X92793670Y-144258921D01*
X92773153Y-144271218D01*
X92751529Y-144281446D01*
X92729007Y-144289504D01*
X92705803Y-144295316D01*
X92682142Y-144298826D01*
X92658250Y-144300000D01*
X91745750Y-144300000D01*
X91721858Y-144298826D01*
X91698197Y-144295316D01*
X91674993Y-144289504D01*
X91652471Y-144281446D01*
X91630847Y-144271218D01*
X91610330Y-144258921D01*
X91591117Y-144244671D01*
X91573393Y-144228607D01*
X91557329Y-144210883D01*
X91543079Y-144191670D01*
X91530782Y-144171153D01*
X91520554Y-144149529D01*
X91512496Y-144127007D01*
X91506684Y-144103803D01*
X91503174Y-144080142D01*
X91502000Y-144056250D01*
X91502000Y-143568750D01*
X91503174Y-143544858D01*
X91506684Y-143521197D01*
X91512496Y-143497993D01*
X91520554Y-143475471D01*
X91530782Y-143453847D01*
X91543079Y-143433330D01*
X91557329Y-143414117D01*
X91573393Y-143396393D01*
X91591117Y-143380329D01*
X91610330Y-143366079D01*
X91630847Y-143353782D01*
X91652471Y-143343554D01*
X91674993Y-143335496D01*
X91698197Y-143329684D01*
X91721858Y-143326174D01*
X91745750Y-143325000D01*
X92658250Y-143325000D01*
X92682142Y-143326174D01*
X92682142Y-143326174D01*
G37*
D12*
X92202000Y-143812500D03*
G04 #@! TD*
D11*
G04 #@! TO.C,C1*
G36*
X92682142Y-131291174D02*
X92705803Y-131294684D01*
X92729007Y-131300496D01*
X92751529Y-131308554D01*
X92773153Y-131318782D01*
X92793670Y-131331079D01*
X92812883Y-131345329D01*
X92830607Y-131361393D01*
X92846671Y-131379117D01*
X92860921Y-131398330D01*
X92873218Y-131418847D01*
X92883446Y-131440471D01*
X92891504Y-131462993D01*
X92897316Y-131486197D01*
X92900826Y-131509858D01*
X92902000Y-131533750D01*
X92902000Y-132021250D01*
X92900826Y-132045142D01*
X92897316Y-132068803D01*
X92891504Y-132092007D01*
X92883446Y-132114529D01*
X92873218Y-132136153D01*
X92860921Y-132156670D01*
X92846671Y-132175883D01*
X92830607Y-132193607D01*
X92812883Y-132209671D01*
X92793670Y-132223921D01*
X92773153Y-132236218D01*
X92751529Y-132246446D01*
X92729007Y-132254504D01*
X92705803Y-132260316D01*
X92682142Y-132263826D01*
X92658250Y-132265000D01*
X91745750Y-132265000D01*
X91721858Y-132263826D01*
X91698197Y-132260316D01*
X91674993Y-132254504D01*
X91652471Y-132246446D01*
X91630847Y-132236218D01*
X91610330Y-132223921D01*
X91591117Y-132209671D01*
X91573393Y-132193607D01*
X91557329Y-132175883D01*
X91543079Y-132156670D01*
X91530782Y-132136153D01*
X91520554Y-132114529D01*
X91512496Y-132092007D01*
X91506684Y-132068803D01*
X91503174Y-132045142D01*
X91502000Y-132021250D01*
X91502000Y-131533750D01*
X91503174Y-131509858D01*
X91506684Y-131486197D01*
X91512496Y-131462993D01*
X91520554Y-131440471D01*
X91530782Y-131418847D01*
X91543079Y-131398330D01*
X91557329Y-131379117D01*
X91573393Y-131361393D01*
X91591117Y-131345329D01*
X91610330Y-131331079D01*
X91630847Y-131318782D01*
X91652471Y-131308554D01*
X91674993Y-131300496D01*
X91698197Y-131294684D01*
X91721858Y-131291174D01*
X91745750Y-131290000D01*
X92658250Y-131290000D01*
X92682142Y-131291174D01*
X92682142Y-131291174D01*
G37*
D12*
X92202000Y-131777500D03*
D11*
G36*
X92682142Y-133166174D02*
X92705803Y-133169684D01*
X92729007Y-133175496D01*
X92751529Y-133183554D01*
X92773153Y-133193782D01*
X92793670Y-133206079D01*
X92812883Y-133220329D01*
X92830607Y-133236393D01*
X92846671Y-133254117D01*
X92860921Y-133273330D01*
X92873218Y-133293847D01*
X92883446Y-133315471D01*
X92891504Y-133337993D01*
X92897316Y-133361197D01*
X92900826Y-133384858D01*
X92902000Y-133408750D01*
X92902000Y-133896250D01*
X92900826Y-133920142D01*
X92897316Y-133943803D01*
X92891504Y-133967007D01*
X92883446Y-133989529D01*
X92873218Y-134011153D01*
X92860921Y-134031670D01*
X92846671Y-134050883D01*
X92830607Y-134068607D01*
X92812883Y-134084671D01*
X92793670Y-134098921D01*
X92773153Y-134111218D01*
X92751529Y-134121446D01*
X92729007Y-134129504D01*
X92705803Y-134135316D01*
X92682142Y-134138826D01*
X92658250Y-134140000D01*
X91745750Y-134140000D01*
X91721858Y-134138826D01*
X91698197Y-134135316D01*
X91674993Y-134129504D01*
X91652471Y-134121446D01*
X91630847Y-134111218D01*
X91610330Y-134098921D01*
X91591117Y-134084671D01*
X91573393Y-134068607D01*
X91557329Y-134050883D01*
X91543079Y-134031670D01*
X91530782Y-134011153D01*
X91520554Y-133989529D01*
X91512496Y-133967007D01*
X91506684Y-133943803D01*
X91503174Y-133920142D01*
X91502000Y-133896250D01*
X91502000Y-133408750D01*
X91503174Y-133384858D01*
X91506684Y-133361197D01*
X91512496Y-133337993D01*
X91520554Y-133315471D01*
X91530782Y-133293847D01*
X91543079Y-133273330D01*
X91557329Y-133254117D01*
X91573393Y-133236393D01*
X91591117Y-133220329D01*
X91610330Y-133206079D01*
X91630847Y-133193782D01*
X91652471Y-133183554D01*
X91674993Y-133175496D01*
X91698197Y-133169684D01*
X91721858Y-133166174D01*
X91745750Y-133165000D01*
X92658250Y-133165000D01*
X92682142Y-133166174D01*
X92682142Y-133166174D01*
G37*
D12*
X92202000Y-133652500D03*
G04 #@! TD*
D13*
G04 #@! TO.C,D2*
X105537000Y-75820000D03*
D14*
X105537000Y-73445000D03*
G04 #@! TD*
G04 #@! TO.C,D1*
X109347000Y-75145000D03*
D13*
X109347000Y-72770000D03*
G04 #@! TD*
D15*
G04 #@! TO.C,U1*
X105697000Y-134620000D03*
X105697000Y-135890000D03*
X105697000Y-137160000D03*
X105697000Y-138430000D03*
X105697000Y-139700000D03*
X105697000Y-140970000D03*
X105697000Y-142240000D03*
X100297000Y-142240000D03*
X100297000Y-140970000D03*
X100297000Y-139700000D03*
X100297000Y-138430000D03*
X100297000Y-137160000D03*
X100297000Y-135890000D03*
X100297000Y-134620000D03*
G04 #@! TD*
D11*
G04 #@! TO.C,R22*
G36*
X128362142Y-122491174D02*
X128385803Y-122494684D01*
X128409007Y-122500496D01*
X128431529Y-122508554D01*
X128453153Y-122518782D01*
X128473670Y-122531079D01*
X128492883Y-122545329D01*
X128510607Y-122561393D01*
X128526671Y-122579117D01*
X128540921Y-122598330D01*
X128553218Y-122618847D01*
X128563446Y-122640471D01*
X128571504Y-122662993D01*
X128577316Y-122686197D01*
X128580826Y-122709858D01*
X128582000Y-122733750D01*
X128582000Y-123646250D01*
X128580826Y-123670142D01*
X128577316Y-123693803D01*
X128571504Y-123717007D01*
X128563446Y-123739529D01*
X128553218Y-123761153D01*
X128540921Y-123781670D01*
X128526671Y-123800883D01*
X128510607Y-123818607D01*
X128492883Y-123834671D01*
X128473670Y-123848921D01*
X128453153Y-123861218D01*
X128431529Y-123871446D01*
X128409007Y-123879504D01*
X128385803Y-123885316D01*
X128362142Y-123888826D01*
X128338250Y-123890000D01*
X127850750Y-123890000D01*
X127826858Y-123888826D01*
X127803197Y-123885316D01*
X127779993Y-123879504D01*
X127757471Y-123871446D01*
X127735847Y-123861218D01*
X127715330Y-123848921D01*
X127696117Y-123834671D01*
X127678393Y-123818607D01*
X127662329Y-123800883D01*
X127648079Y-123781670D01*
X127635782Y-123761153D01*
X127625554Y-123739529D01*
X127617496Y-123717007D01*
X127611684Y-123693803D01*
X127608174Y-123670142D01*
X127607000Y-123646250D01*
X127607000Y-122733750D01*
X127608174Y-122709858D01*
X127611684Y-122686197D01*
X127617496Y-122662993D01*
X127625554Y-122640471D01*
X127635782Y-122618847D01*
X127648079Y-122598330D01*
X127662329Y-122579117D01*
X127678393Y-122561393D01*
X127696117Y-122545329D01*
X127715330Y-122531079D01*
X127735847Y-122518782D01*
X127757471Y-122508554D01*
X127779993Y-122500496D01*
X127803197Y-122494684D01*
X127826858Y-122491174D01*
X127850750Y-122490000D01*
X128338250Y-122490000D01*
X128362142Y-122491174D01*
X128362142Y-122491174D01*
G37*
D12*
X128094500Y-123190000D03*
D11*
G36*
X130237142Y-122491174D02*
X130260803Y-122494684D01*
X130284007Y-122500496D01*
X130306529Y-122508554D01*
X130328153Y-122518782D01*
X130348670Y-122531079D01*
X130367883Y-122545329D01*
X130385607Y-122561393D01*
X130401671Y-122579117D01*
X130415921Y-122598330D01*
X130428218Y-122618847D01*
X130438446Y-122640471D01*
X130446504Y-122662993D01*
X130452316Y-122686197D01*
X130455826Y-122709858D01*
X130457000Y-122733750D01*
X130457000Y-123646250D01*
X130455826Y-123670142D01*
X130452316Y-123693803D01*
X130446504Y-123717007D01*
X130438446Y-123739529D01*
X130428218Y-123761153D01*
X130415921Y-123781670D01*
X130401671Y-123800883D01*
X130385607Y-123818607D01*
X130367883Y-123834671D01*
X130348670Y-123848921D01*
X130328153Y-123861218D01*
X130306529Y-123871446D01*
X130284007Y-123879504D01*
X130260803Y-123885316D01*
X130237142Y-123888826D01*
X130213250Y-123890000D01*
X129725750Y-123890000D01*
X129701858Y-123888826D01*
X129678197Y-123885316D01*
X129654993Y-123879504D01*
X129632471Y-123871446D01*
X129610847Y-123861218D01*
X129590330Y-123848921D01*
X129571117Y-123834671D01*
X129553393Y-123818607D01*
X129537329Y-123800883D01*
X129523079Y-123781670D01*
X129510782Y-123761153D01*
X129500554Y-123739529D01*
X129492496Y-123717007D01*
X129486684Y-123693803D01*
X129483174Y-123670142D01*
X129482000Y-123646250D01*
X129482000Y-122733750D01*
X129483174Y-122709858D01*
X129486684Y-122686197D01*
X129492496Y-122662993D01*
X129500554Y-122640471D01*
X129510782Y-122618847D01*
X129523079Y-122598330D01*
X129537329Y-122579117D01*
X129553393Y-122561393D01*
X129571117Y-122545329D01*
X129590330Y-122531079D01*
X129610847Y-122518782D01*
X129632471Y-122508554D01*
X129654993Y-122500496D01*
X129678197Y-122494684D01*
X129701858Y-122491174D01*
X129725750Y-122490000D01*
X130213250Y-122490000D01*
X130237142Y-122491174D01*
X130237142Y-122491174D01*
G37*
D12*
X129969500Y-123190000D03*
G04 #@! TD*
D11*
G04 #@! TO.C,R21*
G36*
X128362142Y-126301174D02*
X128385803Y-126304684D01*
X128409007Y-126310496D01*
X128431529Y-126318554D01*
X128453153Y-126328782D01*
X128473670Y-126341079D01*
X128492883Y-126355329D01*
X128510607Y-126371393D01*
X128526671Y-126389117D01*
X128540921Y-126408330D01*
X128553218Y-126428847D01*
X128563446Y-126450471D01*
X128571504Y-126472993D01*
X128577316Y-126496197D01*
X128580826Y-126519858D01*
X128582000Y-126543750D01*
X128582000Y-127456250D01*
X128580826Y-127480142D01*
X128577316Y-127503803D01*
X128571504Y-127527007D01*
X128563446Y-127549529D01*
X128553218Y-127571153D01*
X128540921Y-127591670D01*
X128526671Y-127610883D01*
X128510607Y-127628607D01*
X128492883Y-127644671D01*
X128473670Y-127658921D01*
X128453153Y-127671218D01*
X128431529Y-127681446D01*
X128409007Y-127689504D01*
X128385803Y-127695316D01*
X128362142Y-127698826D01*
X128338250Y-127700000D01*
X127850750Y-127700000D01*
X127826858Y-127698826D01*
X127803197Y-127695316D01*
X127779993Y-127689504D01*
X127757471Y-127681446D01*
X127735847Y-127671218D01*
X127715330Y-127658921D01*
X127696117Y-127644671D01*
X127678393Y-127628607D01*
X127662329Y-127610883D01*
X127648079Y-127591670D01*
X127635782Y-127571153D01*
X127625554Y-127549529D01*
X127617496Y-127527007D01*
X127611684Y-127503803D01*
X127608174Y-127480142D01*
X127607000Y-127456250D01*
X127607000Y-126543750D01*
X127608174Y-126519858D01*
X127611684Y-126496197D01*
X127617496Y-126472993D01*
X127625554Y-126450471D01*
X127635782Y-126428847D01*
X127648079Y-126408330D01*
X127662329Y-126389117D01*
X127678393Y-126371393D01*
X127696117Y-126355329D01*
X127715330Y-126341079D01*
X127735847Y-126328782D01*
X127757471Y-126318554D01*
X127779993Y-126310496D01*
X127803197Y-126304684D01*
X127826858Y-126301174D01*
X127850750Y-126300000D01*
X128338250Y-126300000D01*
X128362142Y-126301174D01*
X128362142Y-126301174D01*
G37*
D12*
X128094500Y-127000000D03*
D11*
G36*
X130237142Y-126301174D02*
X130260803Y-126304684D01*
X130284007Y-126310496D01*
X130306529Y-126318554D01*
X130328153Y-126328782D01*
X130348670Y-126341079D01*
X130367883Y-126355329D01*
X130385607Y-126371393D01*
X130401671Y-126389117D01*
X130415921Y-126408330D01*
X130428218Y-126428847D01*
X130438446Y-126450471D01*
X130446504Y-126472993D01*
X130452316Y-126496197D01*
X130455826Y-126519858D01*
X130457000Y-126543750D01*
X130457000Y-127456250D01*
X130455826Y-127480142D01*
X130452316Y-127503803D01*
X130446504Y-127527007D01*
X130438446Y-127549529D01*
X130428218Y-127571153D01*
X130415921Y-127591670D01*
X130401671Y-127610883D01*
X130385607Y-127628607D01*
X130367883Y-127644671D01*
X130348670Y-127658921D01*
X130328153Y-127671218D01*
X130306529Y-127681446D01*
X130284007Y-127689504D01*
X130260803Y-127695316D01*
X130237142Y-127698826D01*
X130213250Y-127700000D01*
X129725750Y-127700000D01*
X129701858Y-127698826D01*
X129678197Y-127695316D01*
X129654993Y-127689504D01*
X129632471Y-127681446D01*
X129610847Y-127671218D01*
X129590330Y-127658921D01*
X129571117Y-127644671D01*
X129553393Y-127628607D01*
X129537329Y-127610883D01*
X129523079Y-127591670D01*
X129510782Y-127571153D01*
X129500554Y-127549529D01*
X129492496Y-127527007D01*
X129486684Y-127503803D01*
X129483174Y-127480142D01*
X129482000Y-127456250D01*
X129482000Y-126543750D01*
X129483174Y-126519858D01*
X129486684Y-126496197D01*
X129492496Y-126472993D01*
X129500554Y-126450471D01*
X129510782Y-126428847D01*
X129523079Y-126408330D01*
X129537329Y-126389117D01*
X129553393Y-126371393D01*
X129571117Y-126355329D01*
X129590330Y-126341079D01*
X129610847Y-126328782D01*
X129632471Y-126318554D01*
X129654993Y-126310496D01*
X129678197Y-126304684D01*
X129701858Y-126301174D01*
X129725750Y-126300000D01*
X130213250Y-126300000D01*
X130237142Y-126301174D01*
X130237142Y-126301174D01*
G37*
D12*
X129969500Y-127000000D03*
G04 #@! TD*
D11*
G04 #@! TO.C,R20*
G36*
X108042142Y-122491174D02*
X108065803Y-122494684D01*
X108089007Y-122500496D01*
X108111529Y-122508554D01*
X108133153Y-122518782D01*
X108153670Y-122531079D01*
X108172883Y-122545329D01*
X108190607Y-122561393D01*
X108206671Y-122579117D01*
X108220921Y-122598330D01*
X108233218Y-122618847D01*
X108243446Y-122640471D01*
X108251504Y-122662993D01*
X108257316Y-122686197D01*
X108260826Y-122709858D01*
X108262000Y-122733750D01*
X108262000Y-123646250D01*
X108260826Y-123670142D01*
X108257316Y-123693803D01*
X108251504Y-123717007D01*
X108243446Y-123739529D01*
X108233218Y-123761153D01*
X108220921Y-123781670D01*
X108206671Y-123800883D01*
X108190607Y-123818607D01*
X108172883Y-123834671D01*
X108153670Y-123848921D01*
X108133153Y-123861218D01*
X108111529Y-123871446D01*
X108089007Y-123879504D01*
X108065803Y-123885316D01*
X108042142Y-123888826D01*
X108018250Y-123890000D01*
X107530750Y-123890000D01*
X107506858Y-123888826D01*
X107483197Y-123885316D01*
X107459993Y-123879504D01*
X107437471Y-123871446D01*
X107415847Y-123861218D01*
X107395330Y-123848921D01*
X107376117Y-123834671D01*
X107358393Y-123818607D01*
X107342329Y-123800883D01*
X107328079Y-123781670D01*
X107315782Y-123761153D01*
X107305554Y-123739529D01*
X107297496Y-123717007D01*
X107291684Y-123693803D01*
X107288174Y-123670142D01*
X107287000Y-123646250D01*
X107287000Y-122733750D01*
X107288174Y-122709858D01*
X107291684Y-122686197D01*
X107297496Y-122662993D01*
X107305554Y-122640471D01*
X107315782Y-122618847D01*
X107328079Y-122598330D01*
X107342329Y-122579117D01*
X107358393Y-122561393D01*
X107376117Y-122545329D01*
X107395330Y-122531079D01*
X107415847Y-122518782D01*
X107437471Y-122508554D01*
X107459993Y-122500496D01*
X107483197Y-122494684D01*
X107506858Y-122491174D01*
X107530750Y-122490000D01*
X108018250Y-122490000D01*
X108042142Y-122491174D01*
X108042142Y-122491174D01*
G37*
D12*
X107774500Y-123190000D03*
D11*
G36*
X109917142Y-122491174D02*
X109940803Y-122494684D01*
X109964007Y-122500496D01*
X109986529Y-122508554D01*
X110008153Y-122518782D01*
X110028670Y-122531079D01*
X110047883Y-122545329D01*
X110065607Y-122561393D01*
X110081671Y-122579117D01*
X110095921Y-122598330D01*
X110108218Y-122618847D01*
X110118446Y-122640471D01*
X110126504Y-122662993D01*
X110132316Y-122686197D01*
X110135826Y-122709858D01*
X110137000Y-122733750D01*
X110137000Y-123646250D01*
X110135826Y-123670142D01*
X110132316Y-123693803D01*
X110126504Y-123717007D01*
X110118446Y-123739529D01*
X110108218Y-123761153D01*
X110095921Y-123781670D01*
X110081671Y-123800883D01*
X110065607Y-123818607D01*
X110047883Y-123834671D01*
X110028670Y-123848921D01*
X110008153Y-123861218D01*
X109986529Y-123871446D01*
X109964007Y-123879504D01*
X109940803Y-123885316D01*
X109917142Y-123888826D01*
X109893250Y-123890000D01*
X109405750Y-123890000D01*
X109381858Y-123888826D01*
X109358197Y-123885316D01*
X109334993Y-123879504D01*
X109312471Y-123871446D01*
X109290847Y-123861218D01*
X109270330Y-123848921D01*
X109251117Y-123834671D01*
X109233393Y-123818607D01*
X109217329Y-123800883D01*
X109203079Y-123781670D01*
X109190782Y-123761153D01*
X109180554Y-123739529D01*
X109172496Y-123717007D01*
X109166684Y-123693803D01*
X109163174Y-123670142D01*
X109162000Y-123646250D01*
X109162000Y-122733750D01*
X109163174Y-122709858D01*
X109166684Y-122686197D01*
X109172496Y-122662993D01*
X109180554Y-122640471D01*
X109190782Y-122618847D01*
X109203079Y-122598330D01*
X109217329Y-122579117D01*
X109233393Y-122561393D01*
X109251117Y-122545329D01*
X109270330Y-122531079D01*
X109290847Y-122518782D01*
X109312471Y-122508554D01*
X109334993Y-122500496D01*
X109358197Y-122494684D01*
X109381858Y-122491174D01*
X109405750Y-122490000D01*
X109893250Y-122490000D01*
X109917142Y-122491174D01*
X109917142Y-122491174D01*
G37*
D12*
X109649500Y-123190000D03*
G04 #@! TD*
D11*
G04 #@! TO.C,R19*
G36*
X108042142Y-126301174D02*
X108065803Y-126304684D01*
X108089007Y-126310496D01*
X108111529Y-126318554D01*
X108133153Y-126328782D01*
X108153670Y-126341079D01*
X108172883Y-126355329D01*
X108190607Y-126371393D01*
X108206671Y-126389117D01*
X108220921Y-126408330D01*
X108233218Y-126428847D01*
X108243446Y-126450471D01*
X108251504Y-126472993D01*
X108257316Y-126496197D01*
X108260826Y-126519858D01*
X108262000Y-126543750D01*
X108262000Y-127456250D01*
X108260826Y-127480142D01*
X108257316Y-127503803D01*
X108251504Y-127527007D01*
X108243446Y-127549529D01*
X108233218Y-127571153D01*
X108220921Y-127591670D01*
X108206671Y-127610883D01*
X108190607Y-127628607D01*
X108172883Y-127644671D01*
X108153670Y-127658921D01*
X108133153Y-127671218D01*
X108111529Y-127681446D01*
X108089007Y-127689504D01*
X108065803Y-127695316D01*
X108042142Y-127698826D01*
X108018250Y-127700000D01*
X107530750Y-127700000D01*
X107506858Y-127698826D01*
X107483197Y-127695316D01*
X107459993Y-127689504D01*
X107437471Y-127681446D01*
X107415847Y-127671218D01*
X107395330Y-127658921D01*
X107376117Y-127644671D01*
X107358393Y-127628607D01*
X107342329Y-127610883D01*
X107328079Y-127591670D01*
X107315782Y-127571153D01*
X107305554Y-127549529D01*
X107297496Y-127527007D01*
X107291684Y-127503803D01*
X107288174Y-127480142D01*
X107287000Y-127456250D01*
X107287000Y-126543750D01*
X107288174Y-126519858D01*
X107291684Y-126496197D01*
X107297496Y-126472993D01*
X107305554Y-126450471D01*
X107315782Y-126428847D01*
X107328079Y-126408330D01*
X107342329Y-126389117D01*
X107358393Y-126371393D01*
X107376117Y-126355329D01*
X107395330Y-126341079D01*
X107415847Y-126328782D01*
X107437471Y-126318554D01*
X107459993Y-126310496D01*
X107483197Y-126304684D01*
X107506858Y-126301174D01*
X107530750Y-126300000D01*
X108018250Y-126300000D01*
X108042142Y-126301174D01*
X108042142Y-126301174D01*
G37*
D12*
X107774500Y-127000000D03*
D11*
G36*
X109917142Y-126301174D02*
X109940803Y-126304684D01*
X109964007Y-126310496D01*
X109986529Y-126318554D01*
X110008153Y-126328782D01*
X110028670Y-126341079D01*
X110047883Y-126355329D01*
X110065607Y-126371393D01*
X110081671Y-126389117D01*
X110095921Y-126408330D01*
X110108218Y-126428847D01*
X110118446Y-126450471D01*
X110126504Y-126472993D01*
X110132316Y-126496197D01*
X110135826Y-126519858D01*
X110137000Y-126543750D01*
X110137000Y-127456250D01*
X110135826Y-127480142D01*
X110132316Y-127503803D01*
X110126504Y-127527007D01*
X110118446Y-127549529D01*
X110108218Y-127571153D01*
X110095921Y-127591670D01*
X110081671Y-127610883D01*
X110065607Y-127628607D01*
X110047883Y-127644671D01*
X110028670Y-127658921D01*
X110008153Y-127671218D01*
X109986529Y-127681446D01*
X109964007Y-127689504D01*
X109940803Y-127695316D01*
X109917142Y-127698826D01*
X109893250Y-127700000D01*
X109405750Y-127700000D01*
X109381858Y-127698826D01*
X109358197Y-127695316D01*
X109334993Y-127689504D01*
X109312471Y-127681446D01*
X109290847Y-127671218D01*
X109270330Y-127658921D01*
X109251117Y-127644671D01*
X109233393Y-127628607D01*
X109217329Y-127610883D01*
X109203079Y-127591670D01*
X109190782Y-127571153D01*
X109180554Y-127549529D01*
X109172496Y-127527007D01*
X109166684Y-127503803D01*
X109163174Y-127480142D01*
X109162000Y-127456250D01*
X109162000Y-126543750D01*
X109163174Y-126519858D01*
X109166684Y-126496197D01*
X109172496Y-126472993D01*
X109180554Y-126450471D01*
X109190782Y-126428847D01*
X109203079Y-126408330D01*
X109217329Y-126389117D01*
X109233393Y-126371393D01*
X109251117Y-126355329D01*
X109270330Y-126341079D01*
X109290847Y-126328782D01*
X109312471Y-126318554D01*
X109334993Y-126310496D01*
X109358197Y-126304684D01*
X109381858Y-126301174D01*
X109405750Y-126300000D01*
X109893250Y-126300000D01*
X109917142Y-126301174D01*
X109917142Y-126301174D01*
G37*
D12*
X109649500Y-127000000D03*
G04 #@! TD*
D11*
G04 #@! TO.C,R18*
G36*
X110462142Y-148406174D02*
X110485803Y-148409684D01*
X110509007Y-148415496D01*
X110531529Y-148423554D01*
X110553153Y-148433782D01*
X110573670Y-148446079D01*
X110592883Y-148460329D01*
X110610607Y-148476393D01*
X110626671Y-148494117D01*
X110640921Y-148513330D01*
X110653218Y-148533847D01*
X110663446Y-148555471D01*
X110671504Y-148577993D01*
X110677316Y-148601197D01*
X110680826Y-148624858D01*
X110682000Y-148648750D01*
X110682000Y-149136250D01*
X110680826Y-149160142D01*
X110677316Y-149183803D01*
X110671504Y-149207007D01*
X110663446Y-149229529D01*
X110653218Y-149251153D01*
X110640921Y-149271670D01*
X110626671Y-149290883D01*
X110610607Y-149308607D01*
X110592883Y-149324671D01*
X110573670Y-149338921D01*
X110553153Y-149351218D01*
X110531529Y-149361446D01*
X110509007Y-149369504D01*
X110485803Y-149375316D01*
X110462142Y-149378826D01*
X110438250Y-149380000D01*
X109525750Y-149380000D01*
X109501858Y-149378826D01*
X109478197Y-149375316D01*
X109454993Y-149369504D01*
X109432471Y-149361446D01*
X109410847Y-149351218D01*
X109390330Y-149338921D01*
X109371117Y-149324671D01*
X109353393Y-149308607D01*
X109337329Y-149290883D01*
X109323079Y-149271670D01*
X109310782Y-149251153D01*
X109300554Y-149229529D01*
X109292496Y-149207007D01*
X109286684Y-149183803D01*
X109283174Y-149160142D01*
X109282000Y-149136250D01*
X109282000Y-148648750D01*
X109283174Y-148624858D01*
X109286684Y-148601197D01*
X109292496Y-148577993D01*
X109300554Y-148555471D01*
X109310782Y-148533847D01*
X109323079Y-148513330D01*
X109337329Y-148494117D01*
X109353393Y-148476393D01*
X109371117Y-148460329D01*
X109390330Y-148446079D01*
X109410847Y-148433782D01*
X109432471Y-148423554D01*
X109454993Y-148415496D01*
X109478197Y-148409684D01*
X109501858Y-148406174D01*
X109525750Y-148405000D01*
X110438250Y-148405000D01*
X110462142Y-148406174D01*
X110462142Y-148406174D01*
G37*
D12*
X109982000Y-148892500D03*
D11*
G36*
X110462142Y-146531174D02*
X110485803Y-146534684D01*
X110509007Y-146540496D01*
X110531529Y-146548554D01*
X110553153Y-146558782D01*
X110573670Y-146571079D01*
X110592883Y-146585329D01*
X110610607Y-146601393D01*
X110626671Y-146619117D01*
X110640921Y-146638330D01*
X110653218Y-146658847D01*
X110663446Y-146680471D01*
X110671504Y-146702993D01*
X110677316Y-146726197D01*
X110680826Y-146749858D01*
X110682000Y-146773750D01*
X110682000Y-147261250D01*
X110680826Y-147285142D01*
X110677316Y-147308803D01*
X110671504Y-147332007D01*
X110663446Y-147354529D01*
X110653218Y-147376153D01*
X110640921Y-147396670D01*
X110626671Y-147415883D01*
X110610607Y-147433607D01*
X110592883Y-147449671D01*
X110573670Y-147463921D01*
X110553153Y-147476218D01*
X110531529Y-147486446D01*
X110509007Y-147494504D01*
X110485803Y-147500316D01*
X110462142Y-147503826D01*
X110438250Y-147505000D01*
X109525750Y-147505000D01*
X109501858Y-147503826D01*
X109478197Y-147500316D01*
X109454993Y-147494504D01*
X109432471Y-147486446D01*
X109410847Y-147476218D01*
X109390330Y-147463921D01*
X109371117Y-147449671D01*
X109353393Y-147433607D01*
X109337329Y-147415883D01*
X109323079Y-147396670D01*
X109310782Y-147376153D01*
X109300554Y-147354529D01*
X109292496Y-147332007D01*
X109286684Y-147308803D01*
X109283174Y-147285142D01*
X109282000Y-147261250D01*
X109282000Y-146773750D01*
X109283174Y-146749858D01*
X109286684Y-146726197D01*
X109292496Y-146702993D01*
X109300554Y-146680471D01*
X109310782Y-146658847D01*
X109323079Y-146638330D01*
X109337329Y-146619117D01*
X109353393Y-146601393D01*
X109371117Y-146585329D01*
X109390330Y-146571079D01*
X109410847Y-146558782D01*
X109432471Y-146548554D01*
X109454993Y-146540496D01*
X109478197Y-146534684D01*
X109501858Y-146531174D01*
X109525750Y-146530000D01*
X110438250Y-146530000D01*
X110462142Y-146531174D01*
X110462142Y-146531174D01*
G37*
D12*
X109982000Y-147017500D03*
G04 #@! TD*
D11*
G04 #@! TO.C,R17*
G36*
X114272142Y-148406174D02*
X114295803Y-148409684D01*
X114319007Y-148415496D01*
X114341529Y-148423554D01*
X114363153Y-148433782D01*
X114383670Y-148446079D01*
X114402883Y-148460329D01*
X114420607Y-148476393D01*
X114436671Y-148494117D01*
X114450921Y-148513330D01*
X114463218Y-148533847D01*
X114473446Y-148555471D01*
X114481504Y-148577993D01*
X114487316Y-148601197D01*
X114490826Y-148624858D01*
X114492000Y-148648750D01*
X114492000Y-149136250D01*
X114490826Y-149160142D01*
X114487316Y-149183803D01*
X114481504Y-149207007D01*
X114473446Y-149229529D01*
X114463218Y-149251153D01*
X114450921Y-149271670D01*
X114436671Y-149290883D01*
X114420607Y-149308607D01*
X114402883Y-149324671D01*
X114383670Y-149338921D01*
X114363153Y-149351218D01*
X114341529Y-149361446D01*
X114319007Y-149369504D01*
X114295803Y-149375316D01*
X114272142Y-149378826D01*
X114248250Y-149380000D01*
X113335750Y-149380000D01*
X113311858Y-149378826D01*
X113288197Y-149375316D01*
X113264993Y-149369504D01*
X113242471Y-149361446D01*
X113220847Y-149351218D01*
X113200330Y-149338921D01*
X113181117Y-149324671D01*
X113163393Y-149308607D01*
X113147329Y-149290883D01*
X113133079Y-149271670D01*
X113120782Y-149251153D01*
X113110554Y-149229529D01*
X113102496Y-149207007D01*
X113096684Y-149183803D01*
X113093174Y-149160142D01*
X113092000Y-149136250D01*
X113092000Y-148648750D01*
X113093174Y-148624858D01*
X113096684Y-148601197D01*
X113102496Y-148577993D01*
X113110554Y-148555471D01*
X113120782Y-148533847D01*
X113133079Y-148513330D01*
X113147329Y-148494117D01*
X113163393Y-148476393D01*
X113181117Y-148460329D01*
X113200330Y-148446079D01*
X113220847Y-148433782D01*
X113242471Y-148423554D01*
X113264993Y-148415496D01*
X113288197Y-148409684D01*
X113311858Y-148406174D01*
X113335750Y-148405000D01*
X114248250Y-148405000D01*
X114272142Y-148406174D01*
X114272142Y-148406174D01*
G37*
D12*
X113792000Y-148892500D03*
D11*
G36*
X114272142Y-146531174D02*
X114295803Y-146534684D01*
X114319007Y-146540496D01*
X114341529Y-146548554D01*
X114363153Y-146558782D01*
X114383670Y-146571079D01*
X114402883Y-146585329D01*
X114420607Y-146601393D01*
X114436671Y-146619117D01*
X114450921Y-146638330D01*
X114463218Y-146658847D01*
X114473446Y-146680471D01*
X114481504Y-146702993D01*
X114487316Y-146726197D01*
X114490826Y-146749858D01*
X114492000Y-146773750D01*
X114492000Y-147261250D01*
X114490826Y-147285142D01*
X114487316Y-147308803D01*
X114481504Y-147332007D01*
X114473446Y-147354529D01*
X114463218Y-147376153D01*
X114450921Y-147396670D01*
X114436671Y-147415883D01*
X114420607Y-147433607D01*
X114402883Y-147449671D01*
X114383670Y-147463921D01*
X114363153Y-147476218D01*
X114341529Y-147486446D01*
X114319007Y-147494504D01*
X114295803Y-147500316D01*
X114272142Y-147503826D01*
X114248250Y-147505000D01*
X113335750Y-147505000D01*
X113311858Y-147503826D01*
X113288197Y-147500316D01*
X113264993Y-147494504D01*
X113242471Y-147486446D01*
X113220847Y-147476218D01*
X113200330Y-147463921D01*
X113181117Y-147449671D01*
X113163393Y-147433607D01*
X113147329Y-147415883D01*
X113133079Y-147396670D01*
X113120782Y-147376153D01*
X113110554Y-147354529D01*
X113102496Y-147332007D01*
X113096684Y-147308803D01*
X113093174Y-147285142D01*
X113092000Y-147261250D01*
X113092000Y-146773750D01*
X113093174Y-146749858D01*
X113096684Y-146726197D01*
X113102496Y-146702993D01*
X113110554Y-146680471D01*
X113120782Y-146658847D01*
X113133079Y-146638330D01*
X113147329Y-146619117D01*
X113163393Y-146601393D01*
X113181117Y-146585329D01*
X113200330Y-146571079D01*
X113220847Y-146558782D01*
X113242471Y-146548554D01*
X113264993Y-146540496D01*
X113288197Y-146534684D01*
X113311858Y-146531174D01*
X113335750Y-146530000D01*
X114248250Y-146530000D01*
X114272142Y-146531174D01*
X114272142Y-146531174D01*
G37*
D12*
X113792000Y-147017500D03*
G04 #@! TD*
D11*
G04 #@! TO.C,R16*
G36*
X114272142Y-136371174D02*
X114295803Y-136374684D01*
X114319007Y-136380496D01*
X114341529Y-136388554D01*
X114363153Y-136398782D01*
X114383670Y-136411079D01*
X114402883Y-136425329D01*
X114420607Y-136441393D01*
X114436671Y-136459117D01*
X114450921Y-136478330D01*
X114463218Y-136498847D01*
X114473446Y-136520471D01*
X114481504Y-136542993D01*
X114487316Y-136566197D01*
X114490826Y-136589858D01*
X114492000Y-136613750D01*
X114492000Y-137101250D01*
X114490826Y-137125142D01*
X114487316Y-137148803D01*
X114481504Y-137172007D01*
X114473446Y-137194529D01*
X114463218Y-137216153D01*
X114450921Y-137236670D01*
X114436671Y-137255883D01*
X114420607Y-137273607D01*
X114402883Y-137289671D01*
X114383670Y-137303921D01*
X114363153Y-137316218D01*
X114341529Y-137326446D01*
X114319007Y-137334504D01*
X114295803Y-137340316D01*
X114272142Y-137343826D01*
X114248250Y-137345000D01*
X113335750Y-137345000D01*
X113311858Y-137343826D01*
X113288197Y-137340316D01*
X113264993Y-137334504D01*
X113242471Y-137326446D01*
X113220847Y-137316218D01*
X113200330Y-137303921D01*
X113181117Y-137289671D01*
X113163393Y-137273607D01*
X113147329Y-137255883D01*
X113133079Y-137236670D01*
X113120782Y-137216153D01*
X113110554Y-137194529D01*
X113102496Y-137172007D01*
X113096684Y-137148803D01*
X113093174Y-137125142D01*
X113092000Y-137101250D01*
X113092000Y-136613750D01*
X113093174Y-136589858D01*
X113096684Y-136566197D01*
X113102496Y-136542993D01*
X113110554Y-136520471D01*
X113120782Y-136498847D01*
X113133079Y-136478330D01*
X113147329Y-136459117D01*
X113163393Y-136441393D01*
X113181117Y-136425329D01*
X113200330Y-136411079D01*
X113220847Y-136398782D01*
X113242471Y-136388554D01*
X113264993Y-136380496D01*
X113288197Y-136374684D01*
X113311858Y-136371174D01*
X113335750Y-136370000D01*
X114248250Y-136370000D01*
X114272142Y-136371174D01*
X114272142Y-136371174D01*
G37*
D12*
X113792000Y-136857500D03*
D11*
G36*
X114272142Y-138246174D02*
X114295803Y-138249684D01*
X114319007Y-138255496D01*
X114341529Y-138263554D01*
X114363153Y-138273782D01*
X114383670Y-138286079D01*
X114402883Y-138300329D01*
X114420607Y-138316393D01*
X114436671Y-138334117D01*
X114450921Y-138353330D01*
X114463218Y-138373847D01*
X114473446Y-138395471D01*
X114481504Y-138417993D01*
X114487316Y-138441197D01*
X114490826Y-138464858D01*
X114492000Y-138488750D01*
X114492000Y-138976250D01*
X114490826Y-139000142D01*
X114487316Y-139023803D01*
X114481504Y-139047007D01*
X114473446Y-139069529D01*
X114463218Y-139091153D01*
X114450921Y-139111670D01*
X114436671Y-139130883D01*
X114420607Y-139148607D01*
X114402883Y-139164671D01*
X114383670Y-139178921D01*
X114363153Y-139191218D01*
X114341529Y-139201446D01*
X114319007Y-139209504D01*
X114295803Y-139215316D01*
X114272142Y-139218826D01*
X114248250Y-139220000D01*
X113335750Y-139220000D01*
X113311858Y-139218826D01*
X113288197Y-139215316D01*
X113264993Y-139209504D01*
X113242471Y-139201446D01*
X113220847Y-139191218D01*
X113200330Y-139178921D01*
X113181117Y-139164671D01*
X113163393Y-139148607D01*
X113147329Y-139130883D01*
X113133079Y-139111670D01*
X113120782Y-139091153D01*
X113110554Y-139069529D01*
X113102496Y-139047007D01*
X113096684Y-139023803D01*
X113093174Y-139000142D01*
X113092000Y-138976250D01*
X113092000Y-138488750D01*
X113093174Y-138464858D01*
X113096684Y-138441197D01*
X113102496Y-138417993D01*
X113110554Y-138395471D01*
X113120782Y-138373847D01*
X113133079Y-138353330D01*
X113147329Y-138334117D01*
X113163393Y-138316393D01*
X113181117Y-138300329D01*
X113200330Y-138286079D01*
X113220847Y-138273782D01*
X113242471Y-138263554D01*
X113264993Y-138255496D01*
X113288197Y-138249684D01*
X113311858Y-138246174D01*
X113335750Y-138245000D01*
X114248250Y-138245000D01*
X114272142Y-138246174D01*
X114272142Y-138246174D01*
G37*
D12*
X113792000Y-138732500D03*
G04 #@! TD*
D11*
G04 #@! TO.C,R15*
G36*
X137857142Y-132651174D02*
X137880803Y-132654684D01*
X137904007Y-132660496D01*
X137926529Y-132668554D01*
X137948153Y-132678782D01*
X137968670Y-132691079D01*
X137987883Y-132705329D01*
X138005607Y-132721393D01*
X138021671Y-132739117D01*
X138035921Y-132758330D01*
X138048218Y-132778847D01*
X138058446Y-132800471D01*
X138066504Y-132822993D01*
X138072316Y-132846197D01*
X138075826Y-132869858D01*
X138077000Y-132893750D01*
X138077000Y-133806250D01*
X138075826Y-133830142D01*
X138072316Y-133853803D01*
X138066504Y-133877007D01*
X138058446Y-133899529D01*
X138048218Y-133921153D01*
X138035921Y-133941670D01*
X138021671Y-133960883D01*
X138005607Y-133978607D01*
X137987883Y-133994671D01*
X137968670Y-134008921D01*
X137948153Y-134021218D01*
X137926529Y-134031446D01*
X137904007Y-134039504D01*
X137880803Y-134045316D01*
X137857142Y-134048826D01*
X137833250Y-134050000D01*
X137345750Y-134050000D01*
X137321858Y-134048826D01*
X137298197Y-134045316D01*
X137274993Y-134039504D01*
X137252471Y-134031446D01*
X137230847Y-134021218D01*
X137210330Y-134008921D01*
X137191117Y-133994671D01*
X137173393Y-133978607D01*
X137157329Y-133960883D01*
X137143079Y-133941670D01*
X137130782Y-133921153D01*
X137120554Y-133899529D01*
X137112496Y-133877007D01*
X137106684Y-133853803D01*
X137103174Y-133830142D01*
X137102000Y-133806250D01*
X137102000Y-132893750D01*
X137103174Y-132869858D01*
X137106684Y-132846197D01*
X137112496Y-132822993D01*
X137120554Y-132800471D01*
X137130782Y-132778847D01*
X137143079Y-132758330D01*
X137157329Y-132739117D01*
X137173393Y-132721393D01*
X137191117Y-132705329D01*
X137210330Y-132691079D01*
X137230847Y-132678782D01*
X137252471Y-132668554D01*
X137274993Y-132660496D01*
X137298197Y-132654684D01*
X137321858Y-132651174D01*
X137345750Y-132650000D01*
X137833250Y-132650000D01*
X137857142Y-132651174D01*
X137857142Y-132651174D01*
G37*
D12*
X137589500Y-133350000D03*
D11*
G36*
X135982142Y-132651174D02*
X136005803Y-132654684D01*
X136029007Y-132660496D01*
X136051529Y-132668554D01*
X136073153Y-132678782D01*
X136093670Y-132691079D01*
X136112883Y-132705329D01*
X136130607Y-132721393D01*
X136146671Y-132739117D01*
X136160921Y-132758330D01*
X136173218Y-132778847D01*
X136183446Y-132800471D01*
X136191504Y-132822993D01*
X136197316Y-132846197D01*
X136200826Y-132869858D01*
X136202000Y-132893750D01*
X136202000Y-133806250D01*
X136200826Y-133830142D01*
X136197316Y-133853803D01*
X136191504Y-133877007D01*
X136183446Y-133899529D01*
X136173218Y-133921153D01*
X136160921Y-133941670D01*
X136146671Y-133960883D01*
X136130607Y-133978607D01*
X136112883Y-133994671D01*
X136093670Y-134008921D01*
X136073153Y-134021218D01*
X136051529Y-134031446D01*
X136029007Y-134039504D01*
X136005803Y-134045316D01*
X135982142Y-134048826D01*
X135958250Y-134050000D01*
X135470750Y-134050000D01*
X135446858Y-134048826D01*
X135423197Y-134045316D01*
X135399993Y-134039504D01*
X135377471Y-134031446D01*
X135355847Y-134021218D01*
X135335330Y-134008921D01*
X135316117Y-133994671D01*
X135298393Y-133978607D01*
X135282329Y-133960883D01*
X135268079Y-133941670D01*
X135255782Y-133921153D01*
X135245554Y-133899529D01*
X135237496Y-133877007D01*
X135231684Y-133853803D01*
X135228174Y-133830142D01*
X135227000Y-133806250D01*
X135227000Y-132893750D01*
X135228174Y-132869858D01*
X135231684Y-132846197D01*
X135237496Y-132822993D01*
X135245554Y-132800471D01*
X135255782Y-132778847D01*
X135268079Y-132758330D01*
X135282329Y-132739117D01*
X135298393Y-132721393D01*
X135316117Y-132705329D01*
X135335330Y-132691079D01*
X135355847Y-132678782D01*
X135377471Y-132668554D01*
X135399993Y-132660496D01*
X135423197Y-132654684D01*
X135446858Y-132651174D01*
X135470750Y-132650000D01*
X135958250Y-132650000D01*
X135982142Y-132651174D01*
X135982142Y-132651174D01*
G37*
D12*
X135714500Y-133350000D03*
G04 #@! TD*
D11*
G04 #@! TO.C,R14*
G36*
X110462142Y-141451174D02*
X110485803Y-141454684D01*
X110509007Y-141460496D01*
X110531529Y-141468554D01*
X110553153Y-141478782D01*
X110573670Y-141491079D01*
X110592883Y-141505329D01*
X110610607Y-141521393D01*
X110626671Y-141539117D01*
X110640921Y-141558330D01*
X110653218Y-141578847D01*
X110663446Y-141600471D01*
X110671504Y-141622993D01*
X110677316Y-141646197D01*
X110680826Y-141669858D01*
X110682000Y-141693750D01*
X110682000Y-142181250D01*
X110680826Y-142205142D01*
X110677316Y-142228803D01*
X110671504Y-142252007D01*
X110663446Y-142274529D01*
X110653218Y-142296153D01*
X110640921Y-142316670D01*
X110626671Y-142335883D01*
X110610607Y-142353607D01*
X110592883Y-142369671D01*
X110573670Y-142383921D01*
X110553153Y-142396218D01*
X110531529Y-142406446D01*
X110509007Y-142414504D01*
X110485803Y-142420316D01*
X110462142Y-142423826D01*
X110438250Y-142425000D01*
X109525750Y-142425000D01*
X109501858Y-142423826D01*
X109478197Y-142420316D01*
X109454993Y-142414504D01*
X109432471Y-142406446D01*
X109410847Y-142396218D01*
X109390330Y-142383921D01*
X109371117Y-142369671D01*
X109353393Y-142353607D01*
X109337329Y-142335883D01*
X109323079Y-142316670D01*
X109310782Y-142296153D01*
X109300554Y-142274529D01*
X109292496Y-142252007D01*
X109286684Y-142228803D01*
X109283174Y-142205142D01*
X109282000Y-142181250D01*
X109282000Y-141693750D01*
X109283174Y-141669858D01*
X109286684Y-141646197D01*
X109292496Y-141622993D01*
X109300554Y-141600471D01*
X109310782Y-141578847D01*
X109323079Y-141558330D01*
X109337329Y-141539117D01*
X109353393Y-141521393D01*
X109371117Y-141505329D01*
X109390330Y-141491079D01*
X109410847Y-141478782D01*
X109432471Y-141468554D01*
X109454993Y-141460496D01*
X109478197Y-141454684D01*
X109501858Y-141451174D01*
X109525750Y-141450000D01*
X110438250Y-141450000D01*
X110462142Y-141451174D01*
X110462142Y-141451174D01*
G37*
D12*
X109982000Y-141937500D03*
D11*
G36*
X110462142Y-143326174D02*
X110485803Y-143329684D01*
X110509007Y-143335496D01*
X110531529Y-143343554D01*
X110553153Y-143353782D01*
X110573670Y-143366079D01*
X110592883Y-143380329D01*
X110610607Y-143396393D01*
X110626671Y-143414117D01*
X110640921Y-143433330D01*
X110653218Y-143453847D01*
X110663446Y-143475471D01*
X110671504Y-143497993D01*
X110677316Y-143521197D01*
X110680826Y-143544858D01*
X110682000Y-143568750D01*
X110682000Y-144056250D01*
X110680826Y-144080142D01*
X110677316Y-144103803D01*
X110671504Y-144127007D01*
X110663446Y-144149529D01*
X110653218Y-144171153D01*
X110640921Y-144191670D01*
X110626671Y-144210883D01*
X110610607Y-144228607D01*
X110592883Y-144244671D01*
X110573670Y-144258921D01*
X110553153Y-144271218D01*
X110531529Y-144281446D01*
X110509007Y-144289504D01*
X110485803Y-144295316D01*
X110462142Y-144298826D01*
X110438250Y-144300000D01*
X109525750Y-144300000D01*
X109501858Y-144298826D01*
X109478197Y-144295316D01*
X109454993Y-144289504D01*
X109432471Y-144281446D01*
X109410847Y-144271218D01*
X109390330Y-144258921D01*
X109371117Y-144244671D01*
X109353393Y-144228607D01*
X109337329Y-144210883D01*
X109323079Y-144191670D01*
X109310782Y-144171153D01*
X109300554Y-144149529D01*
X109292496Y-144127007D01*
X109286684Y-144103803D01*
X109283174Y-144080142D01*
X109282000Y-144056250D01*
X109282000Y-143568750D01*
X109283174Y-143544858D01*
X109286684Y-143521197D01*
X109292496Y-143497993D01*
X109300554Y-143475471D01*
X109310782Y-143453847D01*
X109323079Y-143433330D01*
X109337329Y-143414117D01*
X109353393Y-143396393D01*
X109371117Y-143380329D01*
X109390330Y-143366079D01*
X109410847Y-143353782D01*
X109432471Y-143343554D01*
X109454993Y-143335496D01*
X109478197Y-143329684D01*
X109501858Y-143326174D01*
X109525750Y-143325000D01*
X110438250Y-143325000D01*
X110462142Y-143326174D01*
X110462142Y-143326174D01*
G37*
D12*
X109982000Y-143812500D03*
G04 #@! TD*
D11*
G04 #@! TO.C,R13*
G36*
X114272142Y-131291174D02*
X114295803Y-131294684D01*
X114319007Y-131300496D01*
X114341529Y-131308554D01*
X114363153Y-131318782D01*
X114383670Y-131331079D01*
X114402883Y-131345329D01*
X114420607Y-131361393D01*
X114436671Y-131379117D01*
X114450921Y-131398330D01*
X114463218Y-131418847D01*
X114473446Y-131440471D01*
X114481504Y-131462993D01*
X114487316Y-131486197D01*
X114490826Y-131509858D01*
X114492000Y-131533750D01*
X114492000Y-132021250D01*
X114490826Y-132045142D01*
X114487316Y-132068803D01*
X114481504Y-132092007D01*
X114473446Y-132114529D01*
X114463218Y-132136153D01*
X114450921Y-132156670D01*
X114436671Y-132175883D01*
X114420607Y-132193607D01*
X114402883Y-132209671D01*
X114383670Y-132223921D01*
X114363153Y-132236218D01*
X114341529Y-132246446D01*
X114319007Y-132254504D01*
X114295803Y-132260316D01*
X114272142Y-132263826D01*
X114248250Y-132265000D01*
X113335750Y-132265000D01*
X113311858Y-132263826D01*
X113288197Y-132260316D01*
X113264993Y-132254504D01*
X113242471Y-132246446D01*
X113220847Y-132236218D01*
X113200330Y-132223921D01*
X113181117Y-132209671D01*
X113163393Y-132193607D01*
X113147329Y-132175883D01*
X113133079Y-132156670D01*
X113120782Y-132136153D01*
X113110554Y-132114529D01*
X113102496Y-132092007D01*
X113096684Y-132068803D01*
X113093174Y-132045142D01*
X113092000Y-132021250D01*
X113092000Y-131533750D01*
X113093174Y-131509858D01*
X113096684Y-131486197D01*
X113102496Y-131462993D01*
X113110554Y-131440471D01*
X113120782Y-131418847D01*
X113133079Y-131398330D01*
X113147329Y-131379117D01*
X113163393Y-131361393D01*
X113181117Y-131345329D01*
X113200330Y-131331079D01*
X113220847Y-131318782D01*
X113242471Y-131308554D01*
X113264993Y-131300496D01*
X113288197Y-131294684D01*
X113311858Y-131291174D01*
X113335750Y-131290000D01*
X114248250Y-131290000D01*
X114272142Y-131291174D01*
X114272142Y-131291174D01*
G37*
D12*
X113792000Y-131777500D03*
D11*
G36*
X114272142Y-133166174D02*
X114295803Y-133169684D01*
X114319007Y-133175496D01*
X114341529Y-133183554D01*
X114363153Y-133193782D01*
X114383670Y-133206079D01*
X114402883Y-133220329D01*
X114420607Y-133236393D01*
X114436671Y-133254117D01*
X114450921Y-133273330D01*
X114463218Y-133293847D01*
X114473446Y-133315471D01*
X114481504Y-133337993D01*
X114487316Y-133361197D01*
X114490826Y-133384858D01*
X114492000Y-133408750D01*
X114492000Y-133896250D01*
X114490826Y-133920142D01*
X114487316Y-133943803D01*
X114481504Y-133967007D01*
X114473446Y-133989529D01*
X114463218Y-134011153D01*
X114450921Y-134031670D01*
X114436671Y-134050883D01*
X114420607Y-134068607D01*
X114402883Y-134084671D01*
X114383670Y-134098921D01*
X114363153Y-134111218D01*
X114341529Y-134121446D01*
X114319007Y-134129504D01*
X114295803Y-134135316D01*
X114272142Y-134138826D01*
X114248250Y-134140000D01*
X113335750Y-134140000D01*
X113311858Y-134138826D01*
X113288197Y-134135316D01*
X113264993Y-134129504D01*
X113242471Y-134121446D01*
X113220847Y-134111218D01*
X113200330Y-134098921D01*
X113181117Y-134084671D01*
X113163393Y-134068607D01*
X113147329Y-134050883D01*
X113133079Y-134031670D01*
X113120782Y-134011153D01*
X113110554Y-133989529D01*
X113102496Y-133967007D01*
X113096684Y-133943803D01*
X113093174Y-133920142D01*
X113092000Y-133896250D01*
X113092000Y-133408750D01*
X113093174Y-133384858D01*
X113096684Y-133361197D01*
X113102496Y-133337993D01*
X113110554Y-133315471D01*
X113120782Y-133293847D01*
X113133079Y-133273330D01*
X113147329Y-133254117D01*
X113163393Y-133236393D01*
X113181117Y-133220329D01*
X113200330Y-133206079D01*
X113220847Y-133193782D01*
X113242471Y-133183554D01*
X113264993Y-133175496D01*
X113288197Y-133169684D01*
X113311858Y-133166174D01*
X113335750Y-133165000D01*
X114248250Y-133165000D01*
X114272142Y-133166174D01*
X114272142Y-133166174D01*
G37*
D12*
X113792000Y-133652500D03*
G04 #@! TD*
D11*
G04 #@! TO.C,R11*
G36*
X135982142Y-112966174D02*
X136005803Y-112969684D01*
X136029007Y-112975496D01*
X136051529Y-112983554D01*
X136073153Y-112993782D01*
X136093670Y-113006079D01*
X136112883Y-113020329D01*
X136130607Y-113036393D01*
X136146671Y-113054117D01*
X136160921Y-113073330D01*
X136173218Y-113093847D01*
X136183446Y-113115471D01*
X136191504Y-113137993D01*
X136197316Y-113161197D01*
X136200826Y-113184858D01*
X136202000Y-113208750D01*
X136202000Y-114121250D01*
X136200826Y-114145142D01*
X136197316Y-114168803D01*
X136191504Y-114192007D01*
X136183446Y-114214529D01*
X136173218Y-114236153D01*
X136160921Y-114256670D01*
X136146671Y-114275883D01*
X136130607Y-114293607D01*
X136112883Y-114309671D01*
X136093670Y-114323921D01*
X136073153Y-114336218D01*
X136051529Y-114346446D01*
X136029007Y-114354504D01*
X136005803Y-114360316D01*
X135982142Y-114363826D01*
X135958250Y-114365000D01*
X135470750Y-114365000D01*
X135446858Y-114363826D01*
X135423197Y-114360316D01*
X135399993Y-114354504D01*
X135377471Y-114346446D01*
X135355847Y-114336218D01*
X135335330Y-114323921D01*
X135316117Y-114309671D01*
X135298393Y-114293607D01*
X135282329Y-114275883D01*
X135268079Y-114256670D01*
X135255782Y-114236153D01*
X135245554Y-114214529D01*
X135237496Y-114192007D01*
X135231684Y-114168803D01*
X135228174Y-114145142D01*
X135227000Y-114121250D01*
X135227000Y-113208750D01*
X135228174Y-113184858D01*
X135231684Y-113161197D01*
X135237496Y-113137993D01*
X135245554Y-113115471D01*
X135255782Y-113093847D01*
X135268079Y-113073330D01*
X135282329Y-113054117D01*
X135298393Y-113036393D01*
X135316117Y-113020329D01*
X135335330Y-113006079D01*
X135355847Y-112993782D01*
X135377471Y-112983554D01*
X135399993Y-112975496D01*
X135423197Y-112969684D01*
X135446858Y-112966174D01*
X135470750Y-112965000D01*
X135958250Y-112965000D01*
X135982142Y-112966174D01*
X135982142Y-112966174D01*
G37*
D12*
X135714500Y-113665000D03*
D11*
G36*
X137857142Y-112966174D02*
X137880803Y-112969684D01*
X137904007Y-112975496D01*
X137926529Y-112983554D01*
X137948153Y-112993782D01*
X137968670Y-113006079D01*
X137987883Y-113020329D01*
X138005607Y-113036393D01*
X138021671Y-113054117D01*
X138035921Y-113073330D01*
X138048218Y-113093847D01*
X138058446Y-113115471D01*
X138066504Y-113137993D01*
X138072316Y-113161197D01*
X138075826Y-113184858D01*
X138077000Y-113208750D01*
X138077000Y-114121250D01*
X138075826Y-114145142D01*
X138072316Y-114168803D01*
X138066504Y-114192007D01*
X138058446Y-114214529D01*
X138048218Y-114236153D01*
X138035921Y-114256670D01*
X138021671Y-114275883D01*
X138005607Y-114293607D01*
X137987883Y-114309671D01*
X137968670Y-114323921D01*
X137948153Y-114336218D01*
X137926529Y-114346446D01*
X137904007Y-114354504D01*
X137880803Y-114360316D01*
X137857142Y-114363826D01*
X137833250Y-114365000D01*
X137345750Y-114365000D01*
X137321858Y-114363826D01*
X137298197Y-114360316D01*
X137274993Y-114354504D01*
X137252471Y-114346446D01*
X137230847Y-114336218D01*
X137210330Y-114323921D01*
X137191117Y-114309671D01*
X137173393Y-114293607D01*
X137157329Y-114275883D01*
X137143079Y-114256670D01*
X137130782Y-114236153D01*
X137120554Y-114214529D01*
X137112496Y-114192007D01*
X137106684Y-114168803D01*
X137103174Y-114145142D01*
X137102000Y-114121250D01*
X137102000Y-113208750D01*
X137103174Y-113184858D01*
X137106684Y-113161197D01*
X137112496Y-113137993D01*
X137120554Y-113115471D01*
X137130782Y-113093847D01*
X137143079Y-113073330D01*
X137157329Y-113054117D01*
X137173393Y-113036393D01*
X137191117Y-113020329D01*
X137210330Y-113006079D01*
X137230847Y-112993782D01*
X137252471Y-112983554D01*
X137274993Y-112975496D01*
X137298197Y-112969684D01*
X137321858Y-112966174D01*
X137345750Y-112965000D01*
X137833250Y-112965000D01*
X137857142Y-112966174D01*
X137857142Y-112966174D01*
G37*
D12*
X137589500Y-113665000D03*
G04 #@! TD*
D11*
G04 #@! TO.C,R10*
G36*
X92682142Y-146531174D02*
X92705803Y-146534684D01*
X92729007Y-146540496D01*
X92751529Y-146548554D01*
X92773153Y-146558782D01*
X92793670Y-146571079D01*
X92812883Y-146585329D01*
X92830607Y-146601393D01*
X92846671Y-146619117D01*
X92860921Y-146638330D01*
X92873218Y-146658847D01*
X92883446Y-146680471D01*
X92891504Y-146702993D01*
X92897316Y-146726197D01*
X92900826Y-146749858D01*
X92902000Y-146773750D01*
X92902000Y-147261250D01*
X92900826Y-147285142D01*
X92897316Y-147308803D01*
X92891504Y-147332007D01*
X92883446Y-147354529D01*
X92873218Y-147376153D01*
X92860921Y-147396670D01*
X92846671Y-147415883D01*
X92830607Y-147433607D01*
X92812883Y-147449671D01*
X92793670Y-147463921D01*
X92773153Y-147476218D01*
X92751529Y-147486446D01*
X92729007Y-147494504D01*
X92705803Y-147500316D01*
X92682142Y-147503826D01*
X92658250Y-147505000D01*
X91745750Y-147505000D01*
X91721858Y-147503826D01*
X91698197Y-147500316D01*
X91674993Y-147494504D01*
X91652471Y-147486446D01*
X91630847Y-147476218D01*
X91610330Y-147463921D01*
X91591117Y-147449671D01*
X91573393Y-147433607D01*
X91557329Y-147415883D01*
X91543079Y-147396670D01*
X91530782Y-147376153D01*
X91520554Y-147354529D01*
X91512496Y-147332007D01*
X91506684Y-147308803D01*
X91503174Y-147285142D01*
X91502000Y-147261250D01*
X91502000Y-146773750D01*
X91503174Y-146749858D01*
X91506684Y-146726197D01*
X91512496Y-146702993D01*
X91520554Y-146680471D01*
X91530782Y-146658847D01*
X91543079Y-146638330D01*
X91557329Y-146619117D01*
X91573393Y-146601393D01*
X91591117Y-146585329D01*
X91610330Y-146571079D01*
X91630847Y-146558782D01*
X91652471Y-146548554D01*
X91674993Y-146540496D01*
X91698197Y-146534684D01*
X91721858Y-146531174D01*
X91745750Y-146530000D01*
X92658250Y-146530000D01*
X92682142Y-146531174D01*
X92682142Y-146531174D01*
G37*
D12*
X92202000Y-147017500D03*
D11*
G36*
X92682142Y-148406174D02*
X92705803Y-148409684D01*
X92729007Y-148415496D01*
X92751529Y-148423554D01*
X92773153Y-148433782D01*
X92793670Y-148446079D01*
X92812883Y-148460329D01*
X92830607Y-148476393D01*
X92846671Y-148494117D01*
X92860921Y-148513330D01*
X92873218Y-148533847D01*
X92883446Y-148555471D01*
X92891504Y-148577993D01*
X92897316Y-148601197D01*
X92900826Y-148624858D01*
X92902000Y-148648750D01*
X92902000Y-149136250D01*
X92900826Y-149160142D01*
X92897316Y-149183803D01*
X92891504Y-149207007D01*
X92883446Y-149229529D01*
X92873218Y-149251153D01*
X92860921Y-149271670D01*
X92846671Y-149290883D01*
X92830607Y-149308607D01*
X92812883Y-149324671D01*
X92793670Y-149338921D01*
X92773153Y-149351218D01*
X92751529Y-149361446D01*
X92729007Y-149369504D01*
X92705803Y-149375316D01*
X92682142Y-149378826D01*
X92658250Y-149380000D01*
X91745750Y-149380000D01*
X91721858Y-149378826D01*
X91698197Y-149375316D01*
X91674993Y-149369504D01*
X91652471Y-149361446D01*
X91630847Y-149351218D01*
X91610330Y-149338921D01*
X91591117Y-149324671D01*
X91573393Y-149308607D01*
X91557329Y-149290883D01*
X91543079Y-149271670D01*
X91530782Y-149251153D01*
X91520554Y-149229529D01*
X91512496Y-149207007D01*
X91506684Y-149183803D01*
X91503174Y-149160142D01*
X91502000Y-149136250D01*
X91502000Y-148648750D01*
X91503174Y-148624858D01*
X91506684Y-148601197D01*
X91512496Y-148577993D01*
X91520554Y-148555471D01*
X91530782Y-148533847D01*
X91543079Y-148513330D01*
X91557329Y-148494117D01*
X91573393Y-148476393D01*
X91591117Y-148460329D01*
X91610330Y-148446079D01*
X91630847Y-148433782D01*
X91652471Y-148423554D01*
X91674993Y-148415496D01*
X91698197Y-148409684D01*
X91721858Y-148406174D01*
X91745750Y-148405000D01*
X92658250Y-148405000D01*
X92682142Y-148406174D01*
X92682142Y-148406174D01*
G37*
D12*
X92202000Y-148892500D03*
G04 #@! TD*
D11*
G04 #@! TO.C,R9*
G36*
X122617142Y-112966174D02*
X122640803Y-112969684D01*
X122664007Y-112975496D01*
X122686529Y-112983554D01*
X122708153Y-112993782D01*
X122728670Y-113006079D01*
X122747883Y-113020329D01*
X122765607Y-113036393D01*
X122781671Y-113054117D01*
X122795921Y-113073330D01*
X122808218Y-113093847D01*
X122818446Y-113115471D01*
X122826504Y-113137993D01*
X122832316Y-113161197D01*
X122835826Y-113184858D01*
X122837000Y-113208750D01*
X122837000Y-114121250D01*
X122835826Y-114145142D01*
X122832316Y-114168803D01*
X122826504Y-114192007D01*
X122818446Y-114214529D01*
X122808218Y-114236153D01*
X122795921Y-114256670D01*
X122781671Y-114275883D01*
X122765607Y-114293607D01*
X122747883Y-114309671D01*
X122728670Y-114323921D01*
X122708153Y-114336218D01*
X122686529Y-114346446D01*
X122664007Y-114354504D01*
X122640803Y-114360316D01*
X122617142Y-114363826D01*
X122593250Y-114365000D01*
X122105750Y-114365000D01*
X122081858Y-114363826D01*
X122058197Y-114360316D01*
X122034993Y-114354504D01*
X122012471Y-114346446D01*
X121990847Y-114336218D01*
X121970330Y-114323921D01*
X121951117Y-114309671D01*
X121933393Y-114293607D01*
X121917329Y-114275883D01*
X121903079Y-114256670D01*
X121890782Y-114236153D01*
X121880554Y-114214529D01*
X121872496Y-114192007D01*
X121866684Y-114168803D01*
X121863174Y-114145142D01*
X121862000Y-114121250D01*
X121862000Y-113208750D01*
X121863174Y-113184858D01*
X121866684Y-113161197D01*
X121872496Y-113137993D01*
X121880554Y-113115471D01*
X121890782Y-113093847D01*
X121903079Y-113073330D01*
X121917329Y-113054117D01*
X121933393Y-113036393D01*
X121951117Y-113020329D01*
X121970330Y-113006079D01*
X121990847Y-112993782D01*
X122012471Y-112983554D01*
X122034993Y-112975496D01*
X122058197Y-112969684D01*
X122081858Y-112966174D01*
X122105750Y-112965000D01*
X122593250Y-112965000D01*
X122617142Y-112966174D01*
X122617142Y-112966174D01*
G37*
D12*
X122349500Y-113665000D03*
D11*
G36*
X120742142Y-112966174D02*
X120765803Y-112969684D01*
X120789007Y-112975496D01*
X120811529Y-112983554D01*
X120833153Y-112993782D01*
X120853670Y-113006079D01*
X120872883Y-113020329D01*
X120890607Y-113036393D01*
X120906671Y-113054117D01*
X120920921Y-113073330D01*
X120933218Y-113093847D01*
X120943446Y-113115471D01*
X120951504Y-113137993D01*
X120957316Y-113161197D01*
X120960826Y-113184858D01*
X120962000Y-113208750D01*
X120962000Y-114121250D01*
X120960826Y-114145142D01*
X120957316Y-114168803D01*
X120951504Y-114192007D01*
X120943446Y-114214529D01*
X120933218Y-114236153D01*
X120920921Y-114256670D01*
X120906671Y-114275883D01*
X120890607Y-114293607D01*
X120872883Y-114309671D01*
X120853670Y-114323921D01*
X120833153Y-114336218D01*
X120811529Y-114346446D01*
X120789007Y-114354504D01*
X120765803Y-114360316D01*
X120742142Y-114363826D01*
X120718250Y-114365000D01*
X120230750Y-114365000D01*
X120206858Y-114363826D01*
X120183197Y-114360316D01*
X120159993Y-114354504D01*
X120137471Y-114346446D01*
X120115847Y-114336218D01*
X120095330Y-114323921D01*
X120076117Y-114309671D01*
X120058393Y-114293607D01*
X120042329Y-114275883D01*
X120028079Y-114256670D01*
X120015782Y-114236153D01*
X120005554Y-114214529D01*
X119997496Y-114192007D01*
X119991684Y-114168803D01*
X119988174Y-114145142D01*
X119987000Y-114121250D01*
X119987000Y-113208750D01*
X119988174Y-113184858D01*
X119991684Y-113161197D01*
X119997496Y-113137993D01*
X120005554Y-113115471D01*
X120015782Y-113093847D01*
X120028079Y-113073330D01*
X120042329Y-113054117D01*
X120058393Y-113036393D01*
X120076117Y-113020329D01*
X120095330Y-113006079D01*
X120115847Y-112993782D01*
X120137471Y-112983554D01*
X120159993Y-112975496D01*
X120183197Y-112969684D01*
X120206858Y-112966174D01*
X120230750Y-112965000D01*
X120718250Y-112965000D01*
X120742142Y-112966174D01*
X120742142Y-112966174D01*
G37*
D12*
X120474500Y-113665000D03*
G04 #@! TD*
D11*
G04 #@! TO.C,R8*
G36*
X96492142Y-148406174D02*
X96515803Y-148409684D01*
X96539007Y-148415496D01*
X96561529Y-148423554D01*
X96583153Y-148433782D01*
X96603670Y-148446079D01*
X96622883Y-148460329D01*
X96640607Y-148476393D01*
X96656671Y-148494117D01*
X96670921Y-148513330D01*
X96683218Y-148533847D01*
X96693446Y-148555471D01*
X96701504Y-148577993D01*
X96707316Y-148601197D01*
X96710826Y-148624858D01*
X96712000Y-148648750D01*
X96712000Y-149136250D01*
X96710826Y-149160142D01*
X96707316Y-149183803D01*
X96701504Y-149207007D01*
X96693446Y-149229529D01*
X96683218Y-149251153D01*
X96670921Y-149271670D01*
X96656671Y-149290883D01*
X96640607Y-149308607D01*
X96622883Y-149324671D01*
X96603670Y-149338921D01*
X96583153Y-149351218D01*
X96561529Y-149361446D01*
X96539007Y-149369504D01*
X96515803Y-149375316D01*
X96492142Y-149378826D01*
X96468250Y-149380000D01*
X95555750Y-149380000D01*
X95531858Y-149378826D01*
X95508197Y-149375316D01*
X95484993Y-149369504D01*
X95462471Y-149361446D01*
X95440847Y-149351218D01*
X95420330Y-149338921D01*
X95401117Y-149324671D01*
X95383393Y-149308607D01*
X95367329Y-149290883D01*
X95353079Y-149271670D01*
X95340782Y-149251153D01*
X95330554Y-149229529D01*
X95322496Y-149207007D01*
X95316684Y-149183803D01*
X95313174Y-149160142D01*
X95312000Y-149136250D01*
X95312000Y-148648750D01*
X95313174Y-148624858D01*
X95316684Y-148601197D01*
X95322496Y-148577993D01*
X95330554Y-148555471D01*
X95340782Y-148533847D01*
X95353079Y-148513330D01*
X95367329Y-148494117D01*
X95383393Y-148476393D01*
X95401117Y-148460329D01*
X95420330Y-148446079D01*
X95440847Y-148433782D01*
X95462471Y-148423554D01*
X95484993Y-148415496D01*
X95508197Y-148409684D01*
X95531858Y-148406174D01*
X95555750Y-148405000D01*
X96468250Y-148405000D01*
X96492142Y-148406174D01*
X96492142Y-148406174D01*
G37*
D12*
X96012000Y-148892500D03*
D11*
G36*
X96492142Y-146531174D02*
X96515803Y-146534684D01*
X96539007Y-146540496D01*
X96561529Y-146548554D01*
X96583153Y-146558782D01*
X96603670Y-146571079D01*
X96622883Y-146585329D01*
X96640607Y-146601393D01*
X96656671Y-146619117D01*
X96670921Y-146638330D01*
X96683218Y-146658847D01*
X96693446Y-146680471D01*
X96701504Y-146702993D01*
X96707316Y-146726197D01*
X96710826Y-146749858D01*
X96712000Y-146773750D01*
X96712000Y-147261250D01*
X96710826Y-147285142D01*
X96707316Y-147308803D01*
X96701504Y-147332007D01*
X96693446Y-147354529D01*
X96683218Y-147376153D01*
X96670921Y-147396670D01*
X96656671Y-147415883D01*
X96640607Y-147433607D01*
X96622883Y-147449671D01*
X96603670Y-147463921D01*
X96583153Y-147476218D01*
X96561529Y-147486446D01*
X96539007Y-147494504D01*
X96515803Y-147500316D01*
X96492142Y-147503826D01*
X96468250Y-147505000D01*
X95555750Y-147505000D01*
X95531858Y-147503826D01*
X95508197Y-147500316D01*
X95484993Y-147494504D01*
X95462471Y-147486446D01*
X95440847Y-147476218D01*
X95420330Y-147463921D01*
X95401117Y-147449671D01*
X95383393Y-147433607D01*
X95367329Y-147415883D01*
X95353079Y-147396670D01*
X95340782Y-147376153D01*
X95330554Y-147354529D01*
X95322496Y-147332007D01*
X95316684Y-147308803D01*
X95313174Y-147285142D01*
X95312000Y-147261250D01*
X95312000Y-146773750D01*
X95313174Y-146749858D01*
X95316684Y-146726197D01*
X95322496Y-146702993D01*
X95330554Y-146680471D01*
X95340782Y-146658847D01*
X95353079Y-146638330D01*
X95367329Y-146619117D01*
X95383393Y-146601393D01*
X95401117Y-146585329D01*
X95420330Y-146571079D01*
X95440847Y-146558782D01*
X95462471Y-146548554D01*
X95484993Y-146540496D01*
X95508197Y-146534684D01*
X95531858Y-146531174D01*
X95555750Y-146530000D01*
X96468250Y-146530000D01*
X96492142Y-146531174D01*
X96492142Y-146531174D01*
G37*
D12*
X96012000Y-147017500D03*
G04 #@! TD*
D11*
G04 #@! TO.C,R7*
G36*
X92682142Y-136371174D02*
X92705803Y-136374684D01*
X92729007Y-136380496D01*
X92751529Y-136388554D01*
X92773153Y-136398782D01*
X92793670Y-136411079D01*
X92812883Y-136425329D01*
X92830607Y-136441393D01*
X92846671Y-136459117D01*
X92860921Y-136478330D01*
X92873218Y-136498847D01*
X92883446Y-136520471D01*
X92891504Y-136542993D01*
X92897316Y-136566197D01*
X92900826Y-136589858D01*
X92902000Y-136613750D01*
X92902000Y-137101250D01*
X92900826Y-137125142D01*
X92897316Y-137148803D01*
X92891504Y-137172007D01*
X92883446Y-137194529D01*
X92873218Y-137216153D01*
X92860921Y-137236670D01*
X92846671Y-137255883D01*
X92830607Y-137273607D01*
X92812883Y-137289671D01*
X92793670Y-137303921D01*
X92773153Y-137316218D01*
X92751529Y-137326446D01*
X92729007Y-137334504D01*
X92705803Y-137340316D01*
X92682142Y-137343826D01*
X92658250Y-137345000D01*
X91745750Y-137345000D01*
X91721858Y-137343826D01*
X91698197Y-137340316D01*
X91674993Y-137334504D01*
X91652471Y-137326446D01*
X91630847Y-137316218D01*
X91610330Y-137303921D01*
X91591117Y-137289671D01*
X91573393Y-137273607D01*
X91557329Y-137255883D01*
X91543079Y-137236670D01*
X91530782Y-137216153D01*
X91520554Y-137194529D01*
X91512496Y-137172007D01*
X91506684Y-137148803D01*
X91503174Y-137125142D01*
X91502000Y-137101250D01*
X91502000Y-136613750D01*
X91503174Y-136589858D01*
X91506684Y-136566197D01*
X91512496Y-136542993D01*
X91520554Y-136520471D01*
X91530782Y-136498847D01*
X91543079Y-136478330D01*
X91557329Y-136459117D01*
X91573393Y-136441393D01*
X91591117Y-136425329D01*
X91610330Y-136411079D01*
X91630847Y-136398782D01*
X91652471Y-136388554D01*
X91674993Y-136380496D01*
X91698197Y-136374684D01*
X91721858Y-136371174D01*
X91745750Y-136370000D01*
X92658250Y-136370000D01*
X92682142Y-136371174D01*
X92682142Y-136371174D01*
G37*
D12*
X92202000Y-136857500D03*
D11*
G36*
X92682142Y-138246174D02*
X92705803Y-138249684D01*
X92729007Y-138255496D01*
X92751529Y-138263554D01*
X92773153Y-138273782D01*
X92793670Y-138286079D01*
X92812883Y-138300329D01*
X92830607Y-138316393D01*
X92846671Y-138334117D01*
X92860921Y-138353330D01*
X92873218Y-138373847D01*
X92883446Y-138395471D01*
X92891504Y-138417993D01*
X92897316Y-138441197D01*
X92900826Y-138464858D01*
X92902000Y-138488750D01*
X92902000Y-138976250D01*
X92900826Y-139000142D01*
X92897316Y-139023803D01*
X92891504Y-139047007D01*
X92883446Y-139069529D01*
X92873218Y-139091153D01*
X92860921Y-139111670D01*
X92846671Y-139130883D01*
X92830607Y-139148607D01*
X92812883Y-139164671D01*
X92793670Y-139178921D01*
X92773153Y-139191218D01*
X92751529Y-139201446D01*
X92729007Y-139209504D01*
X92705803Y-139215316D01*
X92682142Y-139218826D01*
X92658250Y-139220000D01*
X91745750Y-139220000D01*
X91721858Y-139218826D01*
X91698197Y-139215316D01*
X91674993Y-139209504D01*
X91652471Y-139201446D01*
X91630847Y-139191218D01*
X91610330Y-139178921D01*
X91591117Y-139164671D01*
X91573393Y-139148607D01*
X91557329Y-139130883D01*
X91543079Y-139111670D01*
X91530782Y-139091153D01*
X91520554Y-139069529D01*
X91512496Y-139047007D01*
X91506684Y-139023803D01*
X91503174Y-139000142D01*
X91502000Y-138976250D01*
X91502000Y-138488750D01*
X91503174Y-138464858D01*
X91506684Y-138441197D01*
X91512496Y-138417993D01*
X91520554Y-138395471D01*
X91530782Y-138373847D01*
X91543079Y-138353330D01*
X91557329Y-138334117D01*
X91573393Y-138316393D01*
X91591117Y-138300329D01*
X91610330Y-138286079D01*
X91630847Y-138273782D01*
X91652471Y-138263554D01*
X91674993Y-138255496D01*
X91698197Y-138249684D01*
X91721858Y-138246174D01*
X91745750Y-138245000D01*
X92658250Y-138245000D01*
X92682142Y-138246174D01*
X92682142Y-138246174D01*
G37*
D12*
X92202000Y-138732500D03*
G04 #@! TD*
D11*
G04 #@! TO.C,R1*
G36*
X120742142Y-72326174D02*
X120765803Y-72329684D01*
X120789007Y-72335496D01*
X120811529Y-72343554D01*
X120833153Y-72353782D01*
X120853670Y-72366079D01*
X120872883Y-72380329D01*
X120890607Y-72396393D01*
X120906671Y-72414117D01*
X120920921Y-72433330D01*
X120933218Y-72453847D01*
X120943446Y-72475471D01*
X120951504Y-72497993D01*
X120957316Y-72521197D01*
X120960826Y-72544858D01*
X120962000Y-72568750D01*
X120962000Y-73481250D01*
X120960826Y-73505142D01*
X120957316Y-73528803D01*
X120951504Y-73552007D01*
X120943446Y-73574529D01*
X120933218Y-73596153D01*
X120920921Y-73616670D01*
X120906671Y-73635883D01*
X120890607Y-73653607D01*
X120872883Y-73669671D01*
X120853670Y-73683921D01*
X120833153Y-73696218D01*
X120811529Y-73706446D01*
X120789007Y-73714504D01*
X120765803Y-73720316D01*
X120742142Y-73723826D01*
X120718250Y-73725000D01*
X120230750Y-73725000D01*
X120206858Y-73723826D01*
X120183197Y-73720316D01*
X120159993Y-73714504D01*
X120137471Y-73706446D01*
X120115847Y-73696218D01*
X120095330Y-73683921D01*
X120076117Y-73669671D01*
X120058393Y-73653607D01*
X120042329Y-73635883D01*
X120028079Y-73616670D01*
X120015782Y-73596153D01*
X120005554Y-73574529D01*
X119997496Y-73552007D01*
X119991684Y-73528803D01*
X119988174Y-73505142D01*
X119987000Y-73481250D01*
X119987000Y-72568750D01*
X119988174Y-72544858D01*
X119991684Y-72521197D01*
X119997496Y-72497993D01*
X120005554Y-72475471D01*
X120015782Y-72453847D01*
X120028079Y-72433330D01*
X120042329Y-72414117D01*
X120058393Y-72396393D01*
X120076117Y-72380329D01*
X120095330Y-72366079D01*
X120115847Y-72353782D01*
X120137471Y-72343554D01*
X120159993Y-72335496D01*
X120183197Y-72329684D01*
X120206858Y-72326174D01*
X120230750Y-72325000D01*
X120718250Y-72325000D01*
X120742142Y-72326174D01*
X120742142Y-72326174D01*
G37*
D12*
X120474500Y-73025000D03*
D11*
G36*
X122617142Y-72326174D02*
X122640803Y-72329684D01*
X122664007Y-72335496D01*
X122686529Y-72343554D01*
X122708153Y-72353782D01*
X122728670Y-72366079D01*
X122747883Y-72380329D01*
X122765607Y-72396393D01*
X122781671Y-72414117D01*
X122795921Y-72433330D01*
X122808218Y-72453847D01*
X122818446Y-72475471D01*
X122826504Y-72497993D01*
X122832316Y-72521197D01*
X122835826Y-72544858D01*
X122837000Y-72568750D01*
X122837000Y-73481250D01*
X122835826Y-73505142D01*
X122832316Y-73528803D01*
X122826504Y-73552007D01*
X122818446Y-73574529D01*
X122808218Y-73596153D01*
X122795921Y-73616670D01*
X122781671Y-73635883D01*
X122765607Y-73653607D01*
X122747883Y-73669671D01*
X122728670Y-73683921D01*
X122708153Y-73696218D01*
X122686529Y-73706446D01*
X122664007Y-73714504D01*
X122640803Y-73720316D01*
X122617142Y-73723826D01*
X122593250Y-73725000D01*
X122105750Y-73725000D01*
X122081858Y-73723826D01*
X122058197Y-73720316D01*
X122034993Y-73714504D01*
X122012471Y-73706446D01*
X121990847Y-73696218D01*
X121970330Y-73683921D01*
X121951117Y-73669671D01*
X121933393Y-73653607D01*
X121917329Y-73635883D01*
X121903079Y-73616670D01*
X121890782Y-73596153D01*
X121880554Y-73574529D01*
X121872496Y-73552007D01*
X121866684Y-73528803D01*
X121863174Y-73505142D01*
X121862000Y-73481250D01*
X121862000Y-72568750D01*
X121863174Y-72544858D01*
X121866684Y-72521197D01*
X121872496Y-72497993D01*
X121880554Y-72475471D01*
X121890782Y-72453847D01*
X121903079Y-72433330D01*
X121917329Y-72414117D01*
X121933393Y-72396393D01*
X121951117Y-72380329D01*
X121970330Y-72366079D01*
X121990847Y-72353782D01*
X122012471Y-72343554D01*
X122034993Y-72335496D01*
X122058197Y-72329684D01*
X122081858Y-72326174D01*
X122105750Y-72325000D01*
X122593250Y-72325000D01*
X122617142Y-72326174D01*
X122617142Y-72326174D01*
G37*
D12*
X122349500Y-73025000D03*
G04 #@! TD*
D11*
G04 #@! TO.C,R2*
G36*
X135982142Y-72326174D02*
X136005803Y-72329684D01*
X136029007Y-72335496D01*
X136051529Y-72343554D01*
X136073153Y-72353782D01*
X136093670Y-72366079D01*
X136112883Y-72380329D01*
X136130607Y-72396393D01*
X136146671Y-72414117D01*
X136160921Y-72433330D01*
X136173218Y-72453847D01*
X136183446Y-72475471D01*
X136191504Y-72497993D01*
X136197316Y-72521197D01*
X136200826Y-72544858D01*
X136202000Y-72568750D01*
X136202000Y-73481250D01*
X136200826Y-73505142D01*
X136197316Y-73528803D01*
X136191504Y-73552007D01*
X136183446Y-73574529D01*
X136173218Y-73596153D01*
X136160921Y-73616670D01*
X136146671Y-73635883D01*
X136130607Y-73653607D01*
X136112883Y-73669671D01*
X136093670Y-73683921D01*
X136073153Y-73696218D01*
X136051529Y-73706446D01*
X136029007Y-73714504D01*
X136005803Y-73720316D01*
X135982142Y-73723826D01*
X135958250Y-73725000D01*
X135470750Y-73725000D01*
X135446858Y-73723826D01*
X135423197Y-73720316D01*
X135399993Y-73714504D01*
X135377471Y-73706446D01*
X135355847Y-73696218D01*
X135335330Y-73683921D01*
X135316117Y-73669671D01*
X135298393Y-73653607D01*
X135282329Y-73635883D01*
X135268079Y-73616670D01*
X135255782Y-73596153D01*
X135245554Y-73574529D01*
X135237496Y-73552007D01*
X135231684Y-73528803D01*
X135228174Y-73505142D01*
X135227000Y-73481250D01*
X135227000Y-72568750D01*
X135228174Y-72544858D01*
X135231684Y-72521197D01*
X135237496Y-72497993D01*
X135245554Y-72475471D01*
X135255782Y-72453847D01*
X135268079Y-72433330D01*
X135282329Y-72414117D01*
X135298393Y-72396393D01*
X135316117Y-72380329D01*
X135335330Y-72366079D01*
X135355847Y-72353782D01*
X135377471Y-72343554D01*
X135399993Y-72335496D01*
X135423197Y-72329684D01*
X135446858Y-72326174D01*
X135470750Y-72325000D01*
X135958250Y-72325000D01*
X135982142Y-72326174D01*
X135982142Y-72326174D01*
G37*
D12*
X135714500Y-73025000D03*
D11*
G36*
X137857142Y-72326174D02*
X137880803Y-72329684D01*
X137904007Y-72335496D01*
X137926529Y-72343554D01*
X137948153Y-72353782D01*
X137968670Y-72366079D01*
X137987883Y-72380329D01*
X138005607Y-72396393D01*
X138021671Y-72414117D01*
X138035921Y-72433330D01*
X138048218Y-72453847D01*
X138058446Y-72475471D01*
X138066504Y-72497993D01*
X138072316Y-72521197D01*
X138075826Y-72544858D01*
X138077000Y-72568750D01*
X138077000Y-73481250D01*
X138075826Y-73505142D01*
X138072316Y-73528803D01*
X138066504Y-73552007D01*
X138058446Y-73574529D01*
X138048218Y-73596153D01*
X138035921Y-73616670D01*
X138021671Y-73635883D01*
X138005607Y-73653607D01*
X137987883Y-73669671D01*
X137968670Y-73683921D01*
X137948153Y-73696218D01*
X137926529Y-73706446D01*
X137904007Y-73714504D01*
X137880803Y-73720316D01*
X137857142Y-73723826D01*
X137833250Y-73725000D01*
X137345750Y-73725000D01*
X137321858Y-73723826D01*
X137298197Y-73720316D01*
X137274993Y-73714504D01*
X137252471Y-73706446D01*
X137230847Y-73696218D01*
X137210330Y-73683921D01*
X137191117Y-73669671D01*
X137173393Y-73653607D01*
X137157329Y-73635883D01*
X137143079Y-73616670D01*
X137130782Y-73596153D01*
X137120554Y-73574529D01*
X137112496Y-73552007D01*
X137106684Y-73528803D01*
X137103174Y-73505142D01*
X137102000Y-73481250D01*
X137102000Y-72568750D01*
X137103174Y-72544858D01*
X137106684Y-72521197D01*
X137112496Y-72497993D01*
X137120554Y-72475471D01*
X137130782Y-72453847D01*
X137143079Y-72433330D01*
X137157329Y-72414117D01*
X137173393Y-72396393D01*
X137191117Y-72380329D01*
X137210330Y-72366079D01*
X137230847Y-72353782D01*
X137252471Y-72343554D01*
X137274993Y-72335496D01*
X137298197Y-72329684D01*
X137321858Y-72326174D01*
X137345750Y-72325000D01*
X137833250Y-72325000D01*
X137857142Y-72326174D01*
X137857142Y-72326174D01*
G37*
D12*
X137589500Y-73025000D03*
G04 #@! TD*
D11*
G04 #@! TO.C,R3*
G36*
X120742142Y-92646174D02*
X120765803Y-92649684D01*
X120789007Y-92655496D01*
X120811529Y-92663554D01*
X120833153Y-92673782D01*
X120853670Y-92686079D01*
X120872883Y-92700329D01*
X120890607Y-92716393D01*
X120906671Y-92734117D01*
X120920921Y-92753330D01*
X120933218Y-92773847D01*
X120943446Y-92795471D01*
X120951504Y-92817993D01*
X120957316Y-92841197D01*
X120960826Y-92864858D01*
X120962000Y-92888750D01*
X120962000Y-93801250D01*
X120960826Y-93825142D01*
X120957316Y-93848803D01*
X120951504Y-93872007D01*
X120943446Y-93894529D01*
X120933218Y-93916153D01*
X120920921Y-93936670D01*
X120906671Y-93955883D01*
X120890607Y-93973607D01*
X120872883Y-93989671D01*
X120853670Y-94003921D01*
X120833153Y-94016218D01*
X120811529Y-94026446D01*
X120789007Y-94034504D01*
X120765803Y-94040316D01*
X120742142Y-94043826D01*
X120718250Y-94045000D01*
X120230750Y-94045000D01*
X120206858Y-94043826D01*
X120183197Y-94040316D01*
X120159993Y-94034504D01*
X120137471Y-94026446D01*
X120115847Y-94016218D01*
X120095330Y-94003921D01*
X120076117Y-93989671D01*
X120058393Y-93973607D01*
X120042329Y-93955883D01*
X120028079Y-93936670D01*
X120015782Y-93916153D01*
X120005554Y-93894529D01*
X119997496Y-93872007D01*
X119991684Y-93848803D01*
X119988174Y-93825142D01*
X119987000Y-93801250D01*
X119987000Y-92888750D01*
X119988174Y-92864858D01*
X119991684Y-92841197D01*
X119997496Y-92817993D01*
X120005554Y-92795471D01*
X120015782Y-92773847D01*
X120028079Y-92753330D01*
X120042329Y-92734117D01*
X120058393Y-92716393D01*
X120076117Y-92700329D01*
X120095330Y-92686079D01*
X120115847Y-92673782D01*
X120137471Y-92663554D01*
X120159993Y-92655496D01*
X120183197Y-92649684D01*
X120206858Y-92646174D01*
X120230750Y-92645000D01*
X120718250Y-92645000D01*
X120742142Y-92646174D01*
X120742142Y-92646174D01*
G37*
D12*
X120474500Y-93345000D03*
D11*
G36*
X122617142Y-92646174D02*
X122640803Y-92649684D01*
X122664007Y-92655496D01*
X122686529Y-92663554D01*
X122708153Y-92673782D01*
X122728670Y-92686079D01*
X122747883Y-92700329D01*
X122765607Y-92716393D01*
X122781671Y-92734117D01*
X122795921Y-92753330D01*
X122808218Y-92773847D01*
X122818446Y-92795471D01*
X122826504Y-92817993D01*
X122832316Y-92841197D01*
X122835826Y-92864858D01*
X122837000Y-92888750D01*
X122837000Y-93801250D01*
X122835826Y-93825142D01*
X122832316Y-93848803D01*
X122826504Y-93872007D01*
X122818446Y-93894529D01*
X122808218Y-93916153D01*
X122795921Y-93936670D01*
X122781671Y-93955883D01*
X122765607Y-93973607D01*
X122747883Y-93989671D01*
X122728670Y-94003921D01*
X122708153Y-94016218D01*
X122686529Y-94026446D01*
X122664007Y-94034504D01*
X122640803Y-94040316D01*
X122617142Y-94043826D01*
X122593250Y-94045000D01*
X122105750Y-94045000D01*
X122081858Y-94043826D01*
X122058197Y-94040316D01*
X122034993Y-94034504D01*
X122012471Y-94026446D01*
X121990847Y-94016218D01*
X121970330Y-94003921D01*
X121951117Y-93989671D01*
X121933393Y-93973607D01*
X121917329Y-93955883D01*
X121903079Y-93936670D01*
X121890782Y-93916153D01*
X121880554Y-93894529D01*
X121872496Y-93872007D01*
X121866684Y-93848803D01*
X121863174Y-93825142D01*
X121862000Y-93801250D01*
X121862000Y-92888750D01*
X121863174Y-92864858D01*
X121866684Y-92841197D01*
X121872496Y-92817993D01*
X121880554Y-92795471D01*
X121890782Y-92773847D01*
X121903079Y-92753330D01*
X121917329Y-92734117D01*
X121933393Y-92716393D01*
X121951117Y-92700329D01*
X121970330Y-92686079D01*
X121990847Y-92673782D01*
X122012471Y-92663554D01*
X122034993Y-92655496D01*
X122058197Y-92649684D01*
X122081858Y-92646174D01*
X122105750Y-92645000D01*
X122593250Y-92645000D01*
X122617142Y-92646174D01*
X122617142Y-92646174D01*
G37*
D12*
X122349500Y-93345000D03*
G04 #@! TD*
D11*
G04 #@! TO.C,R4*
G36*
X135982142Y-92646174D02*
X136005803Y-92649684D01*
X136029007Y-92655496D01*
X136051529Y-92663554D01*
X136073153Y-92673782D01*
X136093670Y-92686079D01*
X136112883Y-92700329D01*
X136130607Y-92716393D01*
X136146671Y-92734117D01*
X136160921Y-92753330D01*
X136173218Y-92773847D01*
X136183446Y-92795471D01*
X136191504Y-92817993D01*
X136197316Y-92841197D01*
X136200826Y-92864858D01*
X136202000Y-92888750D01*
X136202000Y-93801250D01*
X136200826Y-93825142D01*
X136197316Y-93848803D01*
X136191504Y-93872007D01*
X136183446Y-93894529D01*
X136173218Y-93916153D01*
X136160921Y-93936670D01*
X136146671Y-93955883D01*
X136130607Y-93973607D01*
X136112883Y-93989671D01*
X136093670Y-94003921D01*
X136073153Y-94016218D01*
X136051529Y-94026446D01*
X136029007Y-94034504D01*
X136005803Y-94040316D01*
X135982142Y-94043826D01*
X135958250Y-94045000D01*
X135470750Y-94045000D01*
X135446858Y-94043826D01*
X135423197Y-94040316D01*
X135399993Y-94034504D01*
X135377471Y-94026446D01*
X135355847Y-94016218D01*
X135335330Y-94003921D01*
X135316117Y-93989671D01*
X135298393Y-93973607D01*
X135282329Y-93955883D01*
X135268079Y-93936670D01*
X135255782Y-93916153D01*
X135245554Y-93894529D01*
X135237496Y-93872007D01*
X135231684Y-93848803D01*
X135228174Y-93825142D01*
X135227000Y-93801250D01*
X135227000Y-92888750D01*
X135228174Y-92864858D01*
X135231684Y-92841197D01*
X135237496Y-92817993D01*
X135245554Y-92795471D01*
X135255782Y-92773847D01*
X135268079Y-92753330D01*
X135282329Y-92734117D01*
X135298393Y-92716393D01*
X135316117Y-92700329D01*
X135335330Y-92686079D01*
X135355847Y-92673782D01*
X135377471Y-92663554D01*
X135399993Y-92655496D01*
X135423197Y-92649684D01*
X135446858Y-92646174D01*
X135470750Y-92645000D01*
X135958250Y-92645000D01*
X135982142Y-92646174D01*
X135982142Y-92646174D01*
G37*
D12*
X135714500Y-93345000D03*
D11*
G36*
X137857142Y-92646174D02*
X137880803Y-92649684D01*
X137904007Y-92655496D01*
X137926529Y-92663554D01*
X137948153Y-92673782D01*
X137968670Y-92686079D01*
X137987883Y-92700329D01*
X138005607Y-92716393D01*
X138021671Y-92734117D01*
X138035921Y-92753330D01*
X138048218Y-92773847D01*
X138058446Y-92795471D01*
X138066504Y-92817993D01*
X138072316Y-92841197D01*
X138075826Y-92864858D01*
X138077000Y-92888750D01*
X138077000Y-93801250D01*
X138075826Y-93825142D01*
X138072316Y-93848803D01*
X138066504Y-93872007D01*
X138058446Y-93894529D01*
X138048218Y-93916153D01*
X138035921Y-93936670D01*
X138021671Y-93955883D01*
X138005607Y-93973607D01*
X137987883Y-93989671D01*
X137968670Y-94003921D01*
X137948153Y-94016218D01*
X137926529Y-94026446D01*
X137904007Y-94034504D01*
X137880803Y-94040316D01*
X137857142Y-94043826D01*
X137833250Y-94045000D01*
X137345750Y-94045000D01*
X137321858Y-94043826D01*
X137298197Y-94040316D01*
X137274993Y-94034504D01*
X137252471Y-94026446D01*
X137230847Y-94016218D01*
X137210330Y-94003921D01*
X137191117Y-93989671D01*
X137173393Y-93973607D01*
X137157329Y-93955883D01*
X137143079Y-93936670D01*
X137130782Y-93916153D01*
X137120554Y-93894529D01*
X137112496Y-93872007D01*
X137106684Y-93848803D01*
X137103174Y-93825142D01*
X137102000Y-93801250D01*
X137102000Y-92888750D01*
X137103174Y-92864858D01*
X137106684Y-92841197D01*
X137112496Y-92817993D01*
X137120554Y-92795471D01*
X137130782Y-92773847D01*
X137143079Y-92753330D01*
X137157329Y-92734117D01*
X137173393Y-92716393D01*
X137191117Y-92700329D01*
X137210330Y-92686079D01*
X137230847Y-92673782D01*
X137252471Y-92663554D01*
X137274993Y-92655496D01*
X137298197Y-92649684D01*
X137321858Y-92646174D01*
X137345750Y-92645000D01*
X137833250Y-92645000D01*
X137857142Y-92646174D01*
X137857142Y-92646174D01*
G37*
D12*
X137589500Y-93345000D03*
G04 #@! TD*
D11*
G04 #@! TO.C,R5*
G36*
X96492142Y-131291174D02*
X96515803Y-131294684D01*
X96539007Y-131300496D01*
X96561529Y-131308554D01*
X96583153Y-131318782D01*
X96603670Y-131331079D01*
X96622883Y-131345329D01*
X96640607Y-131361393D01*
X96656671Y-131379117D01*
X96670921Y-131398330D01*
X96683218Y-131418847D01*
X96693446Y-131440471D01*
X96701504Y-131462993D01*
X96707316Y-131486197D01*
X96710826Y-131509858D01*
X96712000Y-131533750D01*
X96712000Y-132021250D01*
X96710826Y-132045142D01*
X96707316Y-132068803D01*
X96701504Y-132092007D01*
X96693446Y-132114529D01*
X96683218Y-132136153D01*
X96670921Y-132156670D01*
X96656671Y-132175883D01*
X96640607Y-132193607D01*
X96622883Y-132209671D01*
X96603670Y-132223921D01*
X96583153Y-132236218D01*
X96561529Y-132246446D01*
X96539007Y-132254504D01*
X96515803Y-132260316D01*
X96492142Y-132263826D01*
X96468250Y-132265000D01*
X95555750Y-132265000D01*
X95531858Y-132263826D01*
X95508197Y-132260316D01*
X95484993Y-132254504D01*
X95462471Y-132246446D01*
X95440847Y-132236218D01*
X95420330Y-132223921D01*
X95401117Y-132209671D01*
X95383393Y-132193607D01*
X95367329Y-132175883D01*
X95353079Y-132156670D01*
X95340782Y-132136153D01*
X95330554Y-132114529D01*
X95322496Y-132092007D01*
X95316684Y-132068803D01*
X95313174Y-132045142D01*
X95312000Y-132021250D01*
X95312000Y-131533750D01*
X95313174Y-131509858D01*
X95316684Y-131486197D01*
X95322496Y-131462993D01*
X95330554Y-131440471D01*
X95340782Y-131418847D01*
X95353079Y-131398330D01*
X95367329Y-131379117D01*
X95383393Y-131361393D01*
X95401117Y-131345329D01*
X95420330Y-131331079D01*
X95440847Y-131318782D01*
X95462471Y-131308554D01*
X95484993Y-131300496D01*
X95508197Y-131294684D01*
X95531858Y-131291174D01*
X95555750Y-131290000D01*
X96468250Y-131290000D01*
X96492142Y-131291174D01*
X96492142Y-131291174D01*
G37*
D12*
X96012000Y-131777500D03*
D11*
G36*
X96492142Y-133166174D02*
X96515803Y-133169684D01*
X96539007Y-133175496D01*
X96561529Y-133183554D01*
X96583153Y-133193782D01*
X96603670Y-133206079D01*
X96622883Y-133220329D01*
X96640607Y-133236393D01*
X96656671Y-133254117D01*
X96670921Y-133273330D01*
X96683218Y-133293847D01*
X96693446Y-133315471D01*
X96701504Y-133337993D01*
X96707316Y-133361197D01*
X96710826Y-133384858D01*
X96712000Y-133408750D01*
X96712000Y-133896250D01*
X96710826Y-133920142D01*
X96707316Y-133943803D01*
X96701504Y-133967007D01*
X96693446Y-133989529D01*
X96683218Y-134011153D01*
X96670921Y-134031670D01*
X96656671Y-134050883D01*
X96640607Y-134068607D01*
X96622883Y-134084671D01*
X96603670Y-134098921D01*
X96583153Y-134111218D01*
X96561529Y-134121446D01*
X96539007Y-134129504D01*
X96515803Y-134135316D01*
X96492142Y-134138826D01*
X96468250Y-134140000D01*
X95555750Y-134140000D01*
X95531858Y-134138826D01*
X95508197Y-134135316D01*
X95484993Y-134129504D01*
X95462471Y-134121446D01*
X95440847Y-134111218D01*
X95420330Y-134098921D01*
X95401117Y-134084671D01*
X95383393Y-134068607D01*
X95367329Y-134050883D01*
X95353079Y-134031670D01*
X95340782Y-134011153D01*
X95330554Y-133989529D01*
X95322496Y-133967007D01*
X95316684Y-133943803D01*
X95313174Y-133920142D01*
X95312000Y-133896250D01*
X95312000Y-133408750D01*
X95313174Y-133384858D01*
X95316684Y-133361197D01*
X95322496Y-133337993D01*
X95330554Y-133315471D01*
X95340782Y-133293847D01*
X95353079Y-133273330D01*
X95367329Y-133254117D01*
X95383393Y-133236393D01*
X95401117Y-133220329D01*
X95420330Y-133206079D01*
X95440847Y-133193782D01*
X95462471Y-133183554D01*
X95484993Y-133175496D01*
X95508197Y-133169684D01*
X95531858Y-133166174D01*
X95555750Y-133165000D01*
X96468250Y-133165000D01*
X96492142Y-133166174D01*
X96492142Y-133166174D01*
G37*
D12*
X96012000Y-133652500D03*
G04 #@! TD*
D11*
G04 #@! TO.C,R6*
G36*
X96492142Y-141451174D02*
X96515803Y-141454684D01*
X96539007Y-141460496D01*
X96561529Y-141468554D01*
X96583153Y-141478782D01*
X96603670Y-141491079D01*
X96622883Y-141505329D01*
X96640607Y-141521393D01*
X96656671Y-141539117D01*
X96670921Y-141558330D01*
X96683218Y-141578847D01*
X96693446Y-141600471D01*
X96701504Y-141622993D01*
X96707316Y-141646197D01*
X96710826Y-141669858D01*
X96712000Y-141693750D01*
X96712000Y-142181250D01*
X96710826Y-142205142D01*
X96707316Y-142228803D01*
X96701504Y-142252007D01*
X96693446Y-142274529D01*
X96683218Y-142296153D01*
X96670921Y-142316670D01*
X96656671Y-142335883D01*
X96640607Y-142353607D01*
X96622883Y-142369671D01*
X96603670Y-142383921D01*
X96583153Y-142396218D01*
X96561529Y-142406446D01*
X96539007Y-142414504D01*
X96515803Y-142420316D01*
X96492142Y-142423826D01*
X96468250Y-142425000D01*
X95555750Y-142425000D01*
X95531858Y-142423826D01*
X95508197Y-142420316D01*
X95484993Y-142414504D01*
X95462471Y-142406446D01*
X95440847Y-142396218D01*
X95420330Y-142383921D01*
X95401117Y-142369671D01*
X95383393Y-142353607D01*
X95367329Y-142335883D01*
X95353079Y-142316670D01*
X95340782Y-142296153D01*
X95330554Y-142274529D01*
X95322496Y-142252007D01*
X95316684Y-142228803D01*
X95313174Y-142205142D01*
X95312000Y-142181250D01*
X95312000Y-141693750D01*
X95313174Y-141669858D01*
X95316684Y-141646197D01*
X95322496Y-141622993D01*
X95330554Y-141600471D01*
X95340782Y-141578847D01*
X95353079Y-141558330D01*
X95367329Y-141539117D01*
X95383393Y-141521393D01*
X95401117Y-141505329D01*
X95420330Y-141491079D01*
X95440847Y-141478782D01*
X95462471Y-141468554D01*
X95484993Y-141460496D01*
X95508197Y-141454684D01*
X95531858Y-141451174D01*
X95555750Y-141450000D01*
X96468250Y-141450000D01*
X96492142Y-141451174D01*
X96492142Y-141451174D01*
G37*
D12*
X96012000Y-141937500D03*
D11*
G36*
X96492142Y-143326174D02*
X96515803Y-143329684D01*
X96539007Y-143335496D01*
X96561529Y-143343554D01*
X96583153Y-143353782D01*
X96603670Y-143366079D01*
X96622883Y-143380329D01*
X96640607Y-143396393D01*
X96656671Y-143414117D01*
X96670921Y-143433330D01*
X96683218Y-143453847D01*
X96693446Y-143475471D01*
X96701504Y-143497993D01*
X96707316Y-143521197D01*
X96710826Y-143544858D01*
X96712000Y-143568750D01*
X96712000Y-144056250D01*
X96710826Y-144080142D01*
X96707316Y-144103803D01*
X96701504Y-144127007D01*
X96693446Y-144149529D01*
X96683218Y-144171153D01*
X96670921Y-144191670D01*
X96656671Y-144210883D01*
X96640607Y-144228607D01*
X96622883Y-144244671D01*
X96603670Y-144258921D01*
X96583153Y-144271218D01*
X96561529Y-144281446D01*
X96539007Y-144289504D01*
X96515803Y-144295316D01*
X96492142Y-144298826D01*
X96468250Y-144300000D01*
X95555750Y-144300000D01*
X95531858Y-144298826D01*
X95508197Y-144295316D01*
X95484993Y-144289504D01*
X95462471Y-144281446D01*
X95440847Y-144271218D01*
X95420330Y-144258921D01*
X95401117Y-144244671D01*
X95383393Y-144228607D01*
X95367329Y-144210883D01*
X95353079Y-144191670D01*
X95340782Y-144171153D01*
X95330554Y-144149529D01*
X95322496Y-144127007D01*
X95316684Y-144103803D01*
X95313174Y-144080142D01*
X95312000Y-144056250D01*
X95312000Y-143568750D01*
X95313174Y-143544858D01*
X95316684Y-143521197D01*
X95322496Y-143497993D01*
X95330554Y-143475471D01*
X95340782Y-143453847D01*
X95353079Y-143433330D01*
X95367329Y-143414117D01*
X95383393Y-143396393D01*
X95401117Y-143380329D01*
X95420330Y-143366079D01*
X95440847Y-143353782D01*
X95462471Y-143343554D01*
X95484993Y-143335496D01*
X95508197Y-143329684D01*
X95531858Y-143326174D01*
X95555750Y-143325000D01*
X96468250Y-143325000D01*
X96492142Y-143326174D01*
X96492142Y-143326174D01*
G37*
D12*
X96012000Y-143812500D03*
G04 #@! TD*
D11*
G04 #@! TO.C,R12*
G36*
X120742142Y-132651174D02*
X120765803Y-132654684D01*
X120789007Y-132660496D01*
X120811529Y-132668554D01*
X120833153Y-132678782D01*
X120853670Y-132691079D01*
X120872883Y-132705329D01*
X120890607Y-132721393D01*
X120906671Y-132739117D01*
X120920921Y-132758330D01*
X120933218Y-132778847D01*
X120943446Y-132800471D01*
X120951504Y-132822993D01*
X120957316Y-132846197D01*
X120960826Y-132869858D01*
X120962000Y-132893750D01*
X120962000Y-133806250D01*
X120960826Y-133830142D01*
X120957316Y-133853803D01*
X120951504Y-133877007D01*
X120943446Y-133899529D01*
X120933218Y-133921153D01*
X120920921Y-133941670D01*
X120906671Y-133960883D01*
X120890607Y-133978607D01*
X120872883Y-133994671D01*
X120853670Y-134008921D01*
X120833153Y-134021218D01*
X120811529Y-134031446D01*
X120789007Y-134039504D01*
X120765803Y-134045316D01*
X120742142Y-134048826D01*
X120718250Y-134050000D01*
X120230750Y-134050000D01*
X120206858Y-134048826D01*
X120183197Y-134045316D01*
X120159993Y-134039504D01*
X120137471Y-134031446D01*
X120115847Y-134021218D01*
X120095330Y-134008921D01*
X120076117Y-133994671D01*
X120058393Y-133978607D01*
X120042329Y-133960883D01*
X120028079Y-133941670D01*
X120015782Y-133921153D01*
X120005554Y-133899529D01*
X119997496Y-133877007D01*
X119991684Y-133853803D01*
X119988174Y-133830142D01*
X119987000Y-133806250D01*
X119987000Y-132893750D01*
X119988174Y-132869858D01*
X119991684Y-132846197D01*
X119997496Y-132822993D01*
X120005554Y-132800471D01*
X120015782Y-132778847D01*
X120028079Y-132758330D01*
X120042329Y-132739117D01*
X120058393Y-132721393D01*
X120076117Y-132705329D01*
X120095330Y-132691079D01*
X120115847Y-132678782D01*
X120137471Y-132668554D01*
X120159993Y-132660496D01*
X120183197Y-132654684D01*
X120206858Y-132651174D01*
X120230750Y-132650000D01*
X120718250Y-132650000D01*
X120742142Y-132651174D01*
X120742142Y-132651174D01*
G37*
D12*
X120474500Y-133350000D03*
D11*
G36*
X122617142Y-132651174D02*
X122640803Y-132654684D01*
X122664007Y-132660496D01*
X122686529Y-132668554D01*
X122708153Y-132678782D01*
X122728670Y-132691079D01*
X122747883Y-132705329D01*
X122765607Y-132721393D01*
X122781671Y-132739117D01*
X122795921Y-132758330D01*
X122808218Y-132778847D01*
X122818446Y-132800471D01*
X122826504Y-132822993D01*
X122832316Y-132846197D01*
X122835826Y-132869858D01*
X122837000Y-132893750D01*
X122837000Y-133806250D01*
X122835826Y-133830142D01*
X122832316Y-133853803D01*
X122826504Y-133877007D01*
X122818446Y-133899529D01*
X122808218Y-133921153D01*
X122795921Y-133941670D01*
X122781671Y-133960883D01*
X122765607Y-133978607D01*
X122747883Y-133994671D01*
X122728670Y-134008921D01*
X122708153Y-134021218D01*
X122686529Y-134031446D01*
X122664007Y-134039504D01*
X122640803Y-134045316D01*
X122617142Y-134048826D01*
X122593250Y-134050000D01*
X122105750Y-134050000D01*
X122081858Y-134048826D01*
X122058197Y-134045316D01*
X122034993Y-134039504D01*
X122012471Y-134031446D01*
X121990847Y-134021218D01*
X121970330Y-134008921D01*
X121951117Y-133994671D01*
X121933393Y-133978607D01*
X121917329Y-133960883D01*
X121903079Y-133941670D01*
X121890782Y-133921153D01*
X121880554Y-133899529D01*
X121872496Y-133877007D01*
X121866684Y-133853803D01*
X121863174Y-133830142D01*
X121862000Y-133806250D01*
X121862000Y-132893750D01*
X121863174Y-132869858D01*
X121866684Y-132846197D01*
X121872496Y-132822993D01*
X121880554Y-132800471D01*
X121890782Y-132778847D01*
X121903079Y-132758330D01*
X121917329Y-132739117D01*
X121933393Y-132721393D01*
X121951117Y-132705329D01*
X121970330Y-132691079D01*
X121990847Y-132678782D01*
X122012471Y-132668554D01*
X122034993Y-132660496D01*
X122058197Y-132654684D01*
X122081858Y-132651174D01*
X122105750Y-132650000D01*
X122593250Y-132650000D01*
X122617142Y-132651174D01*
X122617142Y-132651174D01*
G37*
D12*
X122349500Y-133350000D03*
G04 #@! TD*
M02*
