M48
;DRILL file {KiCad (5.0.0)} date 08/16/18 17:52:31
;FORMAT={-:-/ absolute / inch / decimal}
FMAT,2
INCH,TZ
T1C0.0157
T2C0.0197
T3C0.0236
T4C0.0394
%
G90
G05
M72
T1
X3.7047Y-5.3268
X3.7047Y-5.5079
X3.8481Y-5.2619
X4.0543Y-5.
X4.065Y-3.25
X4.15Y-5.2
X4.2Y-5.
X4.4055Y-5.3346
X4.4055Y-5.5236
X4.475Y-5.315
X4.485Y-4.94
X4.49Y-3.37
X4.49Y-4.16
X4.68Y-3.03
X4.68Y-3.81
X4.686Y-4.626
X4.8743Y-4.9407
X4.875Y-3.37
X4.88Y-4.16
X4.925Y-5.41
X4.9646Y-5.1063
X5.09Y-3.81
X5.09Y-4.35
X5.0906Y-2.1929
X5.0906Y-2.7913
X5.0906Y-3.0157
X5.0906Y-3.5906
X5.0906Y-4.626
X5.4803Y-4.626
X5.49Y-3.01
X5.49Y-3.81
T4
X5.3816Y-2.6953
X5.4816Y-2.6953
X5.5784Y-2.6953
X4.5816Y-4.2953
X4.6816Y-4.2953
X4.7784Y-4.2953
X5.3816Y-5.0953
X5.4816Y-5.0953
X5.5784Y-5.0953
X4.5816Y-2.6953
X4.6816Y-2.6953
X4.7784Y-2.6953
X5.3816Y-3.4953
X5.4816Y-3.4953
X5.5784Y-3.4953
X4.5816Y-5.0953
X4.6816Y-5.0953
X4.7784Y-5.0953
X4.5816Y-3.4953
X4.6816Y-3.4953
X4.7784Y-3.4953
X4.18Y-2.225
X4.18Y-2.325
X4.18Y-2.425
X4.18Y-2.525
X4.18Y-2.625
X4.28Y-2.225
X4.28Y-2.325
X4.28Y-2.425
X4.28Y-2.525
X4.28Y-2.625
X5.3816Y-4.2953
X5.4816Y-4.2953
X5.5784Y-4.2953
T2
X3.8583Y-3.8063G85X3.9017Y-3.8063
G05
X5.4583Y-5.4063G85X5.5017Y-5.4063
G05
X4.6583Y-5.4063G85X4.7017Y-5.4063
G05
X3.8583Y-4.6063G85X3.9017Y-4.6063
G05
X3.8583Y-3.0063G85X3.9017Y-3.0063
G05
X3.8583Y-2.2063G85X3.9017Y-2.2063
G05
T3
X3.8603Y-4.1331G85X3.8997Y-4.1331
G05
X3.8643Y-4.2551G85X3.8957Y-4.2551
G05
X5.4603Y-5.7331G85X5.4997Y-5.7331
G05
X5.4643Y-5.8551G85X5.4957Y-5.8551
G05
X4.6603Y-5.7331G85X4.6997Y-5.7331
G05
X4.6643Y-5.8551G85X4.6957Y-5.8551
G05
X3.8603Y-4.9331G85X3.8997Y-4.9331
G05
X3.8643Y-5.0551G85X3.8957Y-5.0551
G05
X3.8603Y-3.3331G85X3.8997Y-3.3331
G05
X3.8643Y-3.4551G85X3.8957Y-3.4551
G05
X3.8603Y-2.5331G85X3.8997Y-2.5331
G05
X3.8643Y-2.6551G85X3.8957Y-2.6551
G05
T0
M30
