G04 #@! TF.GenerationSoftware,KiCad,Pcbnew,(5.0.0)*
G04 #@! TF.CreationDate,2018-08-16T01:02:05+08:00*
G04 #@! TF.ProjectId,Mixer,4D697865722E6B696361645F70636200,rev?*
G04 #@! TF.SameCoordinates,Original*
G04 #@! TF.FileFunction,Legend,Top*
G04 #@! TF.FilePolarity,Positive*
%FSLAX46Y46*%
G04 Gerber Fmt 4.6, Leading zero omitted, Abs format (unit mm)*
G04 Created by KiCad (PCBNEW (5.0.0)) date 08/16/18 01:02:06*
%MOMM*%
%LPD*%
G01*
G04 APERTURE LIST*
%ADD10C,0.120000*%
%ADD11C,0.150000*%
G04 APERTURE END LIST*
D10*
G04 #@! TO.C,RV8*
X113891000Y-128660000D02*
X113891000Y-124723000D01*
X113891000Y-120356000D02*
X113891000Y-116420000D01*
X123932000Y-128660000D02*
X123932000Y-124723000D01*
X123932000Y-120356000D02*
X123932000Y-116420000D01*
X113891000Y-128660000D02*
X115541000Y-128660000D01*
X117283000Y-128660000D02*
X118042000Y-128660000D01*
X119783000Y-128660000D02*
X120542000Y-128660000D01*
X122282000Y-128660000D02*
X123932000Y-128660000D01*
X113891000Y-116420000D02*
X123932000Y-116420000D01*
G04 #@! TO.C,RV7*
X113891000Y-96100000D02*
X123932000Y-96100000D01*
X122282000Y-108340000D02*
X123932000Y-108340000D01*
X119783000Y-108340000D02*
X120542000Y-108340000D01*
X117283000Y-108340000D02*
X118042000Y-108340000D01*
X113891000Y-108340000D02*
X115541000Y-108340000D01*
X123932000Y-100036000D02*
X123932000Y-96100000D01*
X123932000Y-108340000D02*
X123932000Y-104403000D01*
X113891000Y-100036000D02*
X113891000Y-96100000D01*
X113891000Y-108340000D02*
X113891000Y-104403000D01*
G04 #@! TO.C,RV6*
X113891000Y-88020000D02*
X113891000Y-84083000D01*
X113891000Y-79716000D02*
X113891000Y-75780000D01*
X123932000Y-88020000D02*
X123932000Y-84083000D01*
X123932000Y-79716000D02*
X123932000Y-75780000D01*
X113891000Y-88020000D02*
X115541000Y-88020000D01*
X117283000Y-88020000D02*
X118042000Y-88020000D01*
X119783000Y-88020000D02*
X120542000Y-88020000D01*
X122282000Y-88020000D02*
X123932000Y-88020000D01*
X113891000Y-75780000D02*
X123932000Y-75780000D01*
G04 #@! TO.C,RV5*
X113891000Y-55460000D02*
X123932000Y-55460000D01*
X122282000Y-67700000D02*
X123932000Y-67700000D01*
X119783000Y-67700000D02*
X120542000Y-67700000D01*
X117283000Y-67700000D02*
X118042000Y-67700000D01*
X113891000Y-67700000D02*
X115541000Y-67700000D01*
X123932000Y-59396000D02*
X123932000Y-55460000D01*
X123932000Y-67700000D02*
X123932000Y-63763000D01*
X113891000Y-59396000D02*
X113891000Y-55460000D01*
X113891000Y-67700000D02*
X113891000Y-63763000D01*
G04 #@! TO.C,RV4*
X134211000Y-128660000D02*
X134211000Y-124723000D01*
X134211000Y-120356000D02*
X134211000Y-116420000D01*
X144252000Y-128660000D02*
X144252000Y-124723000D01*
X144252000Y-120356000D02*
X144252000Y-116420000D01*
X134211000Y-128660000D02*
X135861000Y-128660000D01*
X137603000Y-128660000D02*
X138362000Y-128660000D01*
X140103000Y-128660000D02*
X140862000Y-128660000D01*
X142602000Y-128660000D02*
X144252000Y-128660000D01*
X134211000Y-116420000D02*
X144252000Y-116420000D01*
G04 #@! TO.C,RV3*
X134211000Y-96100000D02*
X144252000Y-96100000D01*
X142602000Y-108340000D02*
X144252000Y-108340000D01*
X140103000Y-108340000D02*
X140862000Y-108340000D01*
X137603000Y-108340000D02*
X138362000Y-108340000D01*
X134211000Y-108340000D02*
X135861000Y-108340000D01*
X144252000Y-100036000D02*
X144252000Y-96100000D01*
X144252000Y-108340000D02*
X144252000Y-104403000D01*
X134211000Y-100036000D02*
X134211000Y-96100000D01*
X134211000Y-108340000D02*
X134211000Y-104403000D01*
G04 #@! TO.C,RV1*
X134211000Y-67700000D02*
X134211000Y-63763000D01*
X134211000Y-59396000D02*
X134211000Y-55460000D01*
X144252000Y-67700000D02*
X144252000Y-63763000D01*
X144252000Y-59396000D02*
X144252000Y-55460000D01*
X134211000Y-67700000D02*
X135861000Y-67700000D01*
X137603000Y-67700000D02*
X138362000Y-67700000D01*
X140103000Y-67700000D02*
X140862000Y-67700000D01*
X142602000Y-67700000D02*
X144252000Y-67700000D01*
X134211000Y-55460000D02*
X144252000Y-55460000D01*
G04 #@! TO.C,RV2*
X134211000Y-75780000D02*
X144252000Y-75780000D01*
X142602000Y-88020000D02*
X144252000Y-88020000D01*
X140103000Y-88020000D02*
X140862000Y-88020000D01*
X137603000Y-88020000D02*
X138362000Y-88020000D01*
X134211000Y-88020000D02*
X135861000Y-88020000D01*
X144252000Y-79716000D02*
X144252000Y-75780000D01*
X144252000Y-88020000D02*
X144252000Y-84083000D01*
X134211000Y-79716000D02*
X134211000Y-75780000D01*
X134211000Y-88020000D02*
X134211000Y-84083000D01*
D11*
G04 #@! TO.C,J4*
X100352000Y-121920000D02*
G75*
G03X100352000Y-121920000I-1800000J0D01*
G01*
X101558659Y-121920000D02*
G75*
G03X101558659Y-121920000I-3006659J0D01*
G01*
X94052000Y-115920000D02*
X94052000Y-126420000D01*
X103052000Y-115920000D02*
X94052000Y-115920000D01*
X103052000Y-126420000D02*
X103052000Y-115920000D01*
X94052000Y-126420000D02*
X103052000Y-126420000D01*
X98552000Y-120120000D02*
X98552000Y-123720000D01*
X100352000Y-121920000D02*
X96752000Y-121920000D01*
G04 #@! TO.C,J1*
X100352000Y-60960000D02*
X96752000Y-60960000D01*
X98552000Y-59160000D02*
X98552000Y-62760000D01*
X94052000Y-65460000D02*
X103052000Y-65460000D01*
X103052000Y-65460000D02*
X103052000Y-54960000D01*
X103052000Y-54960000D02*
X94052000Y-54960000D01*
X94052000Y-54960000D02*
X94052000Y-65460000D01*
X101558659Y-60960000D02*
G75*
G03X101558659Y-60960000I-3006659J0D01*
G01*
X100352000Y-60960000D02*
G75*
G03X100352000Y-60960000I-1800000J0D01*
G01*
G04 #@! TO.C,J2*
X100352000Y-81280000D02*
G75*
G03X100352000Y-81280000I-1800000J0D01*
G01*
X101558659Y-81280000D02*
G75*
G03X101558659Y-81280000I-3006659J0D01*
G01*
X94052000Y-75280000D02*
X94052000Y-85780000D01*
X103052000Y-75280000D02*
X94052000Y-75280000D01*
X103052000Y-85780000D02*
X103052000Y-75280000D01*
X94052000Y-85780000D02*
X103052000Y-85780000D01*
X98552000Y-79480000D02*
X98552000Y-83080000D01*
X100352000Y-81280000D02*
X96752000Y-81280000D01*
G04 #@! TO.C,J6*
X140992000Y-142240000D02*
X137392000Y-142240000D01*
X139192000Y-140440000D02*
X139192000Y-144040000D01*
X134692000Y-146740000D02*
X143692000Y-146740000D01*
X143692000Y-146740000D02*
X143692000Y-136240000D01*
X143692000Y-136240000D02*
X134692000Y-136240000D01*
X134692000Y-136240000D02*
X134692000Y-146740000D01*
X142198659Y-142240000D02*
G75*
G03X142198659Y-142240000I-3006659J0D01*
G01*
X140992000Y-142240000D02*
G75*
G03X140992000Y-142240000I-1800000J0D01*
G01*
G04 #@! TO.C,J5*
X120672000Y-142240000D02*
G75*
G03X120672000Y-142240000I-1800000J0D01*
G01*
X121878659Y-142240000D02*
G75*
G03X121878659Y-142240000I-3006659J0D01*
G01*
X114372000Y-136240000D02*
X114372000Y-146740000D01*
X123372000Y-136240000D02*
X114372000Y-136240000D01*
X123372000Y-146740000D02*
X123372000Y-136240000D01*
X114372000Y-146740000D02*
X123372000Y-146740000D01*
X118872000Y-140440000D02*
X118872000Y-144040000D01*
X120672000Y-142240000D02*
X117072000Y-142240000D01*
G04 #@! TO.C,J3*
X100352000Y-101600000D02*
X96752000Y-101600000D01*
X98552000Y-99800000D02*
X98552000Y-103400000D01*
X94052000Y-106100000D02*
X103052000Y-106100000D01*
X103052000Y-106100000D02*
X103052000Y-95600000D01*
X103052000Y-95600000D02*
X94052000Y-95600000D01*
X94052000Y-95600000D02*
X94052000Y-106100000D01*
X101558659Y-101600000D02*
G75*
G03X101558659Y-101600000I-3006659J0D01*
G01*
X100352000Y-101600000D02*
G75*
G03X100352000Y-101600000I-1800000J0D01*
G01*
G04 #@! TO.C,RV8*
X118276761Y-118562380D02*
X117943428Y-118086190D01*
X117705333Y-118562380D02*
X117705333Y-117562380D01*
X118086285Y-117562380D01*
X118181523Y-117610000D01*
X118229142Y-117657619D01*
X118276761Y-117752857D01*
X118276761Y-117895714D01*
X118229142Y-117990952D01*
X118181523Y-118038571D01*
X118086285Y-118086190D01*
X117705333Y-118086190D01*
X118562476Y-117562380D02*
X118895809Y-118562380D01*
X119229142Y-117562380D01*
X119705333Y-117990952D02*
X119610095Y-117943333D01*
X119562476Y-117895714D01*
X119514857Y-117800476D01*
X119514857Y-117752857D01*
X119562476Y-117657619D01*
X119610095Y-117610000D01*
X119705333Y-117562380D01*
X119895809Y-117562380D01*
X119991047Y-117610000D01*
X120038666Y-117657619D01*
X120086285Y-117752857D01*
X120086285Y-117800476D01*
X120038666Y-117895714D01*
X119991047Y-117943333D01*
X119895809Y-117990952D01*
X119705333Y-117990952D01*
X119610095Y-118038571D01*
X119562476Y-118086190D01*
X119514857Y-118181428D01*
X119514857Y-118371904D01*
X119562476Y-118467142D01*
X119610095Y-118514761D01*
X119705333Y-118562380D01*
X119895809Y-118562380D01*
X119991047Y-118514761D01*
X120038666Y-118467142D01*
X120086285Y-118371904D01*
X120086285Y-118181428D01*
X120038666Y-118086190D01*
X119991047Y-118038571D01*
X119895809Y-117990952D01*
G04 #@! TO.C,RV7*
X118276761Y-98242380D02*
X117943428Y-97766190D01*
X117705333Y-98242380D02*
X117705333Y-97242380D01*
X118086285Y-97242380D01*
X118181523Y-97290000D01*
X118229142Y-97337619D01*
X118276761Y-97432857D01*
X118276761Y-97575714D01*
X118229142Y-97670952D01*
X118181523Y-97718571D01*
X118086285Y-97766190D01*
X117705333Y-97766190D01*
X118562476Y-97242380D02*
X118895809Y-98242380D01*
X119229142Y-97242380D01*
X119467238Y-97242380D02*
X120133904Y-97242380D01*
X119705333Y-98242380D01*
G04 #@! TO.C,RV6*
X118276761Y-77922380D02*
X117943428Y-77446190D01*
X117705333Y-77922380D02*
X117705333Y-76922380D01*
X118086285Y-76922380D01*
X118181523Y-76970000D01*
X118229142Y-77017619D01*
X118276761Y-77112857D01*
X118276761Y-77255714D01*
X118229142Y-77350952D01*
X118181523Y-77398571D01*
X118086285Y-77446190D01*
X117705333Y-77446190D01*
X118562476Y-76922380D02*
X118895809Y-77922380D01*
X119229142Y-76922380D01*
X119991047Y-76922380D02*
X119800571Y-76922380D01*
X119705333Y-76970000D01*
X119657714Y-77017619D01*
X119562476Y-77160476D01*
X119514857Y-77350952D01*
X119514857Y-77731904D01*
X119562476Y-77827142D01*
X119610095Y-77874761D01*
X119705333Y-77922380D01*
X119895809Y-77922380D01*
X119991047Y-77874761D01*
X120038666Y-77827142D01*
X120086285Y-77731904D01*
X120086285Y-77493809D01*
X120038666Y-77398571D01*
X119991047Y-77350952D01*
X119895809Y-77303333D01*
X119705333Y-77303333D01*
X119610095Y-77350952D01*
X119562476Y-77398571D01*
X119514857Y-77493809D01*
G04 #@! TO.C,RV5*
X118276761Y-57602380D02*
X117943428Y-57126190D01*
X117705333Y-57602380D02*
X117705333Y-56602380D01*
X118086285Y-56602380D01*
X118181523Y-56650000D01*
X118229142Y-56697619D01*
X118276761Y-56792857D01*
X118276761Y-56935714D01*
X118229142Y-57030952D01*
X118181523Y-57078571D01*
X118086285Y-57126190D01*
X117705333Y-57126190D01*
X118562476Y-56602380D02*
X118895809Y-57602380D01*
X119229142Y-56602380D01*
X120038666Y-56602380D02*
X119562476Y-56602380D01*
X119514857Y-57078571D01*
X119562476Y-57030952D01*
X119657714Y-56983333D01*
X119895809Y-56983333D01*
X119991047Y-57030952D01*
X120038666Y-57078571D01*
X120086285Y-57173809D01*
X120086285Y-57411904D01*
X120038666Y-57507142D01*
X119991047Y-57554761D01*
X119895809Y-57602380D01*
X119657714Y-57602380D01*
X119562476Y-57554761D01*
X119514857Y-57507142D01*
G04 #@! TO.C,RV4*
X138596761Y-118562380D02*
X138263428Y-118086190D01*
X138025333Y-118562380D02*
X138025333Y-117562380D01*
X138406285Y-117562380D01*
X138501523Y-117610000D01*
X138549142Y-117657619D01*
X138596761Y-117752857D01*
X138596761Y-117895714D01*
X138549142Y-117990952D01*
X138501523Y-118038571D01*
X138406285Y-118086190D01*
X138025333Y-118086190D01*
X138882476Y-117562380D02*
X139215809Y-118562380D01*
X139549142Y-117562380D01*
X140311047Y-117895714D02*
X140311047Y-118562380D01*
X140072952Y-117514761D02*
X139834857Y-118229047D01*
X140453904Y-118229047D01*
G04 #@! TO.C,RV3*
X138596761Y-98242380D02*
X138263428Y-97766190D01*
X138025333Y-98242380D02*
X138025333Y-97242380D01*
X138406285Y-97242380D01*
X138501523Y-97290000D01*
X138549142Y-97337619D01*
X138596761Y-97432857D01*
X138596761Y-97575714D01*
X138549142Y-97670952D01*
X138501523Y-97718571D01*
X138406285Y-97766190D01*
X138025333Y-97766190D01*
X138882476Y-97242380D02*
X139215809Y-98242380D01*
X139549142Y-97242380D01*
X139787238Y-97242380D02*
X140406285Y-97242380D01*
X140072952Y-97623333D01*
X140215809Y-97623333D01*
X140311047Y-97670952D01*
X140358666Y-97718571D01*
X140406285Y-97813809D01*
X140406285Y-98051904D01*
X140358666Y-98147142D01*
X140311047Y-98194761D01*
X140215809Y-98242380D01*
X139930095Y-98242380D01*
X139834857Y-98194761D01*
X139787238Y-98147142D01*
G04 #@! TO.C,RV1*
X138596761Y-57602380D02*
X138263428Y-57126190D01*
X138025333Y-57602380D02*
X138025333Y-56602380D01*
X138406285Y-56602380D01*
X138501523Y-56650000D01*
X138549142Y-56697619D01*
X138596761Y-56792857D01*
X138596761Y-56935714D01*
X138549142Y-57030952D01*
X138501523Y-57078571D01*
X138406285Y-57126190D01*
X138025333Y-57126190D01*
X138882476Y-56602380D02*
X139215809Y-57602380D01*
X139549142Y-56602380D01*
X140406285Y-57602380D02*
X139834857Y-57602380D01*
X140120571Y-57602380D02*
X140120571Y-56602380D01*
X140025333Y-56745238D01*
X139930095Y-56840476D01*
X139834857Y-56888095D01*
G04 #@! TO.C,RV2*
X138596761Y-77922380D02*
X138263428Y-77446190D01*
X138025333Y-77922380D02*
X138025333Y-76922380D01*
X138406285Y-76922380D01*
X138501523Y-76970000D01*
X138549142Y-77017619D01*
X138596761Y-77112857D01*
X138596761Y-77255714D01*
X138549142Y-77350952D01*
X138501523Y-77398571D01*
X138406285Y-77446190D01*
X138025333Y-77446190D01*
X138882476Y-76922380D02*
X139215809Y-77922380D01*
X139549142Y-76922380D01*
X139834857Y-77017619D02*
X139882476Y-76970000D01*
X139977714Y-76922380D01*
X140215809Y-76922380D01*
X140311047Y-76970000D01*
X140358666Y-77017619D01*
X140406285Y-77112857D01*
X140406285Y-77208095D01*
X140358666Y-77350952D01*
X139787238Y-77922380D01*
X140406285Y-77922380D01*
G04 #@! TO.C,J4*
X98218666Y-114472380D02*
X98218666Y-115186666D01*
X98171047Y-115329523D01*
X98075809Y-115424761D01*
X97932952Y-115472380D01*
X97837714Y-115472380D01*
X99123428Y-114805714D02*
X99123428Y-115472380D01*
X98885333Y-114424761D02*
X98647238Y-115139047D01*
X99266285Y-115139047D01*
G04 #@! TO.C,J1*
X98218666Y-53512380D02*
X98218666Y-54226666D01*
X98171047Y-54369523D01*
X98075809Y-54464761D01*
X97932952Y-54512380D01*
X97837714Y-54512380D01*
X99218666Y-54512380D02*
X98647238Y-54512380D01*
X98932952Y-54512380D02*
X98932952Y-53512380D01*
X98837714Y-53655238D01*
X98742476Y-53750476D01*
X98647238Y-53798095D01*
G04 #@! TO.C,J2*
X98218666Y-73832380D02*
X98218666Y-74546666D01*
X98171047Y-74689523D01*
X98075809Y-74784761D01*
X97932952Y-74832380D01*
X97837714Y-74832380D01*
X98647238Y-73927619D02*
X98694857Y-73880000D01*
X98790095Y-73832380D01*
X99028190Y-73832380D01*
X99123428Y-73880000D01*
X99171047Y-73927619D01*
X99218666Y-74022857D01*
X99218666Y-74118095D01*
X99171047Y-74260952D01*
X98599619Y-74832380D01*
X99218666Y-74832380D01*
G04 #@! TO.C,J6*
X138858666Y-134792380D02*
X138858666Y-135506666D01*
X138811047Y-135649523D01*
X138715809Y-135744761D01*
X138572952Y-135792380D01*
X138477714Y-135792380D01*
X139763428Y-134792380D02*
X139572952Y-134792380D01*
X139477714Y-134840000D01*
X139430095Y-134887619D01*
X139334857Y-135030476D01*
X139287238Y-135220952D01*
X139287238Y-135601904D01*
X139334857Y-135697142D01*
X139382476Y-135744761D01*
X139477714Y-135792380D01*
X139668190Y-135792380D01*
X139763428Y-135744761D01*
X139811047Y-135697142D01*
X139858666Y-135601904D01*
X139858666Y-135363809D01*
X139811047Y-135268571D01*
X139763428Y-135220952D01*
X139668190Y-135173333D01*
X139477714Y-135173333D01*
X139382476Y-135220952D01*
X139334857Y-135268571D01*
X139287238Y-135363809D01*
G04 #@! TO.C,J5*
X118538666Y-134792380D02*
X118538666Y-135506666D01*
X118491047Y-135649523D01*
X118395809Y-135744761D01*
X118252952Y-135792380D01*
X118157714Y-135792380D01*
X119491047Y-134792380D02*
X119014857Y-134792380D01*
X118967238Y-135268571D01*
X119014857Y-135220952D01*
X119110095Y-135173333D01*
X119348190Y-135173333D01*
X119443428Y-135220952D01*
X119491047Y-135268571D01*
X119538666Y-135363809D01*
X119538666Y-135601904D01*
X119491047Y-135697142D01*
X119443428Y-135744761D01*
X119348190Y-135792380D01*
X119110095Y-135792380D01*
X119014857Y-135744761D01*
X118967238Y-135697142D01*
G04 #@! TO.C,J3*
X98218666Y-94152380D02*
X98218666Y-94866666D01*
X98171047Y-95009523D01*
X98075809Y-95104761D01*
X97932952Y-95152380D01*
X97837714Y-95152380D01*
X98599619Y-94152380D02*
X99218666Y-94152380D01*
X98885333Y-94533333D01*
X99028190Y-94533333D01*
X99123428Y-94580952D01*
X99171047Y-94628571D01*
X99218666Y-94723809D01*
X99218666Y-94961904D01*
X99171047Y-95057142D01*
X99123428Y-95104761D01*
X99028190Y-95152380D01*
X98742476Y-95152380D01*
X98647238Y-95104761D01*
X98599619Y-95057142D01*
G04 #@! TD*
M02*
