G04 #@! TF.GenerationSoftware,KiCad,Pcbnew,(5.0.0)*
G04 #@! TF.CreationDate,2018-08-16T01:02:05+08:00*
G04 #@! TF.ProjectId,Mixer,4D697865722E6B696361645F70636200,rev?*
G04 #@! TF.SameCoordinates,Original*
G04 #@! TF.FileFunction,Copper,L1,Top,Signal*
G04 #@! TF.FilePolarity,Positive*
%FSLAX46Y46*%
G04 Gerber Fmt 4.6, Leading zero omitted, Abs format (unit mm)*
G04 Created by KiCad (PCBNEW (5.0.0)) date 08/16/18 01:02:05*
%MOMM*%
%LPD*%
G01*
G04 APERTURE LIST*
G04 #@! TA.AperFunction,ComponentPad*
%ADD10R,1.700000X1.700000*%
G04 #@! TD*
G04 #@! TA.AperFunction,ComponentPad*
%ADD11O,1.700000X1.700000*%
G04 #@! TD*
G04 #@! TA.AperFunction,WasherPad*
%ADD12O,3.000000X2.200000*%
G04 #@! TD*
G04 #@! TA.AperFunction,ComponentPad*
%ADD13C,1.800000*%
G04 #@! TD*
G04 #@! TA.AperFunction,ComponentPad*
%ADD14O,2.600000X1.500000*%
G04 #@! TD*
G04 #@! TA.AperFunction,ComponentPad*
%ADD15O,2.400000X1.600000*%
G04 #@! TD*
G04 #@! TA.AperFunction,ComponentPad*
%ADD16O,2.600000X1.600000*%
G04 #@! TD*
G04 #@! TA.AperFunction,ViaPad*
%ADD17C,0.800000*%
G04 #@! TD*
G04 #@! TA.AperFunction,Conductor*
%ADD18C,0.508000*%
G04 #@! TD*
G04 #@! TA.AperFunction,Conductor*
%ADD19C,0.254000*%
G04 #@! TD*
G04 APERTURE END LIST*
D10*
G04 #@! TO.P,J7,1*
G04 #@! TO.N,Net-(D1-Pad2)*
X106172000Y-66675000D03*
D11*
G04 #@! TO.P,J7,2*
X108712000Y-66675000D03*
G04 #@! TO.P,J7,3*
G04 #@! TO.N,GND*
X106172000Y-64135000D03*
G04 #@! TO.P,J7,4*
X108712000Y-64135000D03*
G04 #@! TO.P,J7,5*
X106172000Y-61595000D03*
G04 #@! TO.P,J7,6*
X108712000Y-61595000D03*
G04 #@! TO.P,J7,7*
X106172000Y-59055000D03*
G04 #@! TO.P,J7,8*
X108712000Y-59055000D03*
G04 #@! TO.P,J7,9*
G04 #@! TO.N,Net-(D2-Pad1)*
X106172000Y-56515000D03*
G04 #@! TO.P,J7,10*
X108712000Y-56515000D03*
G04 #@! TD*
D12*
G04 #@! TO.P,RV8,*
G04 #@! TO.N,*
X123672000Y-121920000D03*
D13*
G04 #@! TO.P,RV8,3*
G04 #@! TO.N,Net-(R19-Pad2)*
X116372000Y-129420010D03*
G04 #@! TO.P,RV8,2*
G04 #@! TO.N,Net-(R12-Pad1)*
X118912000Y-129420010D03*
G04 #@! TO.P,RV8,1*
G04 #@! TO.N,Net-(C1-Pad2)*
X121372000Y-129420010D03*
D12*
G04 #@! TO.P,RV8,*
G04 #@! TO.N,*
X114072000Y-121920000D03*
G04 #@! TD*
G04 #@! TO.P,RV7,*
G04 #@! TO.N,*
X114072000Y-101600000D03*
D13*
G04 #@! TO.P,RV7,1*
G04 #@! TO.N,Net-(C1-Pad2)*
X121372000Y-109100010D03*
G04 #@! TO.P,RV7,2*
G04 #@! TO.N,Net-(R9-Pad1)*
X118912000Y-109100010D03*
G04 #@! TO.P,RV7,3*
G04 #@! TO.N,Net-(R19-Pad2)*
X116372000Y-109100010D03*
D12*
G04 #@! TO.P,RV7,*
G04 #@! TO.N,*
X123672000Y-101600000D03*
G04 #@! TD*
G04 #@! TO.P,RV6,*
G04 #@! TO.N,*
X123672000Y-81280000D03*
D13*
G04 #@! TO.P,RV6,3*
G04 #@! TO.N,Net-(R19-Pad2)*
X116372000Y-88780010D03*
G04 #@! TO.P,RV6,2*
G04 #@! TO.N,Net-(R3-Pad1)*
X118912000Y-88780010D03*
G04 #@! TO.P,RV6,1*
G04 #@! TO.N,Net-(C1-Pad2)*
X121372000Y-88780010D03*
D12*
G04 #@! TO.P,RV6,*
G04 #@! TO.N,*
X114072000Y-81280000D03*
G04 #@! TD*
G04 #@! TO.P,RV5,*
G04 #@! TO.N,*
X114072000Y-60960000D03*
D13*
G04 #@! TO.P,RV5,1*
G04 #@! TO.N,Net-(C1-Pad2)*
X121372000Y-68460010D03*
G04 #@! TO.P,RV5,2*
G04 #@! TO.N,Net-(R1-Pad1)*
X118912000Y-68460010D03*
G04 #@! TO.P,RV5,3*
G04 #@! TO.N,Net-(R19-Pad2)*
X116372000Y-68460010D03*
D12*
G04 #@! TO.P,RV5,*
G04 #@! TO.N,*
X123672000Y-60960000D03*
G04 #@! TD*
G04 #@! TO.P,RV4,*
G04 #@! TO.N,*
X143992000Y-121920000D03*
D13*
G04 #@! TO.P,RV4,3*
G04 #@! TO.N,Net-(R21-Pad2)*
X136692000Y-129420010D03*
G04 #@! TO.P,RV4,2*
G04 #@! TO.N,Net-(R15-Pad1)*
X139232000Y-129420010D03*
G04 #@! TO.P,RV4,1*
G04 #@! TO.N,Net-(C3-Pad2)*
X141692000Y-129420010D03*
D12*
G04 #@! TO.P,RV4,*
G04 #@! TO.N,*
X134392000Y-121920000D03*
G04 #@! TD*
G04 #@! TO.P,RV3,*
G04 #@! TO.N,*
X134392000Y-101600000D03*
D13*
G04 #@! TO.P,RV3,1*
G04 #@! TO.N,Net-(C3-Pad2)*
X141692000Y-109100010D03*
G04 #@! TO.P,RV3,2*
G04 #@! TO.N,Net-(R11-Pad1)*
X139232000Y-109100010D03*
G04 #@! TO.P,RV3,3*
G04 #@! TO.N,Net-(R21-Pad2)*
X136692000Y-109100010D03*
D12*
G04 #@! TO.P,RV3,*
G04 #@! TO.N,*
X143992000Y-101600000D03*
G04 #@! TD*
G04 #@! TO.P,RV1,*
G04 #@! TO.N,*
X143992000Y-60960000D03*
D13*
G04 #@! TO.P,RV1,3*
G04 #@! TO.N,Net-(R21-Pad2)*
X136692000Y-68460010D03*
G04 #@! TO.P,RV1,2*
G04 #@! TO.N,Net-(R2-Pad1)*
X139232000Y-68460010D03*
G04 #@! TO.P,RV1,1*
G04 #@! TO.N,Net-(C3-Pad2)*
X141692000Y-68460010D03*
D12*
G04 #@! TO.P,RV1,*
G04 #@! TO.N,*
X134392000Y-60960000D03*
G04 #@! TD*
G04 #@! TO.P,RV2,*
G04 #@! TO.N,*
X134392000Y-81280000D03*
D13*
G04 #@! TO.P,RV2,1*
G04 #@! TO.N,Net-(C3-Pad2)*
X141692000Y-88780010D03*
G04 #@! TO.P,RV2,2*
G04 #@! TO.N,Net-(R4-Pad1)*
X139232000Y-88780010D03*
G04 #@! TO.P,RV2,3*
G04 #@! TO.N,Net-(R21-Pad2)*
X136692000Y-88780010D03*
D12*
G04 #@! TO.P,RV2,*
G04 #@! TO.N,*
X143992000Y-81280000D03*
G04 #@! TD*
D14*
G04 #@! TO.P,J4,T*
G04 #@! TO.N,Net-(J4-PadT)*
X98552000Y-117000000D03*
D15*
G04 #@! TO.P,J4,S*
G04 #@! TO.N,GND*
X98552000Y-128400000D03*
D16*
G04 #@! TO.P,J4,TN*
G04 #@! TO.N,Net-(J4-PadTN)*
X98552000Y-125300000D03*
G04 #@! TD*
G04 #@! TO.P,J1,TN*
G04 #@! TO.N,Net-(J1-PadTN)*
X98552000Y-64340000D03*
D15*
G04 #@! TO.P,J1,S*
G04 #@! TO.N,GND*
X98552000Y-67440000D03*
D14*
G04 #@! TO.P,J1,T*
G04 #@! TO.N,Net-(J1-PadT)*
X98552000Y-56040000D03*
G04 #@! TD*
G04 #@! TO.P,J2,T*
G04 #@! TO.N,Net-(J2-PadT)*
X98552000Y-76360000D03*
D15*
G04 #@! TO.P,J2,S*
G04 #@! TO.N,GND*
X98552000Y-87760000D03*
D16*
G04 #@! TO.P,J2,TN*
G04 #@! TO.N,Net-(J2-PadTN)*
X98552000Y-84660000D03*
G04 #@! TD*
G04 #@! TO.P,J6,TN*
G04 #@! TO.N,Net-(J6-PadTN)*
X139192000Y-145620000D03*
D15*
G04 #@! TO.P,J6,S*
G04 #@! TO.N,GND*
X139192000Y-148720000D03*
D14*
G04 #@! TO.P,J6,T*
G04 #@! TO.N,Net-(J6-PadT)*
X139192000Y-137320000D03*
G04 #@! TD*
G04 #@! TO.P,J5,T*
G04 #@! TO.N,Net-(J5-PadT)*
X118872000Y-137320000D03*
D15*
G04 #@! TO.P,J5,S*
G04 #@! TO.N,GND*
X118872000Y-148720000D03*
D16*
G04 #@! TO.P,J5,TN*
G04 #@! TO.N,Net-(J5-PadTN)*
X118872000Y-145620000D03*
G04 #@! TD*
G04 #@! TO.P,J3,TN*
G04 #@! TO.N,Net-(J3-PadTN)*
X98552000Y-104980000D03*
D15*
G04 #@! TO.P,J3,S*
G04 #@! TO.N,GND*
X98552000Y-108080000D03*
D14*
G04 #@! TO.P,J3,T*
G04 #@! TO.N,Net-(J3-PadT)*
X98552000Y-96680000D03*
G04 #@! TD*
D17*
G04 #@! TO.N,Net-(J4-PadT)*
X123806001Y-125494999D03*
X113919000Y-125476000D03*
G04 #@! TO.N,Net-(C2-Pad2)*
X102978000Y-127000000D03*
X106680000Y-127000000D03*
G04 #@! TO.N,Net-(C1-Pad2)*
X97741500Y-133652500D03*
X105410000Y-132080000D03*
G04 #@! TO.N,Net-(J2-PadT)*
X103251000Y-82550000D03*
X114046000Y-85598000D03*
X123825000Y-85598000D03*
G04 #@! TO.N,Net-(J3-PadT)*
X114046000Y-105664000D03*
X123952000Y-105664000D03*
G04 #@! TO.N,Net-(C3-Pad2)*
X113665000Y-135001000D03*
X125095000Y-137414000D03*
G04 #@! TO.N,GND*
X94100000Y-135300000D03*
X94100000Y-139900000D03*
X111900000Y-140300000D03*
X111900000Y-135500000D03*
X126100000Y-129700000D03*
X129300000Y-117500000D03*
X129300000Y-91200000D03*
X129300000Y-76600000D03*
X129300000Y-70900000D03*
X129300000Y-55700000D03*
X139200000Y-117500000D03*
X129285999Y-96774001D03*
X129286000Y-110490000D03*
X139446000Y-96774000D03*
X139446000Y-76454000D03*
X119024000Y-117500000D03*
X118872000Y-96774000D03*
X118872000Y-76962000D03*
G04 #@! TD*
D18*
G04 #@! TO.N,Net-(J4-PadT)*
X113937999Y-125494999D02*
X113919000Y-125476000D01*
X123806001Y-125494999D02*
X113937999Y-125494999D01*
G04 #@! TO.N,Net-(C2-Pad2)*
X102978000Y-127000000D02*
X106680000Y-127000000D01*
G04 #@! TO.N,Net-(C1-Pad2)*
X104648000Y-132842000D02*
X105410000Y-132080000D01*
X97741500Y-133652500D02*
X98552000Y-132842000D01*
X98552000Y-132842000D02*
X104648000Y-132842000D01*
G04 #@! TO.N,Net-(J2-PadT)*
X100360000Y-76360000D02*
X103251000Y-79251000D01*
X98552000Y-76360000D02*
X100360000Y-76360000D01*
X103251000Y-79251000D02*
X103251000Y-82550000D01*
X114046000Y-85598000D02*
X123825000Y-85598000D01*
G04 #@! TO.N,Net-(J3-PadT)*
X114046000Y-105664000D02*
X123952000Y-105664000D01*
G04 #@! TO.N,Net-(C3-Pad2)*
X113919000Y-135255000D02*
X113665000Y-135001000D01*
X120015000Y-135255000D02*
X113919000Y-135255000D01*
X125095000Y-137414000D02*
X122174000Y-137414000D01*
X122174000Y-137414000D02*
X120015000Y-135255000D01*
D19*
G04 #@! TO.N,GND*
X97098000Y-128400000D02*
X94100000Y-131398000D01*
X98552000Y-128400000D02*
X97098000Y-128400000D01*
X94100000Y-131398000D02*
X94100000Y-135300000D01*
X118472000Y-148720000D02*
X111900000Y-142148000D01*
X118872000Y-148720000D02*
X118472000Y-148720000D01*
X111900000Y-142148000D02*
X111900000Y-140300000D01*
X120326000Y-148720000D02*
X127800000Y-141246000D01*
X118872000Y-148720000D02*
X120326000Y-148720000D01*
X127800000Y-141246000D02*
X127800000Y-131400000D01*
X127800000Y-131400000D02*
X126100000Y-129700000D01*
D18*
X129300000Y-76600000D02*
X129300000Y-70900000D01*
X129300000Y-117500000D02*
X139200000Y-117500000D01*
X129300000Y-91200000D02*
X129300000Y-96760000D01*
X129300000Y-96760000D02*
X129285999Y-96774001D01*
X129300000Y-116934315D02*
X129300000Y-117500000D01*
X129286000Y-110490000D02*
X129300000Y-116934315D01*
X129285999Y-96774001D02*
X129851685Y-96774000D01*
X129851685Y-96774000D02*
X139446000Y-96774000D01*
X129699999Y-76999999D02*
X138900001Y-76999999D01*
X129300000Y-76600000D02*
X129699999Y-76999999D01*
X138900001Y-76999999D02*
X139446000Y-76454000D01*
X129300000Y-117500000D02*
X119024000Y-117500000D01*
X128886000Y-96374002D02*
X119271998Y-96374002D01*
X129285999Y-96774001D02*
X128886000Y-96374002D01*
X119271998Y-96374002D02*
X118872000Y-96774000D01*
X129300000Y-76600000D02*
X119234000Y-76600000D01*
X119234000Y-76600000D02*
X118872000Y-76962000D01*
G04 #@! TD*
D19*
G04 #@! TO.N,GND*
G36*
X148090000Y-150890000D02*
X89610000Y-150890000D01*
X89610000Y-149069039D01*
X117080096Y-149069039D01*
X117097633Y-149151819D01*
X117367500Y-149644896D01*
X117805517Y-149997166D01*
X118345000Y-150155000D01*
X118745000Y-150155000D01*
X118745000Y-148847000D01*
X118999000Y-148847000D01*
X118999000Y-150155000D01*
X119399000Y-150155000D01*
X119938483Y-149997166D01*
X120376500Y-149644896D01*
X120646367Y-149151819D01*
X120663904Y-149069039D01*
X137400096Y-149069039D01*
X137417633Y-149151819D01*
X137687500Y-149644896D01*
X138125517Y-149997166D01*
X138665000Y-150155000D01*
X139065000Y-150155000D01*
X139065000Y-148847000D01*
X139319000Y-148847000D01*
X139319000Y-150155000D01*
X139719000Y-150155000D01*
X140258483Y-149997166D01*
X140696500Y-149644896D01*
X140966367Y-149151819D01*
X140983904Y-149069039D01*
X140861915Y-148847000D01*
X139319000Y-148847000D01*
X139065000Y-148847000D01*
X137522085Y-148847000D01*
X137400096Y-149069039D01*
X120663904Y-149069039D01*
X120541915Y-148847000D01*
X118999000Y-148847000D01*
X118745000Y-148847000D01*
X117202085Y-148847000D01*
X117080096Y-149069039D01*
X89610000Y-149069039D01*
X89610000Y-148370961D01*
X117080096Y-148370961D01*
X117202085Y-148593000D01*
X118745000Y-148593000D01*
X118745000Y-147285000D01*
X118999000Y-147285000D01*
X118999000Y-148593000D01*
X120541915Y-148593000D01*
X120663904Y-148370961D01*
X137400096Y-148370961D01*
X137522085Y-148593000D01*
X139065000Y-148593000D01*
X139065000Y-147285000D01*
X139319000Y-147285000D01*
X139319000Y-148593000D01*
X140861915Y-148593000D01*
X140983904Y-148370961D01*
X140966367Y-148288181D01*
X140696500Y-147795104D01*
X140258483Y-147442834D01*
X139719000Y-147285000D01*
X139319000Y-147285000D01*
X139065000Y-147285000D01*
X138665000Y-147285000D01*
X138125517Y-147442834D01*
X137687500Y-147795104D01*
X137417633Y-148288181D01*
X137400096Y-148370961D01*
X120663904Y-148370961D01*
X120646367Y-148288181D01*
X120376500Y-147795104D01*
X119938483Y-147442834D01*
X119399000Y-147285000D01*
X118999000Y-147285000D01*
X118745000Y-147285000D01*
X118345000Y-147285000D01*
X117805517Y-147442834D01*
X117367500Y-147795104D01*
X117097633Y-148288181D01*
X117080096Y-148370961D01*
X89610000Y-148370961D01*
X89610000Y-145620000D01*
X116908887Y-145620000D01*
X117020260Y-146179909D01*
X117337423Y-146654577D01*
X117812091Y-146971740D01*
X118230667Y-147055000D01*
X119513333Y-147055000D01*
X119931909Y-146971740D01*
X120406577Y-146654577D01*
X120723740Y-146179909D01*
X120835113Y-145620000D01*
X137228887Y-145620000D01*
X137340260Y-146179909D01*
X137657423Y-146654577D01*
X138132091Y-146971740D01*
X138550667Y-147055000D01*
X139833333Y-147055000D01*
X140251909Y-146971740D01*
X140726577Y-146654577D01*
X141043740Y-146179909D01*
X141155113Y-145620000D01*
X141043740Y-145060091D01*
X140726577Y-144585423D01*
X140251909Y-144268260D01*
X139833333Y-144185000D01*
X138550667Y-144185000D01*
X138132091Y-144268260D01*
X137657423Y-144585423D01*
X137340260Y-145060091D01*
X137228887Y-145620000D01*
X120835113Y-145620000D01*
X120723740Y-145060091D01*
X120406577Y-144585423D01*
X119931909Y-144268260D01*
X119513333Y-144185000D01*
X118230667Y-144185000D01*
X117812091Y-144268260D01*
X117337423Y-144585423D01*
X117020260Y-145060091D01*
X116908887Y-145620000D01*
X89610000Y-145620000D01*
X89610000Y-134795126D01*
X112630000Y-134795126D01*
X112630000Y-135206874D01*
X112787569Y-135587280D01*
X113078720Y-135878431D01*
X113459126Y-136036000D01*
X113487693Y-136036000D01*
X113572130Y-136092419D01*
X113831444Y-136144000D01*
X113831448Y-136144000D01*
X113918999Y-136161415D01*
X114006550Y-136144000D01*
X117589075Y-136144000D01*
X117323471Y-136321471D01*
X117017359Y-136779600D01*
X116909867Y-137320000D01*
X117017359Y-137860400D01*
X117323471Y-138318529D01*
X117781600Y-138624641D01*
X118185593Y-138705000D01*
X119558407Y-138705000D01*
X119962400Y-138624641D01*
X120420529Y-138318529D01*
X120726641Y-137860400D01*
X120832247Y-137329482D01*
X121483471Y-137980707D01*
X121533067Y-138054933D01*
X121827130Y-138251419D01*
X122086444Y-138303000D01*
X122173999Y-138320416D01*
X122261554Y-138303000D01*
X124536650Y-138303000D01*
X124889126Y-138449000D01*
X125300874Y-138449000D01*
X125681280Y-138291431D01*
X125972431Y-138000280D01*
X126130000Y-137619874D01*
X126130000Y-137320000D01*
X137229867Y-137320000D01*
X137337359Y-137860400D01*
X137643471Y-138318529D01*
X138101600Y-138624641D01*
X138505593Y-138705000D01*
X139878407Y-138705000D01*
X140282400Y-138624641D01*
X140740529Y-138318529D01*
X141046641Y-137860400D01*
X141154133Y-137320000D01*
X141046641Y-136779600D01*
X140740529Y-136321471D01*
X140282400Y-136015359D01*
X139878407Y-135935000D01*
X138505593Y-135935000D01*
X138101600Y-136015359D01*
X137643471Y-136321471D01*
X137337359Y-136779600D01*
X137229867Y-137320000D01*
X126130000Y-137320000D01*
X126130000Y-137208126D01*
X125972431Y-136827720D01*
X125681280Y-136536569D01*
X125300874Y-136379000D01*
X124889126Y-136379000D01*
X124536650Y-136525000D01*
X122542236Y-136525000D01*
X120705531Y-134688296D01*
X120655933Y-134614067D01*
X120361870Y-134417581D01*
X120102556Y-134366000D01*
X120102555Y-134366000D01*
X120015000Y-134348584D01*
X119927445Y-134366000D01*
X114493711Y-134366000D01*
X114251280Y-134123569D01*
X113870874Y-133966000D01*
X113459126Y-133966000D01*
X113078720Y-134123569D01*
X112787569Y-134414720D01*
X112630000Y-134795126D01*
X89610000Y-134795126D01*
X89610000Y-133446626D01*
X96706500Y-133446626D01*
X96706500Y-133858374D01*
X96864069Y-134238780D01*
X97155220Y-134529931D01*
X97535626Y-134687500D01*
X97947374Y-134687500D01*
X98327780Y-134529931D01*
X98618931Y-134238780D01*
X98764931Y-133886305D01*
X98920236Y-133731000D01*
X104560445Y-133731000D01*
X104648000Y-133748416D01*
X104735555Y-133731000D01*
X104735556Y-133731000D01*
X104994870Y-133679419D01*
X105288933Y-133482933D01*
X105338531Y-133408704D01*
X105643805Y-133103431D01*
X105996280Y-132957431D01*
X106287431Y-132666280D01*
X106445000Y-132285874D01*
X106445000Y-131874126D01*
X106287431Y-131493720D01*
X105996280Y-131202569D01*
X105615874Y-131045000D01*
X105204126Y-131045000D01*
X104823720Y-131202569D01*
X104532569Y-131493720D01*
X104386569Y-131846195D01*
X104279765Y-131953000D01*
X98639554Y-131953000D01*
X98551999Y-131935584D01*
X98464444Y-131953000D01*
X98205130Y-132004581D01*
X97911067Y-132201067D01*
X97861471Y-132275294D01*
X97507695Y-132629069D01*
X97155220Y-132775069D01*
X96864069Y-133066220D01*
X96706500Y-133446626D01*
X89610000Y-133446626D01*
X89610000Y-128749039D01*
X96760096Y-128749039D01*
X96777633Y-128831819D01*
X97047500Y-129324896D01*
X97485517Y-129677166D01*
X98025000Y-129835000D01*
X98425000Y-129835000D01*
X98425000Y-128527000D01*
X98679000Y-128527000D01*
X98679000Y-129835000D01*
X99079000Y-129835000D01*
X99618483Y-129677166D01*
X100056500Y-129324896D01*
X100171553Y-129114680D01*
X114837000Y-129114680D01*
X114837000Y-129725340D01*
X115070690Y-130289517D01*
X115502493Y-130721320D01*
X116066670Y-130955010D01*
X116677330Y-130955010D01*
X117241507Y-130721320D01*
X117642000Y-130320827D01*
X118042493Y-130721320D01*
X118606670Y-130955010D01*
X119217330Y-130955010D01*
X119781507Y-130721320D01*
X120142000Y-130360827D01*
X120502493Y-130721320D01*
X121066670Y-130955010D01*
X121677330Y-130955010D01*
X122241507Y-130721320D01*
X122673310Y-130289517D01*
X122907000Y-129725340D01*
X122907000Y-129114680D01*
X135157000Y-129114680D01*
X135157000Y-129725340D01*
X135390690Y-130289517D01*
X135822493Y-130721320D01*
X136386670Y-130955010D01*
X136997330Y-130955010D01*
X137561507Y-130721320D01*
X137962000Y-130320827D01*
X138362493Y-130721320D01*
X138926670Y-130955010D01*
X139537330Y-130955010D01*
X140101507Y-130721320D01*
X140462000Y-130360827D01*
X140822493Y-130721320D01*
X141386670Y-130955010D01*
X141997330Y-130955010D01*
X142561507Y-130721320D01*
X142993310Y-130289517D01*
X143227000Y-129725340D01*
X143227000Y-129114680D01*
X142993310Y-128550503D01*
X142561507Y-128118700D01*
X141997330Y-127885010D01*
X141386670Y-127885010D01*
X140822493Y-128118700D01*
X140462000Y-128479193D01*
X140101507Y-128118700D01*
X139537330Y-127885010D01*
X138926670Y-127885010D01*
X138362493Y-128118700D01*
X137962000Y-128519193D01*
X137561507Y-128118700D01*
X136997330Y-127885010D01*
X136386670Y-127885010D01*
X135822493Y-128118700D01*
X135390690Y-128550503D01*
X135157000Y-129114680D01*
X122907000Y-129114680D01*
X122673310Y-128550503D01*
X122241507Y-128118700D01*
X121677330Y-127885010D01*
X121066670Y-127885010D01*
X120502493Y-128118700D01*
X120142000Y-128479193D01*
X119781507Y-128118700D01*
X119217330Y-127885010D01*
X118606670Y-127885010D01*
X118042493Y-128118700D01*
X117642000Y-128519193D01*
X117241507Y-128118700D01*
X116677330Y-127885010D01*
X116066670Y-127885010D01*
X115502493Y-128118700D01*
X115070690Y-128550503D01*
X114837000Y-129114680D01*
X100171553Y-129114680D01*
X100326367Y-128831819D01*
X100343904Y-128749039D01*
X100221915Y-128527000D01*
X98679000Y-128527000D01*
X98425000Y-128527000D01*
X96882085Y-128527000D01*
X96760096Y-128749039D01*
X89610000Y-128749039D01*
X89610000Y-128050961D01*
X96760096Y-128050961D01*
X96882085Y-128273000D01*
X98425000Y-128273000D01*
X98425000Y-126965000D01*
X98679000Y-126965000D01*
X98679000Y-128273000D01*
X100221915Y-128273000D01*
X100343904Y-128050961D01*
X100326367Y-127968181D01*
X100056500Y-127475104D01*
X99618483Y-127122834D01*
X99079000Y-126965000D01*
X98679000Y-126965000D01*
X98425000Y-126965000D01*
X98025000Y-126965000D01*
X97485517Y-127122834D01*
X97047500Y-127475104D01*
X96777633Y-127968181D01*
X96760096Y-128050961D01*
X89610000Y-128050961D01*
X89610000Y-126794126D01*
X101943000Y-126794126D01*
X101943000Y-127205874D01*
X102100569Y-127586280D01*
X102391720Y-127877431D01*
X102772126Y-128035000D01*
X103183874Y-128035000D01*
X103536350Y-127889000D01*
X106121650Y-127889000D01*
X106474126Y-128035000D01*
X106885874Y-128035000D01*
X107266280Y-127877431D01*
X107557431Y-127586280D01*
X107715000Y-127205874D01*
X107715000Y-126794126D01*
X107557431Y-126413720D01*
X107266280Y-126122569D01*
X106885874Y-125965000D01*
X106474126Y-125965000D01*
X106121650Y-126111000D01*
X103536350Y-126111000D01*
X103183874Y-125965000D01*
X102772126Y-125965000D01*
X102391720Y-126122569D01*
X102100569Y-126413720D01*
X101943000Y-126794126D01*
X89610000Y-126794126D01*
X89610000Y-125300000D01*
X96588887Y-125300000D01*
X96700260Y-125859909D01*
X97017423Y-126334577D01*
X97492091Y-126651740D01*
X97910667Y-126735000D01*
X99193333Y-126735000D01*
X99611909Y-126651740D01*
X100086577Y-126334577D01*
X100403740Y-125859909D01*
X100515113Y-125300000D01*
X100509171Y-125270126D01*
X112884000Y-125270126D01*
X112884000Y-125681874D01*
X113041569Y-126062280D01*
X113332720Y-126353431D01*
X113713126Y-126511000D01*
X114124874Y-126511000D01*
X114431482Y-126383999D01*
X123247651Y-126383999D01*
X123600127Y-126529999D01*
X124011875Y-126529999D01*
X124392281Y-126372430D01*
X124683432Y-126081279D01*
X124841001Y-125700873D01*
X124841001Y-125289125D01*
X124683432Y-124908719D01*
X124392281Y-124617568D01*
X124011875Y-124459999D01*
X123600127Y-124459999D01*
X123247651Y-124605999D01*
X114512710Y-124605999D01*
X114505280Y-124598569D01*
X114124874Y-124441000D01*
X113713126Y-124441000D01*
X113332720Y-124598569D01*
X113041569Y-124889720D01*
X112884000Y-125270126D01*
X100509171Y-125270126D01*
X100403740Y-124740091D01*
X100086577Y-124265423D01*
X99611909Y-123948260D01*
X99193333Y-123865000D01*
X97910667Y-123865000D01*
X97492091Y-123948260D01*
X97017423Y-124265423D01*
X96700260Y-124740091D01*
X96588887Y-125300000D01*
X89610000Y-125300000D01*
X89610000Y-121920000D01*
X111903010Y-121920000D01*
X112037666Y-122596963D01*
X112421135Y-123170865D01*
X112995037Y-123554334D01*
X113501120Y-123655000D01*
X114642880Y-123655000D01*
X115148963Y-123554334D01*
X115722865Y-123170865D01*
X116106334Y-122596963D01*
X116240990Y-121920000D01*
X121503010Y-121920000D01*
X121637666Y-122596963D01*
X122021135Y-123170865D01*
X122595037Y-123554334D01*
X123101120Y-123655000D01*
X124242880Y-123655000D01*
X124748963Y-123554334D01*
X125322865Y-123170865D01*
X125706334Y-122596963D01*
X125840990Y-121920000D01*
X132223010Y-121920000D01*
X132357666Y-122596963D01*
X132741135Y-123170865D01*
X133315037Y-123554334D01*
X133821120Y-123655000D01*
X134962880Y-123655000D01*
X135468963Y-123554334D01*
X136042865Y-123170865D01*
X136426334Y-122596963D01*
X136560990Y-121920000D01*
X141823010Y-121920000D01*
X141957666Y-122596963D01*
X142341135Y-123170865D01*
X142915037Y-123554334D01*
X143421120Y-123655000D01*
X144562880Y-123655000D01*
X145068963Y-123554334D01*
X145642865Y-123170865D01*
X146026334Y-122596963D01*
X146160990Y-121920000D01*
X146026334Y-121243037D01*
X145642865Y-120669135D01*
X145068963Y-120285666D01*
X144562880Y-120185000D01*
X143421120Y-120185000D01*
X142915037Y-120285666D01*
X142341135Y-120669135D01*
X141957666Y-121243037D01*
X141823010Y-121920000D01*
X136560990Y-121920000D01*
X136426334Y-121243037D01*
X136042865Y-120669135D01*
X135468963Y-120285666D01*
X134962880Y-120185000D01*
X133821120Y-120185000D01*
X133315037Y-120285666D01*
X132741135Y-120669135D01*
X132357666Y-121243037D01*
X132223010Y-121920000D01*
X125840990Y-121920000D01*
X125706334Y-121243037D01*
X125322865Y-120669135D01*
X124748963Y-120285666D01*
X124242880Y-120185000D01*
X123101120Y-120185000D01*
X122595037Y-120285666D01*
X122021135Y-120669135D01*
X121637666Y-121243037D01*
X121503010Y-121920000D01*
X116240990Y-121920000D01*
X116106334Y-121243037D01*
X115722865Y-120669135D01*
X115148963Y-120285666D01*
X114642880Y-120185000D01*
X113501120Y-120185000D01*
X112995037Y-120285666D01*
X112421135Y-120669135D01*
X112037666Y-121243037D01*
X111903010Y-121920000D01*
X89610000Y-121920000D01*
X89610000Y-117000000D01*
X96589867Y-117000000D01*
X96697359Y-117540400D01*
X97003471Y-117998529D01*
X97461600Y-118304641D01*
X97865593Y-118385000D01*
X99238407Y-118385000D01*
X99642400Y-118304641D01*
X100100529Y-117998529D01*
X100406641Y-117540400D01*
X100514133Y-117000000D01*
X100406641Y-116459600D01*
X100100529Y-116001471D01*
X99642400Y-115695359D01*
X99238407Y-115615000D01*
X97865593Y-115615000D01*
X97461600Y-115695359D01*
X97003471Y-116001471D01*
X96697359Y-116459600D01*
X96589867Y-117000000D01*
X89610000Y-117000000D01*
X89610000Y-108429039D01*
X96760096Y-108429039D01*
X96777633Y-108511819D01*
X97047500Y-109004896D01*
X97485517Y-109357166D01*
X98025000Y-109515000D01*
X98425000Y-109515000D01*
X98425000Y-108207000D01*
X98679000Y-108207000D01*
X98679000Y-109515000D01*
X99079000Y-109515000D01*
X99618483Y-109357166D01*
X100056500Y-109004896D01*
X100171553Y-108794680D01*
X114837000Y-108794680D01*
X114837000Y-109405340D01*
X115070690Y-109969517D01*
X115502493Y-110401320D01*
X116066670Y-110635010D01*
X116677330Y-110635010D01*
X117241507Y-110401320D01*
X117642000Y-110000827D01*
X118042493Y-110401320D01*
X118606670Y-110635010D01*
X119217330Y-110635010D01*
X119781507Y-110401320D01*
X120142000Y-110040827D01*
X120502493Y-110401320D01*
X121066670Y-110635010D01*
X121677330Y-110635010D01*
X122241507Y-110401320D01*
X122673310Y-109969517D01*
X122907000Y-109405340D01*
X122907000Y-108794680D01*
X135157000Y-108794680D01*
X135157000Y-109405340D01*
X135390690Y-109969517D01*
X135822493Y-110401320D01*
X136386670Y-110635010D01*
X136997330Y-110635010D01*
X137561507Y-110401320D01*
X137962000Y-110000827D01*
X138362493Y-110401320D01*
X138926670Y-110635010D01*
X139537330Y-110635010D01*
X140101507Y-110401320D01*
X140462000Y-110040827D01*
X140822493Y-110401320D01*
X141386670Y-110635010D01*
X141997330Y-110635010D01*
X142561507Y-110401320D01*
X142993310Y-109969517D01*
X143227000Y-109405340D01*
X143227000Y-108794680D01*
X142993310Y-108230503D01*
X142561507Y-107798700D01*
X141997330Y-107565010D01*
X141386670Y-107565010D01*
X140822493Y-107798700D01*
X140462000Y-108159193D01*
X140101507Y-107798700D01*
X139537330Y-107565010D01*
X138926670Y-107565010D01*
X138362493Y-107798700D01*
X137962000Y-108199193D01*
X137561507Y-107798700D01*
X136997330Y-107565010D01*
X136386670Y-107565010D01*
X135822493Y-107798700D01*
X135390690Y-108230503D01*
X135157000Y-108794680D01*
X122907000Y-108794680D01*
X122673310Y-108230503D01*
X122241507Y-107798700D01*
X121677330Y-107565010D01*
X121066670Y-107565010D01*
X120502493Y-107798700D01*
X120142000Y-108159193D01*
X119781507Y-107798700D01*
X119217330Y-107565010D01*
X118606670Y-107565010D01*
X118042493Y-107798700D01*
X117642000Y-108199193D01*
X117241507Y-107798700D01*
X116677330Y-107565010D01*
X116066670Y-107565010D01*
X115502493Y-107798700D01*
X115070690Y-108230503D01*
X114837000Y-108794680D01*
X100171553Y-108794680D01*
X100326367Y-108511819D01*
X100343904Y-108429039D01*
X100221915Y-108207000D01*
X98679000Y-108207000D01*
X98425000Y-108207000D01*
X96882085Y-108207000D01*
X96760096Y-108429039D01*
X89610000Y-108429039D01*
X89610000Y-107730961D01*
X96760096Y-107730961D01*
X96882085Y-107953000D01*
X98425000Y-107953000D01*
X98425000Y-106645000D01*
X98679000Y-106645000D01*
X98679000Y-107953000D01*
X100221915Y-107953000D01*
X100343904Y-107730961D01*
X100326367Y-107648181D01*
X100056500Y-107155104D01*
X99618483Y-106802834D01*
X99079000Y-106645000D01*
X98679000Y-106645000D01*
X98425000Y-106645000D01*
X98025000Y-106645000D01*
X97485517Y-106802834D01*
X97047500Y-107155104D01*
X96777633Y-107648181D01*
X96760096Y-107730961D01*
X89610000Y-107730961D01*
X89610000Y-104980000D01*
X96588887Y-104980000D01*
X96700260Y-105539909D01*
X97017423Y-106014577D01*
X97492091Y-106331740D01*
X97910667Y-106415000D01*
X99193333Y-106415000D01*
X99611909Y-106331740D01*
X100086577Y-106014577D01*
X100403740Y-105539909D01*
X100420007Y-105458126D01*
X113011000Y-105458126D01*
X113011000Y-105869874D01*
X113168569Y-106250280D01*
X113459720Y-106541431D01*
X113840126Y-106699000D01*
X114251874Y-106699000D01*
X114604350Y-106553000D01*
X123393650Y-106553000D01*
X123746126Y-106699000D01*
X124157874Y-106699000D01*
X124538280Y-106541431D01*
X124829431Y-106250280D01*
X124987000Y-105869874D01*
X124987000Y-105458126D01*
X124829431Y-105077720D01*
X124538280Y-104786569D01*
X124157874Y-104629000D01*
X123746126Y-104629000D01*
X123393650Y-104775000D01*
X114604350Y-104775000D01*
X114251874Y-104629000D01*
X113840126Y-104629000D01*
X113459720Y-104786569D01*
X113168569Y-105077720D01*
X113011000Y-105458126D01*
X100420007Y-105458126D01*
X100515113Y-104980000D01*
X100403740Y-104420091D01*
X100086577Y-103945423D01*
X99611909Y-103628260D01*
X99193333Y-103545000D01*
X97910667Y-103545000D01*
X97492091Y-103628260D01*
X97017423Y-103945423D01*
X96700260Y-104420091D01*
X96588887Y-104980000D01*
X89610000Y-104980000D01*
X89610000Y-101600000D01*
X111903010Y-101600000D01*
X112037666Y-102276963D01*
X112421135Y-102850865D01*
X112995037Y-103234334D01*
X113501120Y-103335000D01*
X114642880Y-103335000D01*
X115148963Y-103234334D01*
X115722865Y-102850865D01*
X116106334Y-102276963D01*
X116240990Y-101600000D01*
X121503010Y-101600000D01*
X121637666Y-102276963D01*
X122021135Y-102850865D01*
X122595037Y-103234334D01*
X123101120Y-103335000D01*
X124242880Y-103335000D01*
X124748963Y-103234334D01*
X125322865Y-102850865D01*
X125706334Y-102276963D01*
X125840990Y-101600000D01*
X132223010Y-101600000D01*
X132357666Y-102276963D01*
X132741135Y-102850865D01*
X133315037Y-103234334D01*
X133821120Y-103335000D01*
X134962880Y-103335000D01*
X135468963Y-103234334D01*
X136042865Y-102850865D01*
X136426334Y-102276963D01*
X136560990Y-101600000D01*
X141823010Y-101600000D01*
X141957666Y-102276963D01*
X142341135Y-102850865D01*
X142915037Y-103234334D01*
X143421120Y-103335000D01*
X144562880Y-103335000D01*
X145068963Y-103234334D01*
X145642865Y-102850865D01*
X146026334Y-102276963D01*
X146160990Y-101600000D01*
X146026334Y-100923037D01*
X145642865Y-100349135D01*
X145068963Y-99965666D01*
X144562880Y-99865000D01*
X143421120Y-99865000D01*
X142915037Y-99965666D01*
X142341135Y-100349135D01*
X141957666Y-100923037D01*
X141823010Y-101600000D01*
X136560990Y-101600000D01*
X136426334Y-100923037D01*
X136042865Y-100349135D01*
X135468963Y-99965666D01*
X134962880Y-99865000D01*
X133821120Y-99865000D01*
X133315037Y-99965666D01*
X132741135Y-100349135D01*
X132357666Y-100923037D01*
X132223010Y-101600000D01*
X125840990Y-101600000D01*
X125706334Y-100923037D01*
X125322865Y-100349135D01*
X124748963Y-99965666D01*
X124242880Y-99865000D01*
X123101120Y-99865000D01*
X122595037Y-99965666D01*
X122021135Y-100349135D01*
X121637666Y-100923037D01*
X121503010Y-101600000D01*
X116240990Y-101600000D01*
X116106334Y-100923037D01*
X115722865Y-100349135D01*
X115148963Y-99965666D01*
X114642880Y-99865000D01*
X113501120Y-99865000D01*
X112995037Y-99965666D01*
X112421135Y-100349135D01*
X112037666Y-100923037D01*
X111903010Y-101600000D01*
X89610000Y-101600000D01*
X89610000Y-96680000D01*
X96589867Y-96680000D01*
X96697359Y-97220400D01*
X97003471Y-97678529D01*
X97461600Y-97984641D01*
X97865593Y-98065000D01*
X99238407Y-98065000D01*
X99642400Y-97984641D01*
X100100529Y-97678529D01*
X100406641Y-97220400D01*
X100514133Y-96680000D01*
X100406641Y-96139600D01*
X100100529Y-95681471D01*
X99642400Y-95375359D01*
X99238407Y-95295000D01*
X97865593Y-95295000D01*
X97461600Y-95375359D01*
X97003471Y-95681471D01*
X96697359Y-96139600D01*
X96589867Y-96680000D01*
X89610000Y-96680000D01*
X89610000Y-88109039D01*
X96760096Y-88109039D01*
X96777633Y-88191819D01*
X97047500Y-88684896D01*
X97485517Y-89037166D01*
X98025000Y-89195000D01*
X98425000Y-89195000D01*
X98425000Y-87887000D01*
X98679000Y-87887000D01*
X98679000Y-89195000D01*
X99079000Y-89195000D01*
X99618483Y-89037166D01*
X100056500Y-88684896D01*
X100171553Y-88474680D01*
X114837000Y-88474680D01*
X114837000Y-89085340D01*
X115070690Y-89649517D01*
X115502493Y-90081320D01*
X116066670Y-90315010D01*
X116677330Y-90315010D01*
X117241507Y-90081320D01*
X117642000Y-89680827D01*
X118042493Y-90081320D01*
X118606670Y-90315010D01*
X119217330Y-90315010D01*
X119781507Y-90081320D01*
X120142000Y-89720827D01*
X120502493Y-90081320D01*
X121066670Y-90315010D01*
X121677330Y-90315010D01*
X122241507Y-90081320D01*
X122673310Y-89649517D01*
X122907000Y-89085340D01*
X122907000Y-88474680D01*
X135157000Y-88474680D01*
X135157000Y-89085340D01*
X135390690Y-89649517D01*
X135822493Y-90081320D01*
X136386670Y-90315010D01*
X136997330Y-90315010D01*
X137561507Y-90081320D01*
X137962000Y-89680827D01*
X138362493Y-90081320D01*
X138926670Y-90315010D01*
X139537330Y-90315010D01*
X140101507Y-90081320D01*
X140462000Y-89720827D01*
X140822493Y-90081320D01*
X141386670Y-90315010D01*
X141997330Y-90315010D01*
X142561507Y-90081320D01*
X142993310Y-89649517D01*
X143227000Y-89085340D01*
X143227000Y-88474680D01*
X142993310Y-87910503D01*
X142561507Y-87478700D01*
X141997330Y-87245010D01*
X141386670Y-87245010D01*
X140822493Y-87478700D01*
X140462000Y-87839193D01*
X140101507Y-87478700D01*
X139537330Y-87245010D01*
X138926670Y-87245010D01*
X138362493Y-87478700D01*
X137962000Y-87879193D01*
X137561507Y-87478700D01*
X136997330Y-87245010D01*
X136386670Y-87245010D01*
X135822493Y-87478700D01*
X135390690Y-87910503D01*
X135157000Y-88474680D01*
X122907000Y-88474680D01*
X122673310Y-87910503D01*
X122241507Y-87478700D01*
X121677330Y-87245010D01*
X121066670Y-87245010D01*
X120502493Y-87478700D01*
X120142000Y-87839193D01*
X119781507Y-87478700D01*
X119217330Y-87245010D01*
X118606670Y-87245010D01*
X118042493Y-87478700D01*
X117642000Y-87879193D01*
X117241507Y-87478700D01*
X116677330Y-87245010D01*
X116066670Y-87245010D01*
X115502493Y-87478700D01*
X115070690Y-87910503D01*
X114837000Y-88474680D01*
X100171553Y-88474680D01*
X100326367Y-88191819D01*
X100343904Y-88109039D01*
X100221915Y-87887000D01*
X98679000Y-87887000D01*
X98425000Y-87887000D01*
X96882085Y-87887000D01*
X96760096Y-88109039D01*
X89610000Y-88109039D01*
X89610000Y-87410961D01*
X96760096Y-87410961D01*
X96882085Y-87633000D01*
X98425000Y-87633000D01*
X98425000Y-86325000D01*
X98679000Y-86325000D01*
X98679000Y-87633000D01*
X100221915Y-87633000D01*
X100343904Y-87410961D01*
X100326367Y-87328181D01*
X100056500Y-86835104D01*
X99618483Y-86482834D01*
X99079000Y-86325000D01*
X98679000Y-86325000D01*
X98425000Y-86325000D01*
X98025000Y-86325000D01*
X97485517Y-86482834D01*
X97047500Y-86835104D01*
X96777633Y-87328181D01*
X96760096Y-87410961D01*
X89610000Y-87410961D01*
X89610000Y-84660000D01*
X96588887Y-84660000D01*
X96700260Y-85219909D01*
X97017423Y-85694577D01*
X97492091Y-86011740D01*
X97910667Y-86095000D01*
X99193333Y-86095000D01*
X99611909Y-86011740D01*
X100086577Y-85694577D01*
X100288668Y-85392126D01*
X113011000Y-85392126D01*
X113011000Y-85803874D01*
X113168569Y-86184280D01*
X113459720Y-86475431D01*
X113840126Y-86633000D01*
X114251874Y-86633000D01*
X114604350Y-86487000D01*
X123266650Y-86487000D01*
X123619126Y-86633000D01*
X124030874Y-86633000D01*
X124411280Y-86475431D01*
X124702431Y-86184280D01*
X124860000Y-85803874D01*
X124860000Y-85392126D01*
X124702431Y-85011720D01*
X124411280Y-84720569D01*
X124030874Y-84563000D01*
X123619126Y-84563000D01*
X123266650Y-84709000D01*
X114604350Y-84709000D01*
X114251874Y-84563000D01*
X113840126Y-84563000D01*
X113459720Y-84720569D01*
X113168569Y-85011720D01*
X113011000Y-85392126D01*
X100288668Y-85392126D01*
X100403740Y-85219909D01*
X100515113Y-84660000D01*
X100403740Y-84100091D01*
X100086577Y-83625423D01*
X99611909Y-83308260D01*
X99193333Y-83225000D01*
X97910667Y-83225000D01*
X97492091Y-83308260D01*
X97017423Y-83625423D01*
X96700260Y-84100091D01*
X96588887Y-84660000D01*
X89610000Y-84660000D01*
X89610000Y-76360000D01*
X96589867Y-76360000D01*
X96697359Y-76900400D01*
X97003471Y-77358529D01*
X97461600Y-77664641D01*
X97865593Y-77745000D01*
X99238407Y-77745000D01*
X99642400Y-77664641D01*
X100100529Y-77358529D01*
X100100835Y-77358071D01*
X102362000Y-79619236D01*
X102362001Y-81991648D01*
X102216000Y-82344126D01*
X102216000Y-82755874D01*
X102373569Y-83136280D01*
X102664720Y-83427431D01*
X103045126Y-83585000D01*
X103456874Y-83585000D01*
X103837280Y-83427431D01*
X104128431Y-83136280D01*
X104286000Y-82755874D01*
X104286000Y-82344126D01*
X104140000Y-81991650D01*
X104140000Y-81280000D01*
X111903010Y-81280000D01*
X112037666Y-81956963D01*
X112421135Y-82530865D01*
X112995037Y-82914334D01*
X113501120Y-83015000D01*
X114642880Y-83015000D01*
X115148963Y-82914334D01*
X115722865Y-82530865D01*
X116106334Y-81956963D01*
X116240990Y-81280000D01*
X121503010Y-81280000D01*
X121637666Y-81956963D01*
X122021135Y-82530865D01*
X122595037Y-82914334D01*
X123101120Y-83015000D01*
X124242880Y-83015000D01*
X124748963Y-82914334D01*
X125322865Y-82530865D01*
X125706334Y-81956963D01*
X125840990Y-81280000D01*
X132223010Y-81280000D01*
X132357666Y-81956963D01*
X132741135Y-82530865D01*
X133315037Y-82914334D01*
X133821120Y-83015000D01*
X134962880Y-83015000D01*
X135468963Y-82914334D01*
X136042865Y-82530865D01*
X136426334Y-81956963D01*
X136560990Y-81280000D01*
X141823010Y-81280000D01*
X141957666Y-81956963D01*
X142341135Y-82530865D01*
X142915037Y-82914334D01*
X143421120Y-83015000D01*
X144562880Y-83015000D01*
X145068963Y-82914334D01*
X145642865Y-82530865D01*
X146026334Y-81956963D01*
X146160990Y-81280000D01*
X146026334Y-80603037D01*
X145642865Y-80029135D01*
X145068963Y-79645666D01*
X144562880Y-79545000D01*
X143421120Y-79545000D01*
X142915037Y-79645666D01*
X142341135Y-80029135D01*
X141957666Y-80603037D01*
X141823010Y-81280000D01*
X136560990Y-81280000D01*
X136426334Y-80603037D01*
X136042865Y-80029135D01*
X135468963Y-79645666D01*
X134962880Y-79545000D01*
X133821120Y-79545000D01*
X133315037Y-79645666D01*
X132741135Y-80029135D01*
X132357666Y-80603037D01*
X132223010Y-81280000D01*
X125840990Y-81280000D01*
X125706334Y-80603037D01*
X125322865Y-80029135D01*
X124748963Y-79645666D01*
X124242880Y-79545000D01*
X123101120Y-79545000D01*
X122595037Y-79645666D01*
X122021135Y-80029135D01*
X121637666Y-80603037D01*
X121503010Y-81280000D01*
X116240990Y-81280000D01*
X116106334Y-80603037D01*
X115722865Y-80029135D01*
X115148963Y-79645666D01*
X114642880Y-79545000D01*
X113501120Y-79545000D01*
X112995037Y-79645666D01*
X112421135Y-80029135D01*
X112037666Y-80603037D01*
X111903010Y-81280000D01*
X104140000Y-81280000D01*
X104140000Y-79338550D01*
X104157415Y-79250999D01*
X104140000Y-79163448D01*
X104140000Y-79163444D01*
X104088419Y-78904130D01*
X103891933Y-78610067D01*
X103817707Y-78560471D01*
X101050531Y-75793296D01*
X101000933Y-75719067D01*
X100706870Y-75522581D01*
X100447556Y-75471000D01*
X100447555Y-75471000D01*
X100360000Y-75453584D01*
X100272445Y-75471000D01*
X100173714Y-75471000D01*
X100100529Y-75361471D01*
X99642400Y-75055359D01*
X99238407Y-74975000D01*
X97865593Y-74975000D01*
X97461600Y-75055359D01*
X97003471Y-75361471D01*
X96697359Y-75819600D01*
X96589867Y-76360000D01*
X89610000Y-76360000D01*
X89610000Y-67789039D01*
X96760096Y-67789039D01*
X96777633Y-67871819D01*
X97047500Y-68364896D01*
X97485517Y-68717166D01*
X98025000Y-68875000D01*
X98425000Y-68875000D01*
X98425000Y-67567000D01*
X98679000Y-67567000D01*
X98679000Y-68875000D01*
X99079000Y-68875000D01*
X99618483Y-68717166D01*
X100056500Y-68364896D01*
X100326367Y-67871819D01*
X100343904Y-67789039D01*
X100221915Y-67567000D01*
X98679000Y-67567000D01*
X98425000Y-67567000D01*
X96882085Y-67567000D01*
X96760096Y-67789039D01*
X89610000Y-67789039D01*
X89610000Y-67090961D01*
X96760096Y-67090961D01*
X96882085Y-67313000D01*
X98425000Y-67313000D01*
X98425000Y-66005000D01*
X98679000Y-66005000D01*
X98679000Y-67313000D01*
X100221915Y-67313000D01*
X100343904Y-67090961D01*
X100326367Y-67008181D01*
X100056500Y-66515104D01*
X99618483Y-66162834D01*
X99079000Y-66005000D01*
X98679000Y-66005000D01*
X98425000Y-66005000D01*
X98025000Y-66005000D01*
X97485517Y-66162834D01*
X97047500Y-66515104D01*
X96777633Y-67008181D01*
X96760096Y-67090961D01*
X89610000Y-67090961D01*
X89610000Y-65825000D01*
X104674560Y-65825000D01*
X104674560Y-67525000D01*
X104723843Y-67772765D01*
X104864191Y-67982809D01*
X105074235Y-68123157D01*
X105322000Y-68172440D01*
X107022000Y-68172440D01*
X107269765Y-68123157D01*
X107479809Y-67982809D01*
X107620157Y-67772765D01*
X107629184Y-67727381D01*
X107641375Y-67745625D01*
X108132582Y-68073839D01*
X108565744Y-68160000D01*
X108858256Y-68160000D01*
X108885001Y-68154680D01*
X114837000Y-68154680D01*
X114837000Y-68765340D01*
X115070690Y-69329517D01*
X115502493Y-69761320D01*
X116066670Y-69995010D01*
X116677330Y-69995010D01*
X117241507Y-69761320D01*
X117642000Y-69360827D01*
X118042493Y-69761320D01*
X118606670Y-69995010D01*
X119217330Y-69995010D01*
X119781507Y-69761320D01*
X120142000Y-69400827D01*
X120502493Y-69761320D01*
X121066670Y-69995010D01*
X121677330Y-69995010D01*
X122241507Y-69761320D01*
X122673310Y-69329517D01*
X122907000Y-68765340D01*
X122907000Y-68154680D01*
X135157000Y-68154680D01*
X135157000Y-68765340D01*
X135390690Y-69329517D01*
X135822493Y-69761320D01*
X136386670Y-69995010D01*
X136997330Y-69995010D01*
X137561507Y-69761320D01*
X137962000Y-69360827D01*
X138362493Y-69761320D01*
X138926670Y-69995010D01*
X139537330Y-69995010D01*
X140101507Y-69761320D01*
X140462000Y-69400827D01*
X140822493Y-69761320D01*
X141386670Y-69995010D01*
X141997330Y-69995010D01*
X142561507Y-69761320D01*
X142993310Y-69329517D01*
X143227000Y-68765340D01*
X143227000Y-68154680D01*
X142993310Y-67590503D01*
X142561507Y-67158700D01*
X141997330Y-66925010D01*
X141386670Y-66925010D01*
X140822493Y-67158700D01*
X140462000Y-67519193D01*
X140101507Y-67158700D01*
X139537330Y-66925010D01*
X138926670Y-66925010D01*
X138362493Y-67158700D01*
X137962000Y-67559193D01*
X137561507Y-67158700D01*
X136997330Y-66925010D01*
X136386670Y-66925010D01*
X135822493Y-67158700D01*
X135390690Y-67590503D01*
X135157000Y-68154680D01*
X122907000Y-68154680D01*
X122673310Y-67590503D01*
X122241507Y-67158700D01*
X121677330Y-66925010D01*
X121066670Y-66925010D01*
X120502493Y-67158700D01*
X120142000Y-67519193D01*
X119781507Y-67158700D01*
X119217330Y-66925010D01*
X118606670Y-66925010D01*
X118042493Y-67158700D01*
X117642000Y-67559193D01*
X117241507Y-67158700D01*
X116677330Y-66925010D01*
X116066670Y-66925010D01*
X115502493Y-67158700D01*
X115070690Y-67590503D01*
X114837000Y-68154680D01*
X108885001Y-68154680D01*
X109291418Y-68073839D01*
X109782625Y-67745625D01*
X110110839Y-67254418D01*
X110226092Y-66675000D01*
X110110839Y-66095582D01*
X109782625Y-65604375D01*
X109463522Y-65391157D01*
X109593358Y-65330183D01*
X109983645Y-64901924D01*
X110153476Y-64491890D01*
X110032155Y-64262000D01*
X108839000Y-64262000D01*
X108839000Y-64282000D01*
X108585000Y-64282000D01*
X108585000Y-64262000D01*
X106299000Y-64262000D01*
X106299000Y-64282000D01*
X106045000Y-64282000D01*
X106045000Y-64262000D01*
X104851845Y-64262000D01*
X104730524Y-64491890D01*
X104900355Y-64901924D01*
X105177708Y-65206261D01*
X105074235Y-65226843D01*
X104864191Y-65367191D01*
X104723843Y-65577235D01*
X104674560Y-65825000D01*
X89610000Y-65825000D01*
X89610000Y-64340000D01*
X96588887Y-64340000D01*
X96700260Y-64899909D01*
X97017423Y-65374577D01*
X97492091Y-65691740D01*
X97910667Y-65775000D01*
X99193333Y-65775000D01*
X99611909Y-65691740D01*
X100086577Y-65374577D01*
X100403740Y-64899909D01*
X100515113Y-64340000D01*
X100403740Y-63780091D01*
X100086577Y-63305423D01*
X99611909Y-62988260D01*
X99193333Y-62905000D01*
X97910667Y-62905000D01*
X97492091Y-62988260D01*
X97017423Y-63305423D01*
X96700260Y-63780091D01*
X96588887Y-64340000D01*
X89610000Y-64340000D01*
X89610000Y-61951890D01*
X104730524Y-61951890D01*
X104900355Y-62361924D01*
X105290642Y-62790183D01*
X105449954Y-62865000D01*
X105290642Y-62939817D01*
X104900355Y-63368076D01*
X104730524Y-63778110D01*
X104851845Y-64008000D01*
X106045000Y-64008000D01*
X106045000Y-61722000D01*
X106299000Y-61722000D01*
X106299000Y-64008000D01*
X108585000Y-64008000D01*
X108585000Y-61722000D01*
X108839000Y-61722000D01*
X108839000Y-64008000D01*
X110032155Y-64008000D01*
X110153476Y-63778110D01*
X109983645Y-63368076D01*
X109593358Y-62939817D01*
X109434046Y-62865000D01*
X109593358Y-62790183D01*
X109983645Y-62361924D01*
X110153476Y-61951890D01*
X110032155Y-61722000D01*
X108839000Y-61722000D01*
X108585000Y-61722000D01*
X106299000Y-61722000D01*
X106045000Y-61722000D01*
X104851845Y-61722000D01*
X104730524Y-61951890D01*
X89610000Y-61951890D01*
X89610000Y-59411890D01*
X104730524Y-59411890D01*
X104900355Y-59821924D01*
X105290642Y-60250183D01*
X105449954Y-60325000D01*
X105290642Y-60399817D01*
X104900355Y-60828076D01*
X104730524Y-61238110D01*
X104851845Y-61468000D01*
X106045000Y-61468000D01*
X106045000Y-59182000D01*
X106299000Y-59182000D01*
X106299000Y-61468000D01*
X108585000Y-61468000D01*
X108585000Y-59182000D01*
X108839000Y-59182000D01*
X108839000Y-61468000D01*
X110032155Y-61468000D01*
X110153476Y-61238110D01*
X110038287Y-60960000D01*
X111903010Y-60960000D01*
X112037666Y-61636963D01*
X112421135Y-62210865D01*
X112995037Y-62594334D01*
X113501120Y-62695000D01*
X114642880Y-62695000D01*
X115148963Y-62594334D01*
X115722865Y-62210865D01*
X116106334Y-61636963D01*
X116240990Y-60960000D01*
X121503010Y-60960000D01*
X121637666Y-61636963D01*
X122021135Y-62210865D01*
X122595037Y-62594334D01*
X123101120Y-62695000D01*
X124242880Y-62695000D01*
X124748963Y-62594334D01*
X125322865Y-62210865D01*
X125706334Y-61636963D01*
X125840990Y-60960000D01*
X132223010Y-60960000D01*
X132357666Y-61636963D01*
X132741135Y-62210865D01*
X133315037Y-62594334D01*
X133821120Y-62695000D01*
X134962880Y-62695000D01*
X135468963Y-62594334D01*
X136042865Y-62210865D01*
X136426334Y-61636963D01*
X136560990Y-60960000D01*
X141823010Y-60960000D01*
X141957666Y-61636963D01*
X142341135Y-62210865D01*
X142915037Y-62594334D01*
X143421120Y-62695000D01*
X144562880Y-62695000D01*
X145068963Y-62594334D01*
X145642865Y-62210865D01*
X146026334Y-61636963D01*
X146160990Y-60960000D01*
X146026334Y-60283037D01*
X145642865Y-59709135D01*
X145068963Y-59325666D01*
X144562880Y-59225000D01*
X143421120Y-59225000D01*
X142915037Y-59325666D01*
X142341135Y-59709135D01*
X141957666Y-60283037D01*
X141823010Y-60960000D01*
X136560990Y-60960000D01*
X136426334Y-60283037D01*
X136042865Y-59709135D01*
X135468963Y-59325666D01*
X134962880Y-59225000D01*
X133821120Y-59225000D01*
X133315037Y-59325666D01*
X132741135Y-59709135D01*
X132357666Y-60283037D01*
X132223010Y-60960000D01*
X125840990Y-60960000D01*
X125706334Y-60283037D01*
X125322865Y-59709135D01*
X124748963Y-59325666D01*
X124242880Y-59225000D01*
X123101120Y-59225000D01*
X122595037Y-59325666D01*
X122021135Y-59709135D01*
X121637666Y-60283037D01*
X121503010Y-60960000D01*
X116240990Y-60960000D01*
X116106334Y-60283037D01*
X115722865Y-59709135D01*
X115148963Y-59325666D01*
X114642880Y-59225000D01*
X113501120Y-59225000D01*
X112995037Y-59325666D01*
X112421135Y-59709135D01*
X112037666Y-60283037D01*
X111903010Y-60960000D01*
X110038287Y-60960000D01*
X109983645Y-60828076D01*
X109593358Y-60399817D01*
X109434046Y-60325000D01*
X109593358Y-60250183D01*
X109983645Y-59821924D01*
X110153476Y-59411890D01*
X110032155Y-59182000D01*
X108839000Y-59182000D01*
X108585000Y-59182000D01*
X106299000Y-59182000D01*
X106045000Y-59182000D01*
X104851845Y-59182000D01*
X104730524Y-59411890D01*
X89610000Y-59411890D01*
X89610000Y-56040000D01*
X96589867Y-56040000D01*
X96697359Y-56580400D01*
X97003471Y-57038529D01*
X97461600Y-57344641D01*
X97865593Y-57425000D01*
X99238407Y-57425000D01*
X99642400Y-57344641D01*
X100100529Y-57038529D01*
X100406641Y-56580400D01*
X100419649Y-56515000D01*
X104657908Y-56515000D01*
X104773161Y-57094418D01*
X105101375Y-57585625D01*
X105420478Y-57798843D01*
X105290642Y-57859817D01*
X104900355Y-58288076D01*
X104730524Y-58698110D01*
X104851845Y-58928000D01*
X106045000Y-58928000D01*
X106045000Y-58908000D01*
X106299000Y-58908000D01*
X106299000Y-58928000D01*
X108585000Y-58928000D01*
X108585000Y-58908000D01*
X108839000Y-58908000D01*
X108839000Y-58928000D01*
X110032155Y-58928000D01*
X110153476Y-58698110D01*
X109983645Y-58288076D01*
X109593358Y-57859817D01*
X109463522Y-57798843D01*
X109782625Y-57585625D01*
X110110839Y-57094418D01*
X110226092Y-56515000D01*
X110110839Y-55935582D01*
X109782625Y-55444375D01*
X109291418Y-55116161D01*
X108858256Y-55030000D01*
X108565744Y-55030000D01*
X108132582Y-55116161D01*
X107641375Y-55444375D01*
X107442000Y-55742761D01*
X107242625Y-55444375D01*
X106751418Y-55116161D01*
X106318256Y-55030000D01*
X106025744Y-55030000D01*
X105592582Y-55116161D01*
X105101375Y-55444375D01*
X104773161Y-55935582D01*
X104657908Y-56515000D01*
X100419649Y-56515000D01*
X100514133Y-56040000D01*
X100406641Y-55499600D01*
X100100529Y-55041471D01*
X99642400Y-54735359D01*
X99238407Y-54655000D01*
X97865593Y-54655000D01*
X97461600Y-54735359D01*
X97003471Y-55041471D01*
X96697359Y-55499600D01*
X96589867Y-56040000D01*
X89610000Y-56040000D01*
X89610000Y-52310000D01*
X148090001Y-52310000D01*
X148090000Y-150890000D01*
X148090000Y-150890000D01*
G37*
X148090000Y-150890000D02*
X89610000Y-150890000D01*
X89610000Y-149069039D01*
X117080096Y-149069039D01*
X117097633Y-149151819D01*
X117367500Y-149644896D01*
X117805517Y-149997166D01*
X118345000Y-150155000D01*
X118745000Y-150155000D01*
X118745000Y-148847000D01*
X118999000Y-148847000D01*
X118999000Y-150155000D01*
X119399000Y-150155000D01*
X119938483Y-149997166D01*
X120376500Y-149644896D01*
X120646367Y-149151819D01*
X120663904Y-149069039D01*
X137400096Y-149069039D01*
X137417633Y-149151819D01*
X137687500Y-149644896D01*
X138125517Y-149997166D01*
X138665000Y-150155000D01*
X139065000Y-150155000D01*
X139065000Y-148847000D01*
X139319000Y-148847000D01*
X139319000Y-150155000D01*
X139719000Y-150155000D01*
X140258483Y-149997166D01*
X140696500Y-149644896D01*
X140966367Y-149151819D01*
X140983904Y-149069039D01*
X140861915Y-148847000D01*
X139319000Y-148847000D01*
X139065000Y-148847000D01*
X137522085Y-148847000D01*
X137400096Y-149069039D01*
X120663904Y-149069039D01*
X120541915Y-148847000D01*
X118999000Y-148847000D01*
X118745000Y-148847000D01*
X117202085Y-148847000D01*
X117080096Y-149069039D01*
X89610000Y-149069039D01*
X89610000Y-148370961D01*
X117080096Y-148370961D01*
X117202085Y-148593000D01*
X118745000Y-148593000D01*
X118745000Y-147285000D01*
X118999000Y-147285000D01*
X118999000Y-148593000D01*
X120541915Y-148593000D01*
X120663904Y-148370961D01*
X137400096Y-148370961D01*
X137522085Y-148593000D01*
X139065000Y-148593000D01*
X139065000Y-147285000D01*
X139319000Y-147285000D01*
X139319000Y-148593000D01*
X140861915Y-148593000D01*
X140983904Y-148370961D01*
X140966367Y-148288181D01*
X140696500Y-147795104D01*
X140258483Y-147442834D01*
X139719000Y-147285000D01*
X139319000Y-147285000D01*
X139065000Y-147285000D01*
X138665000Y-147285000D01*
X138125517Y-147442834D01*
X137687500Y-147795104D01*
X137417633Y-148288181D01*
X137400096Y-148370961D01*
X120663904Y-148370961D01*
X120646367Y-148288181D01*
X120376500Y-147795104D01*
X119938483Y-147442834D01*
X119399000Y-147285000D01*
X118999000Y-147285000D01*
X118745000Y-147285000D01*
X118345000Y-147285000D01*
X117805517Y-147442834D01*
X117367500Y-147795104D01*
X117097633Y-148288181D01*
X117080096Y-148370961D01*
X89610000Y-148370961D01*
X89610000Y-145620000D01*
X116908887Y-145620000D01*
X117020260Y-146179909D01*
X117337423Y-146654577D01*
X117812091Y-146971740D01*
X118230667Y-147055000D01*
X119513333Y-147055000D01*
X119931909Y-146971740D01*
X120406577Y-146654577D01*
X120723740Y-146179909D01*
X120835113Y-145620000D01*
X137228887Y-145620000D01*
X137340260Y-146179909D01*
X137657423Y-146654577D01*
X138132091Y-146971740D01*
X138550667Y-147055000D01*
X139833333Y-147055000D01*
X140251909Y-146971740D01*
X140726577Y-146654577D01*
X141043740Y-146179909D01*
X141155113Y-145620000D01*
X141043740Y-145060091D01*
X140726577Y-144585423D01*
X140251909Y-144268260D01*
X139833333Y-144185000D01*
X138550667Y-144185000D01*
X138132091Y-144268260D01*
X137657423Y-144585423D01*
X137340260Y-145060091D01*
X137228887Y-145620000D01*
X120835113Y-145620000D01*
X120723740Y-145060091D01*
X120406577Y-144585423D01*
X119931909Y-144268260D01*
X119513333Y-144185000D01*
X118230667Y-144185000D01*
X117812091Y-144268260D01*
X117337423Y-144585423D01*
X117020260Y-145060091D01*
X116908887Y-145620000D01*
X89610000Y-145620000D01*
X89610000Y-134795126D01*
X112630000Y-134795126D01*
X112630000Y-135206874D01*
X112787569Y-135587280D01*
X113078720Y-135878431D01*
X113459126Y-136036000D01*
X113487693Y-136036000D01*
X113572130Y-136092419D01*
X113831444Y-136144000D01*
X113831448Y-136144000D01*
X113918999Y-136161415D01*
X114006550Y-136144000D01*
X117589075Y-136144000D01*
X117323471Y-136321471D01*
X117017359Y-136779600D01*
X116909867Y-137320000D01*
X117017359Y-137860400D01*
X117323471Y-138318529D01*
X117781600Y-138624641D01*
X118185593Y-138705000D01*
X119558407Y-138705000D01*
X119962400Y-138624641D01*
X120420529Y-138318529D01*
X120726641Y-137860400D01*
X120832247Y-137329482D01*
X121483471Y-137980707D01*
X121533067Y-138054933D01*
X121827130Y-138251419D01*
X122086444Y-138303000D01*
X122173999Y-138320416D01*
X122261554Y-138303000D01*
X124536650Y-138303000D01*
X124889126Y-138449000D01*
X125300874Y-138449000D01*
X125681280Y-138291431D01*
X125972431Y-138000280D01*
X126130000Y-137619874D01*
X126130000Y-137320000D01*
X137229867Y-137320000D01*
X137337359Y-137860400D01*
X137643471Y-138318529D01*
X138101600Y-138624641D01*
X138505593Y-138705000D01*
X139878407Y-138705000D01*
X140282400Y-138624641D01*
X140740529Y-138318529D01*
X141046641Y-137860400D01*
X141154133Y-137320000D01*
X141046641Y-136779600D01*
X140740529Y-136321471D01*
X140282400Y-136015359D01*
X139878407Y-135935000D01*
X138505593Y-135935000D01*
X138101600Y-136015359D01*
X137643471Y-136321471D01*
X137337359Y-136779600D01*
X137229867Y-137320000D01*
X126130000Y-137320000D01*
X126130000Y-137208126D01*
X125972431Y-136827720D01*
X125681280Y-136536569D01*
X125300874Y-136379000D01*
X124889126Y-136379000D01*
X124536650Y-136525000D01*
X122542236Y-136525000D01*
X120705531Y-134688296D01*
X120655933Y-134614067D01*
X120361870Y-134417581D01*
X120102556Y-134366000D01*
X120102555Y-134366000D01*
X120015000Y-134348584D01*
X119927445Y-134366000D01*
X114493711Y-134366000D01*
X114251280Y-134123569D01*
X113870874Y-133966000D01*
X113459126Y-133966000D01*
X113078720Y-134123569D01*
X112787569Y-134414720D01*
X112630000Y-134795126D01*
X89610000Y-134795126D01*
X89610000Y-133446626D01*
X96706500Y-133446626D01*
X96706500Y-133858374D01*
X96864069Y-134238780D01*
X97155220Y-134529931D01*
X97535626Y-134687500D01*
X97947374Y-134687500D01*
X98327780Y-134529931D01*
X98618931Y-134238780D01*
X98764931Y-133886305D01*
X98920236Y-133731000D01*
X104560445Y-133731000D01*
X104648000Y-133748416D01*
X104735555Y-133731000D01*
X104735556Y-133731000D01*
X104994870Y-133679419D01*
X105288933Y-133482933D01*
X105338531Y-133408704D01*
X105643805Y-133103431D01*
X105996280Y-132957431D01*
X106287431Y-132666280D01*
X106445000Y-132285874D01*
X106445000Y-131874126D01*
X106287431Y-131493720D01*
X105996280Y-131202569D01*
X105615874Y-131045000D01*
X105204126Y-131045000D01*
X104823720Y-131202569D01*
X104532569Y-131493720D01*
X104386569Y-131846195D01*
X104279765Y-131953000D01*
X98639554Y-131953000D01*
X98551999Y-131935584D01*
X98464444Y-131953000D01*
X98205130Y-132004581D01*
X97911067Y-132201067D01*
X97861471Y-132275294D01*
X97507695Y-132629069D01*
X97155220Y-132775069D01*
X96864069Y-133066220D01*
X96706500Y-133446626D01*
X89610000Y-133446626D01*
X89610000Y-128749039D01*
X96760096Y-128749039D01*
X96777633Y-128831819D01*
X97047500Y-129324896D01*
X97485517Y-129677166D01*
X98025000Y-129835000D01*
X98425000Y-129835000D01*
X98425000Y-128527000D01*
X98679000Y-128527000D01*
X98679000Y-129835000D01*
X99079000Y-129835000D01*
X99618483Y-129677166D01*
X100056500Y-129324896D01*
X100171553Y-129114680D01*
X114837000Y-129114680D01*
X114837000Y-129725340D01*
X115070690Y-130289517D01*
X115502493Y-130721320D01*
X116066670Y-130955010D01*
X116677330Y-130955010D01*
X117241507Y-130721320D01*
X117642000Y-130320827D01*
X118042493Y-130721320D01*
X118606670Y-130955010D01*
X119217330Y-130955010D01*
X119781507Y-130721320D01*
X120142000Y-130360827D01*
X120502493Y-130721320D01*
X121066670Y-130955010D01*
X121677330Y-130955010D01*
X122241507Y-130721320D01*
X122673310Y-130289517D01*
X122907000Y-129725340D01*
X122907000Y-129114680D01*
X135157000Y-129114680D01*
X135157000Y-129725340D01*
X135390690Y-130289517D01*
X135822493Y-130721320D01*
X136386670Y-130955010D01*
X136997330Y-130955010D01*
X137561507Y-130721320D01*
X137962000Y-130320827D01*
X138362493Y-130721320D01*
X138926670Y-130955010D01*
X139537330Y-130955010D01*
X140101507Y-130721320D01*
X140462000Y-130360827D01*
X140822493Y-130721320D01*
X141386670Y-130955010D01*
X141997330Y-130955010D01*
X142561507Y-130721320D01*
X142993310Y-130289517D01*
X143227000Y-129725340D01*
X143227000Y-129114680D01*
X142993310Y-128550503D01*
X142561507Y-128118700D01*
X141997330Y-127885010D01*
X141386670Y-127885010D01*
X140822493Y-128118700D01*
X140462000Y-128479193D01*
X140101507Y-128118700D01*
X139537330Y-127885010D01*
X138926670Y-127885010D01*
X138362493Y-128118700D01*
X137962000Y-128519193D01*
X137561507Y-128118700D01*
X136997330Y-127885010D01*
X136386670Y-127885010D01*
X135822493Y-128118700D01*
X135390690Y-128550503D01*
X135157000Y-129114680D01*
X122907000Y-129114680D01*
X122673310Y-128550503D01*
X122241507Y-128118700D01*
X121677330Y-127885010D01*
X121066670Y-127885010D01*
X120502493Y-128118700D01*
X120142000Y-128479193D01*
X119781507Y-128118700D01*
X119217330Y-127885010D01*
X118606670Y-127885010D01*
X118042493Y-128118700D01*
X117642000Y-128519193D01*
X117241507Y-128118700D01*
X116677330Y-127885010D01*
X116066670Y-127885010D01*
X115502493Y-128118700D01*
X115070690Y-128550503D01*
X114837000Y-129114680D01*
X100171553Y-129114680D01*
X100326367Y-128831819D01*
X100343904Y-128749039D01*
X100221915Y-128527000D01*
X98679000Y-128527000D01*
X98425000Y-128527000D01*
X96882085Y-128527000D01*
X96760096Y-128749039D01*
X89610000Y-128749039D01*
X89610000Y-128050961D01*
X96760096Y-128050961D01*
X96882085Y-128273000D01*
X98425000Y-128273000D01*
X98425000Y-126965000D01*
X98679000Y-126965000D01*
X98679000Y-128273000D01*
X100221915Y-128273000D01*
X100343904Y-128050961D01*
X100326367Y-127968181D01*
X100056500Y-127475104D01*
X99618483Y-127122834D01*
X99079000Y-126965000D01*
X98679000Y-126965000D01*
X98425000Y-126965000D01*
X98025000Y-126965000D01*
X97485517Y-127122834D01*
X97047500Y-127475104D01*
X96777633Y-127968181D01*
X96760096Y-128050961D01*
X89610000Y-128050961D01*
X89610000Y-126794126D01*
X101943000Y-126794126D01*
X101943000Y-127205874D01*
X102100569Y-127586280D01*
X102391720Y-127877431D01*
X102772126Y-128035000D01*
X103183874Y-128035000D01*
X103536350Y-127889000D01*
X106121650Y-127889000D01*
X106474126Y-128035000D01*
X106885874Y-128035000D01*
X107266280Y-127877431D01*
X107557431Y-127586280D01*
X107715000Y-127205874D01*
X107715000Y-126794126D01*
X107557431Y-126413720D01*
X107266280Y-126122569D01*
X106885874Y-125965000D01*
X106474126Y-125965000D01*
X106121650Y-126111000D01*
X103536350Y-126111000D01*
X103183874Y-125965000D01*
X102772126Y-125965000D01*
X102391720Y-126122569D01*
X102100569Y-126413720D01*
X101943000Y-126794126D01*
X89610000Y-126794126D01*
X89610000Y-125300000D01*
X96588887Y-125300000D01*
X96700260Y-125859909D01*
X97017423Y-126334577D01*
X97492091Y-126651740D01*
X97910667Y-126735000D01*
X99193333Y-126735000D01*
X99611909Y-126651740D01*
X100086577Y-126334577D01*
X100403740Y-125859909D01*
X100515113Y-125300000D01*
X100509171Y-125270126D01*
X112884000Y-125270126D01*
X112884000Y-125681874D01*
X113041569Y-126062280D01*
X113332720Y-126353431D01*
X113713126Y-126511000D01*
X114124874Y-126511000D01*
X114431482Y-126383999D01*
X123247651Y-126383999D01*
X123600127Y-126529999D01*
X124011875Y-126529999D01*
X124392281Y-126372430D01*
X124683432Y-126081279D01*
X124841001Y-125700873D01*
X124841001Y-125289125D01*
X124683432Y-124908719D01*
X124392281Y-124617568D01*
X124011875Y-124459999D01*
X123600127Y-124459999D01*
X123247651Y-124605999D01*
X114512710Y-124605999D01*
X114505280Y-124598569D01*
X114124874Y-124441000D01*
X113713126Y-124441000D01*
X113332720Y-124598569D01*
X113041569Y-124889720D01*
X112884000Y-125270126D01*
X100509171Y-125270126D01*
X100403740Y-124740091D01*
X100086577Y-124265423D01*
X99611909Y-123948260D01*
X99193333Y-123865000D01*
X97910667Y-123865000D01*
X97492091Y-123948260D01*
X97017423Y-124265423D01*
X96700260Y-124740091D01*
X96588887Y-125300000D01*
X89610000Y-125300000D01*
X89610000Y-121920000D01*
X111903010Y-121920000D01*
X112037666Y-122596963D01*
X112421135Y-123170865D01*
X112995037Y-123554334D01*
X113501120Y-123655000D01*
X114642880Y-123655000D01*
X115148963Y-123554334D01*
X115722865Y-123170865D01*
X116106334Y-122596963D01*
X116240990Y-121920000D01*
X121503010Y-121920000D01*
X121637666Y-122596963D01*
X122021135Y-123170865D01*
X122595037Y-123554334D01*
X123101120Y-123655000D01*
X124242880Y-123655000D01*
X124748963Y-123554334D01*
X125322865Y-123170865D01*
X125706334Y-122596963D01*
X125840990Y-121920000D01*
X132223010Y-121920000D01*
X132357666Y-122596963D01*
X132741135Y-123170865D01*
X133315037Y-123554334D01*
X133821120Y-123655000D01*
X134962880Y-123655000D01*
X135468963Y-123554334D01*
X136042865Y-123170865D01*
X136426334Y-122596963D01*
X136560990Y-121920000D01*
X141823010Y-121920000D01*
X141957666Y-122596963D01*
X142341135Y-123170865D01*
X142915037Y-123554334D01*
X143421120Y-123655000D01*
X144562880Y-123655000D01*
X145068963Y-123554334D01*
X145642865Y-123170865D01*
X146026334Y-122596963D01*
X146160990Y-121920000D01*
X146026334Y-121243037D01*
X145642865Y-120669135D01*
X145068963Y-120285666D01*
X144562880Y-120185000D01*
X143421120Y-120185000D01*
X142915037Y-120285666D01*
X142341135Y-120669135D01*
X141957666Y-121243037D01*
X141823010Y-121920000D01*
X136560990Y-121920000D01*
X136426334Y-121243037D01*
X136042865Y-120669135D01*
X135468963Y-120285666D01*
X134962880Y-120185000D01*
X133821120Y-120185000D01*
X133315037Y-120285666D01*
X132741135Y-120669135D01*
X132357666Y-121243037D01*
X132223010Y-121920000D01*
X125840990Y-121920000D01*
X125706334Y-121243037D01*
X125322865Y-120669135D01*
X124748963Y-120285666D01*
X124242880Y-120185000D01*
X123101120Y-120185000D01*
X122595037Y-120285666D01*
X122021135Y-120669135D01*
X121637666Y-121243037D01*
X121503010Y-121920000D01*
X116240990Y-121920000D01*
X116106334Y-121243037D01*
X115722865Y-120669135D01*
X115148963Y-120285666D01*
X114642880Y-120185000D01*
X113501120Y-120185000D01*
X112995037Y-120285666D01*
X112421135Y-120669135D01*
X112037666Y-121243037D01*
X111903010Y-121920000D01*
X89610000Y-121920000D01*
X89610000Y-117000000D01*
X96589867Y-117000000D01*
X96697359Y-117540400D01*
X97003471Y-117998529D01*
X97461600Y-118304641D01*
X97865593Y-118385000D01*
X99238407Y-118385000D01*
X99642400Y-118304641D01*
X100100529Y-117998529D01*
X100406641Y-117540400D01*
X100514133Y-117000000D01*
X100406641Y-116459600D01*
X100100529Y-116001471D01*
X99642400Y-115695359D01*
X99238407Y-115615000D01*
X97865593Y-115615000D01*
X97461600Y-115695359D01*
X97003471Y-116001471D01*
X96697359Y-116459600D01*
X96589867Y-117000000D01*
X89610000Y-117000000D01*
X89610000Y-108429039D01*
X96760096Y-108429039D01*
X96777633Y-108511819D01*
X97047500Y-109004896D01*
X97485517Y-109357166D01*
X98025000Y-109515000D01*
X98425000Y-109515000D01*
X98425000Y-108207000D01*
X98679000Y-108207000D01*
X98679000Y-109515000D01*
X99079000Y-109515000D01*
X99618483Y-109357166D01*
X100056500Y-109004896D01*
X100171553Y-108794680D01*
X114837000Y-108794680D01*
X114837000Y-109405340D01*
X115070690Y-109969517D01*
X115502493Y-110401320D01*
X116066670Y-110635010D01*
X116677330Y-110635010D01*
X117241507Y-110401320D01*
X117642000Y-110000827D01*
X118042493Y-110401320D01*
X118606670Y-110635010D01*
X119217330Y-110635010D01*
X119781507Y-110401320D01*
X120142000Y-110040827D01*
X120502493Y-110401320D01*
X121066670Y-110635010D01*
X121677330Y-110635010D01*
X122241507Y-110401320D01*
X122673310Y-109969517D01*
X122907000Y-109405340D01*
X122907000Y-108794680D01*
X135157000Y-108794680D01*
X135157000Y-109405340D01*
X135390690Y-109969517D01*
X135822493Y-110401320D01*
X136386670Y-110635010D01*
X136997330Y-110635010D01*
X137561507Y-110401320D01*
X137962000Y-110000827D01*
X138362493Y-110401320D01*
X138926670Y-110635010D01*
X139537330Y-110635010D01*
X140101507Y-110401320D01*
X140462000Y-110040827D01*
X140822493Y-110401320D01*
X141386670Y-110635010D01*
X141997330Y-110635010D01*
X142561507Y-110401320D01*
X142993310Y-109969517D01*
X143227000Y-109405340D01*
X143227000Y-108794680D01*
X142993310Y-108230503D01*
X142561507Y-107798700D01*
X141997330Y-107565010D01*
X141386670Y-107565010D01*
X140822493Y-107798700D01*
X140462000Y-108159193D01*
X140101507Y-107798700D01*
X139537330Y-107565010D01*
X138926670Y-107565010D01*
X138362493Y-107798700D01*
X137962000Y-108199193D01*
X137561507Y-107798700D01*
X136997330Y-107565010D01*
X136386670Y-107565010D01*
X135822493Y-107798700D01*
X135390690Y-108230503D01*
X135157000Y-108794680D01*
X122907000Y-108794680D01*
X122673310Y-108230503D01*
X122241507Y-107798700D01*
X121677330Y-107565010D01*
X121066670Y-107565010D01*
X120502493Y-107798700D01*
X120142000Y-108159193D01*
X119781507Y-107798700D01*
X119217330Y-107565010D01*
X118606670Y-107565010D01*
X118042493Y-107798700D01*
X117642000Y-108199193D01*
X117241507Y-107798700D01*
X116677330Y-107565010D01*
X116066670Y-107565010D01*
X115502493Y-107798700D01*
X115070690Y-108230503D01*
X114837000Y-108794680D01*
X100171553Y-108794680D01*
X100326367Y-108511819D01*
X100343904Y-108429039D01*
X100221915Y-108207000D01*
X98679000Y-108207000D01*
X98425000Y-108207000D01*
X96882085Y-108207000D01*
X96760096Y-108429039D01*
X89610000Y-108429039D01*
X89610000Y-107730961D01*
X96760096Y-107730961D01*
X96882085Y-107953000D01*
X98425000Y-107953000D01*
X98425000Y-106645000D01*
X98679000Y-106645000D01*
X98679000Y-107953000D01*
X100221915Y-107953000D01*
X100343904Y-107730961D01*
X100326367Y-107648181D01*
X100056500Y-107155104D01*
X99618483Y-106802834D01*
X99079000Y-106645000D01*
X98679000Y-106645000D01*
X98425000Y-106645000D01*
X98025000Y-106645000D01*
X97485517Y-106802834D01*
X97047500Y-107155104D01*
X96777633Y-107648181D01*
X96760096Y-107730961D01*
X89610000Y-107730961D01*
X89610000Y-104980000D01*
X96588887Y-104980000D01*
X96700260Y-105539909D01*
X97017423Y-106014577D01*
X97492091Y-106331740D01*
X97910667Y-106415000D01*
X99193333Y-106415000D01*
X99611909Y-106331740D01*
X100086577Y-106014577D01*
X100403740Y-105539909D01*
X100420007Y-105458126D01*
X113011000Y-105458126D01*
X113011000Y-105869874D01*
X113168569Y-106250280D01*
X113459720Y-106541431D01*
X113840126Y-106699000D01*
X114251874Y-106699000D01*
X114604350Y-106553000D01*
X123393650Y-106553000D01*
X123746126Y-106699000D01*
X124157874Y-106699000D01*
X124538280Y-106541431D01*
X124829431Y-106250280D01*
X124987000Y-105869874D01*
X124987000Y-105458126D01*
X124829431Y-105077720D01*
X124538280Y-104786569D01*
X124157874Y-104629000D01*
X123746126Y-104629000D01*
X123393650Y-104775000D01*
X114604350Y-104775000D01*
X114251874Y-104629000D01*
X113840126Y-104629000D01*
X113459720Y-104786569D01*
X113168569Y-105077720D01*
X113011000Y-105458126D01*
X100420007Y-105458126D01*
X100515113Y-104980000D01*
X100403740Y-104420091D01*
X100086577Y-103945423D01*
X99611909Y-103628260D01*
X99193333Y-103545000D01*
X97910667Y-103545000D01*
X97492091Y-103628260D01*
X97017423Y-103945423D01*
X96700260Y-104420091D01*
X96588887Y-104980000D01*
X89610000Y-104980000D01*
X89610000Y-101600000D01*
X111903010Y-101600000D01*
X112037666Y-102276963D01*
X112421135Y-102850865D01*
X112995037Y-103234334D01*
X113501120Y-103335000D01*
X114642880Y-103335000D01*
X115148963Y-103234334D01*
X115722865Y-102850865D01*
X116106334Y-102276963D01*
X116240990Y-101600000D01*
X121503010Y-101600000D01*
X121637666Y-102276963D01*
X122021135Y-102850865D01*
X122595037Y-103234334D01*
X123101120Y-103335000D01*
X124242880Y-103335000D01*
X124748963Y-103234334D01*
X125322865Y-102850865D01*
X125706334Y-102276963D01*
X125840990Y-101600000D01*
X132223010Y-101600000D01*
X132357666Y-102276963D01*
X132741135Y-102850865D01*
X133315037Y-103234334D01*
X133821120Y-103335000D01*
X134962880Y-103335000D01*
X135468963Y-103234334D01*
X136042865Y-102850865D01*
X136426334Y-102276963D01*
X136560990Y-101600000D01*
X141823010Y-101600000D01*
X141957666Y-102276963D01*
X142341135Y-102850865D01*
X142915037Y-103234334D01*
X143421120Y-103335000D01*
X144562880Y-103335000D01*
X145068963Y-103234334D01*
X145642865Y-102850865D01*
X146026334Y-102276963D01*
X146160990Y-101600000D01*
X146026334Y-100923037D01*
X145642865Y-100349135D01*
X145068963Y-99965666D01*
X144562880Y-99865000D01*
X143421120Y-99865000D01*
X142915037Y-99965666D01*
X142341135Y-100349135D01*
X141957666Y-100923037D01*
X141823010Y-101600000D01*
X136560990Y-101600000D01*
X136426334Y-100923037D01*
X136042865Y-100349135D01*
X135468963Y-99965666D01*
X134962880Y-99865000D01*
X133821120Y-99865000D01*
X133315037Y-99965666D01*
X132741135Y-100349135D01*
X132357666Y-100923037D01*
X132223010Y-101600000D01*
X125840990Y-101600000D01*
X125706334Y-100923037D01*
X125322865Y-100349135D01*
X124748963Y-99965666D01*
X124242880Y-99865000D01*
X123101120Y-99865000D01*
X122595037Y-99965666D01*
X122021135Y-100349135D01*
X121637666Y-100923037D01*
X121503010Y-101600000D01*
X116240990Y-101600000D01*
X116106334Y-100923037D01*
X115722865Y-100349135D01*
X115148963Y-99965666D01*
X114642880Y-99865000D01*
X113501120Y-99865000D01*
X112995037Y-99965666D01*
X112421135Y-100349135D01*
X112037666Y-100923037D01*
X111903010Y-101600000D01*
X89610000Y-101600000D01*
X89610000Y-96680000D01*
X96589867Y-96680000D01*
X96697359Y-97220400D01*
X97003471Y-97678529D01*
X97461600Y-97984641D01*
X97865593Y-98065000D01*
X99238407Y-98065000D01*
X99642400Y-97984641D01*
X100100529Y-97678529D01*
X100406641Y-97220400D01*
X100514133Y-96680000D01*
X100406641Y-96139600D01*
X100100529Y-95681471D01*
X99642400Y-95375359D01*
X99238407Y-95295000D01*
X97865593Y-95295000D01*
X97461600Y-95375359D01*
X97003471Y-95681471D01*
X96697359Y-96139600D01*
X96589867Y-96680000D01*
X89610000Y-96680000D01*
X89610000Y-88109039D01*
X96760096Y-88109039D01*
X96777633Y-88191819D01*
X97047500Y-88684896D01*
X97485517Y-89037166D01*
X98025000Y-89195000D01*
X98425000Y-89195000D01*
X98425000Y-87887000D01*
X98679000Y-87887000D01*
X98679000Y-89195000D01*
X99079000Y-89195000D01*
X99618483Y-89037166D01*
X100056500Y-88684896D01*
X100171553Y-88474680D01*
X114837000Y-88474680D01*
X114837000Y-89085340D01*
X115070690Y-89649517D01*
X115502493Y-90081320D01*
X116066670Y-90315010D01*
X116677330Y-90315010D01*
X117241507Y-90081320D01*
X117642000Y-89680827D01*
X118042493Y-90081320D01*
X118606670Y-90315010D01*
X119217330Y-90315010D01*
X119781507Y-90081320D01*
X120142000Y-89720827D01*
X120502493Y-90081320D01*
X121066670Y-90315010D01*
X121677330Y-90315010D01*
X122241507Y-90081320D01*
X122673310Y-89649517D01*
X122907000Y-89085340D01*
X122907000Y-88474680D01*
X135157000Y-88474680D01*
X135157000Y-89085340D01*
X135390690Y-89649517D01*
X135822493Y-90081320D01*
X136386670Y-90315010D01*
X136997330Y-90315010D01*
X137561507Y-90081320D01*
X137962000Y-89680827D01*
X138362493Y-90081320D01*
X138926670Y-90315010D01*
X139537330Y-90315010D01*
X140101507Y-90081320D01*
X140462000Y-89720827D01*
X140822493Y-90081320D01*
X141386670Y-90315010D01*
X141997330Y-90315010D01*
X142561507Y-90081320D01*
X142993310Y-89649517D01*
X143227000Y-89085340D01*
X143227000Y-88474680D01*
X142993310Y-87910503D01*
X142561507Y-87478700D01*
X141997330Y-87245010D01*
X141386670Y-87245010D01*
X140822493Y-87478700D01*
X140462000Y-87839193D01*
X140101507Y-87478700D01*
X139537330Y-87245010D01*
X138926670Y-87245010D01*
X138362493Y-87478700D01*
X137962000Y-87879193D01*
X137561507Y-87478700D01*
X136997330Y-87245010D01*
X136386670Y-87245010D01*
X135822493Y-87478700D01*
X135390690Y-87910503D01*
X135157000Y-88474680D01*
X122907000Y-88474680D01*
X122673310Y-87910503D01*
X122241507Y-87478700D01*
X121677330Y-87245010D01*
X121066670Y-87245010D01*
X120502493Y-87478700D01*
X120142000Y-87839193D01*
X119781507Y-87478700D01*
X119217330Y-87245010D01*
X118606670Y-87245010D01*
X118042493Y-87478700D01*
X117642000Y-87879193D01*
X117241507Y-87478700D01*
X116677330Y-87245010D01*
X116066670Y-87245010D01*
X115502493Y-87478700D01*
X115070690Y-87910503D01*
X114837000Y-88474680D01*
X100171553Y-88474680D01*
X100326367Y-88191819D01*
X100343904Y-88109039D01*
X100221915Y-87887000D01*
X98679000Y-87887000D01*
X98425000Y-87887000D01*
X96882085Y-87887000D01*
X96760096Y-88109039D01*
X89610000Y-88109039D01*
X89610000Y-87410961D01*
X96760096Y-87410961D01*
X96882085Y-87633000D01*
X98425000Y-87633000D01*
X98425000Y-86325000D01*
X98679000Y-86325000D01*
X98679000Y-87633000D01*
X100221915Y-87633000D01*
X100343904Y-87410961D01*
X100326367Y-87328181D01*
X100056500Y-86835104D01*
X99618483Y-86482834D01*
X99079000Y-86325000D01*
X98679000Y-86325000D01*
X98425000Y-86325000D01*
X98025000Y-86325000D01*
X97485517Y-86482834D01*
X97047500Y-86835104D01*
X96777633Y-87328181D01*
X96760096Y-87410961D01*
X89610000Y-87410961D01*
X89610000Y-84660000D01*
X96588887Y-84660000D01*
X96700260Y-85219909D01*
X97017423Y-85694577D01*
X97492091Y-86011740D01*
X97910667Y-86095000D01*
X99193333Y-86095000D01*
X99611909Y-86011740D01*
X100086577Y-85694577D01*
X100288668Y-85392126D01*
X113011000Y-85392126D01*
X113011000Y-85803874D01*
X113168569Y-86184280D01*
X113459720Y-86475431D01*
X113840126Y-86633000D01*
X114251874Y-86633000D01*
X114604350Y-86487000D01*
X123266650Y-86487000D01*
X123619126Y-86633000D01*
X124030874Y-86633000D01*
X124411280Y-86475431D01*
X124702431Y-86184280D01*
X124860000Y-85803874D01*
X124860000Y-85392126D01*
X124702431Y-85011720D01*
X124411280Y-84720569D01*
X124030874Y-84563000D01*
X123619126Y-84563000D01*
X123266650Y-84709000D01*
X114604350Y-84709000D01*
X114251874Y-84563000D01*
X113840126Y-84563000D01*
X113459720Y-84720569D01*
X113168569Y-85011720D01*
X113011000Y-85392126D01*
X100288668Y-85392126D01*
X100403740Y-85219909D01*
X100515113Y-84660000D01*
X100403740Y-84100091D01*
X100086577Y-83625423D01*
X99611909Y-83308260D01*
X99193333Y-83225000D01*
X97910667Y-83225000D01*
X97492091Y-83308260D01*
X97017423Y-83625423D01*
X96700260Y-84100091D01*
X96588887Y-84660000D01*
X89610000Y-84660000D01*
X89610000Y-76360000D01*
X96589867Y-76360000D01*
X96697359Y-76900400D01*
X97003471Y-77358529D01*
X97461600Y-77664641D01*
X97865593Y-77745000D01*
X99238407Y-77745000D01*
X99642400Y-77664641D01*
X100100529Y-77358529D01*
X100100835Y-77358071D01*
X102362000Y-79619236D01*
X102362001Y-81991648D01*
X102216000Y-82344126D01*
X102216000Y-82755874D01*
X102373569Y-83136280D01*
X102664720Y-83427431D01*
X103045126Y-83585000D01*
X103456874Y-83585000D01*
X103837280Y-83427431D01*
X104128431Y-83136280D01*
X104286000Y-82755874D01*
X104286000Y-82344126D01*
X104140000Y-81991650D01*
X104140000Y-81280000D01*
X111903010Y-81280000D01*
X112037666Y-81956963D01*
X112421135Y-82530865D01*
X112995037Y-82914334D01*
X113501120Y-83015000D01*
X114642880Y-83015000D01*
X115148963Y-82914334D01*
X115722865Y-82530865D01*
X116106334Y-81956963D01*
X116240990Y-81280000D01*
X121503010Y-81280000D01*
X121637666Y-81956963D01*
X122021135Y-82530865D01*
X122595037Y-82914334D01*
X123101120Y-83015000D01*
X124242880Y-83015000D01*
X124748963Y-82914334D01*
X125322865Y-82530865D01*
X125706334Y-81956963D01*
X125840990Y-81280000D01*
X132223010Y-81280000D01*
X132357666Y-81956963D01*
X132741135Y-82530865D01*
X133315037Y-82914334D01*
X133821120Y-83015000D01*
X134962880Y-83015000D01*
X135468963Y-82914334D01*
X136042865Y-82530865D01*
X136426334Y-81956963D01*
X136560990Y-81280000D01*
X141823010Y-81280000D01*
X141957666Y-81956963D01*
X142341135Y-82530865D01*
X142915037Y-82914334D01*
X143421120Y-83015000D01*
X144562880Y-83015000D01*
X145068963Y-82914334D01*
X145642865Y-82530865D01*
X146026334Y-81956963D01*
X146160990Y-81280000D01*
X146026334Y-80603037D01*
X145642865Y-80029135D01*
X145068963Y-79645666D01*
X144562880Y-79545000D01*
X143421120Y-79545000D01*
X142915037Y-79645666D01*
X142341135Y-80029135D01*
X141957666Y-80603037D01*
X141823010Y-81280000D01*
X136560990Y-81280000D01*
X136426334Y-80603037D01*
X136042865Y-80029135D01*
X135468963Y-79645666D01*
X134962880Y-79545000D01*
X133821120Y-79545000D01*
X133315037Y-79645666D01*
X132741135Y-80029135D01*
X132357666Y-80603037D01*
X132223010Y-81280000D01*
X125840990Y-81280000D01*
X125706334Y-80603037D01*
X125322865Y-80029135D01*
X124748963Y-79645666D01*
X124242880Y-79545000D01*
X123101120Y-79545000D01*
X122595037Y-79645666D01*
X122021135Y-80029135D01*
X121637666Y-80603037D01*
X121503010Y-81280000D01*
X116240990Y-81280000D01*
X116106334Y-80603037D01*
X115722865Y-80029135D01*
X115148963Y-79645666D01*
X114642880Y-79545000D01*
X113501120Y-79545000D01*
X112995037Y-79645666D01*
X112421135Y-80029135D01*
X112037666Y-80603037D01*
X111903010Y-81280000D01*
X104140000Y-81280000D01*
X104140000Y-79338550D01*
X104157415Y-79250999D01*
X104140000Y-79163448D01*
X104140000Y-79163444D01*
X104088419Y-78904130D01*
X103891933Y-78610067D01*
X103817707Y-78560471D01*
X101050531Y-75793296D01*
X101000933Y-75719067D01*
X100706870Y-75522581D01*
X100447556Y-75471000D01*
X100447555Y-75471000D01*
X100360000Y-75453584D01*
X100272445Y-75471000D01*
X100173714Y-75471000D01*
X100100529Y-75361471D01*
X99642400Y-75055359D01*
X99238407Y-74975000D01*
X97865593Y-74975000D01*
X97461600Y-75055359D01*
X97003471Y-75361471D01*
X96697359Y-75819600D01*
X96589867Y-76360000D01*
X89610000Y-76360000D01*
X89610000Y-67789039D01*
X96760096Y-67789039D01*
X96777633Y-67871819D01*
X97047500Y-68364896D01*
X97485517Y-68717166D01*
X98025000Y-68875000D01*
X98425000Y-68875000D01*
X98425000Y-67567000D01*
X98679000Y-67567000D01*
X98679000Y-68875000D01*
X99079000Y-68875000D01*
X99618483Y-68717166D01*
X100056500Y-68364896D01*
X100326367Y-67871819D01*
X100343904Y-67789039D01*
X100221915Y-67567000D01*
X98679000Y-67567000D01*
X98425000Y-67567000D01*
X96882085Y-67567000D01*
X96760096Y-67789039D01*
X89610000Y-67789039D01*
X89610000Y-67090961D01*
X96760096Y-67090961D01*
X96882085Y-67313000D01*
X98425000Y-67313000D01*
X98425000Y-66005000D01*
X98679000Y-66005000D01*
X98679000Y-67313000D01*
X100221915Y-67313000D01*
X100343904Y-67090961D01*
X100326367Y-67008181D01*
X100056500Y-66515104D01*
X99618483Y-66162834D01*
X99079000Y-66005000D01*
X98679000Y-66005000D01*
X98425000Y-66005000D01*
X98025000Y-66005000D01*
X97485517Y-66162834D01*
X97047500Y-66515104D01*
X96777633Y-67008181D01*
X96760096Y-67090961D01*
X89610000Y-67090961D01*
X89610000Y-65825000D01*
X104674560Y-65825000D01*
X104674560Y-67525000D01*
X104723843Y-67772765D01*
X104864191Y-67982809D01*
X105074235Y-68123157D01*
X105322000Y-68172440D01*
X107022000Y-68172440D01*
X107269765Y-68123157D01*
X107479809Y-67982809D01*
X107620157Y-67772765D01*
X107629184Y-67727381D01*
X107641375Y-67745625D01*
X108132582Y-68073839D01*
X108565744Y-68160000D01*
X108858256Y-68160000D01*
X108885001Y-68154680D01*
X114837000Y-68154680D01*
X114837000Y-68765340D01*
X115070690Y-69329517D01*
X115502493Y-69761320D01*
X116066670Y-69995010D01*
X116677330Y-69995010D01*
X117241507Y-69761320D01*
X117642000Y-69360827D01*
X118042493Y-69761320D01*
X118606670Y-69995010D01*
X119217330Y-69995010D01*
X119781507Y-69761320D01*
X120142000Y-69400827D01*
X120502493Y-69761320D01*
X121066670Y-69995010D01*
X121677330Y-69995010D01*
X122241507Y-69761320D01*
X122673310Y-69329517D01*
X122907000Y-68765340D01*
X122907000Y-68154680D01*
X135157000Y-68154680D01*
X135157000Y-68765340D01*
X135390690Y-69329517D01*
X135822493Y-69761320D01*
X136386670Y-69995010D01*
X136997330Y-69995010D01*
X137561507Y-69761320D01*
X137962000Y-69360827D01*
X138362493Y-69761320D01*
X138926670Y-69995010D01*
X139537330Y-69995010D01*
X140101507Y-69761320D01*
X140462000Y-69400827D01*
X140822493Y-69761320D01*
X141386670Y-69995010D01*
X141997330Y-69995010D01*
X142561507Y-69761320D01*
X142993310Y-69329517D01*
X143227000Y-68765340D01*
X143227000Y-68154680D01*
X142993310Y-67590503D01*
X142561507Y-67158700D01*
X141997330Y-66925010D01*
X141386670Y-66925010D01*
X140822493Y-67158700D01*
X140462000Y-67519193D01*
X140101507Y-67158700D01*
X139537330Y-66925010D01*
X138926670Y-66925010D01*
X138362493Y-67158700D01*
X137962000Y-67559193D01*
X137561507Y-67158700D01*
X136997330Y-66925010D01*
X136386670Y-66925010D01*
X135822493Y-67158700D01*
X135390690Y-67590503D01*
X135157000Y-68154680D01*
X122907000Y-68154680D01*
X122673310Y-67590503D01*
X122241507Y-67158700D01*
X121677330Y-66925010D01*
X121066670Y-66925010D01*
X120502493Y-67158700D01*
X120142000Y-67519193D01*
X119781507Y-67158700D01*
X119217330Y-66925010D01*
X118606670Y-66925010D01*
X118042493Y-67158700D01*
X117642000Y-67559193D01*
X117241507Y-67158700D01*
X116677330Y-66925010D01*
X116066670Y-66925010D01*
X115502493Y-67158700D01*
X115070690Y-67590503D01*
X114837000Y-68154680D01*
X108885001Y-68154680D01*
X109291418Y-68073839D01*
X109782625Y-67745625D01*
X110110839Y-67254418D01*
X110226092Y-66675000D01*
X110110839Y-66095582D01*
X109782625Y-65604375D01*
X109463522Y-65391157D01*
X109593358Y-65330183D01*
X109983645Y-64901924D01*
X110153476Y-64491890D01*
X110032155Y-64262000D01*
X108839000Y-64262000D01*
X108839000Y-64282000D01*
X108585000Y-64282000D01*
X108585000Y-64262000D01*
X106299000Y-64262000D01*
X106299000Y-64282000D01*
X106045000Y-64282000D01*
X106045000Y-64262000D01*
X104851845Y-64262000D01*
X104730524Y-64491890D01*
X104900355Y-64901924D01*
X105177708Y-65206261D01*
X105074235Y-65226843D01*
X104864191Y-65367191D01*
X104723843Y-65577235D01*
X104674560Y-65825000D01*
X89610000Y-65825000D01*
X89610000Y-64340000D01*
X96588887Y-64340000D01*
X96700260Y-64899909D01*
X97017423Y-65374577D01*
X97492091Y-65691740D01*
X97910667Y-65775000D01*
X99193333Y-65775000D01*
X99611909Y-65691740D01*
X100086577Y-65374577D01*
X100403740Y-64899909D01*
X100515113Y-64340000D01*
X100403740Y-63780091D01*
X100086577Y-63305423D01*
X99611909Y-62988260D01*
X99193333Y-62905000D01*
X97910667Y-62905000D01*
X97492091Y-62988260D01*
X97017423Y-63305423D01*
X96700260Y-63780091D01*
X96588887Y-64340000D01*
X89610000Y-64340000D01*
X89610000Y-61951890D01*
X104730524Y-61951890D01*
X104900355Y-62361924D01*
X105290642Y-62790183D01*
X105449954Y-62865000D01*
X105290642Y-62939817D01*
X104900355Y-63368076D01*
X104730524Y-63778110D01*
X104851845Y-64008000D01*
X106045000Y-64008000D01*
X106045000Y-61722000D01*
X106299000Y-61722000D01*
X106299000Y-64008000D01*
X108585000Y-64008000D01*
X108585000Y-61722000D01*
X108839000Y-61722000D01*
X108839000Y-64008000D01*
X110032155Y-64008000D01*
X110153476Y-63778110D01*
X109983645Y-63368076D01*
X109593358Y-62939817D01*
X109434046Y-62865000D01*
X109593358Y-62790183D01*
X109983645Y-62361924D01*
X110153476Y-61951890D01*
X110032155Y-61722000D01*
X108839000Y-61722000D01*
X108585000Y-61722000D01*
X106299000Y-61722000D01*
X106045000Y-61722000D01*
X104851845Y-61722000D01*
X104730524Y-61951890D01*
X89610000Y-61951890D01*
X89610000Y-59411890D01*
X104730524Y-59411890D01*
X104900355Y-59821924D01*
X105290642Y-60250183D01*
X105449954Y-60325000D01*
X105290642Y-60399817D01*
X104900355Y-60828076D01*
X104730524Y-61238110D01*
X104851845Y-61468000D01*
X106045000Y-61468000D01*
X106045000Y-59182000D01*
X106299000Y-59182000D01*
X106299000Y-61468000D01*
X108585000Y-61468000D01*
X108585000Y-59182000D01*
X108839000Y-59182000D01*
X108839000Y-61468000D01*
X110032155Y-61468000D01*
X110153476Y-61238110D01*
X110038287Y-60960000D01*
X111903010Y-60960000D01*
X112037666Y-61636963D01*
X112421135Y-62210865D01*
X112995037Y-62594334D01*
X113501120Y-62695000D01*
X114642880Y-62695000D01*
X115148963Y-62594334D01*
X115722865Y-62210865D01*
X116106334Y-61636963D01*
X116240990Y-60960000D01*
X121503010Y-60960000D01*
X121637666Y-61636963D01*
X122021135Y-62210865D01*
X122595037Y-62594334D01*
X123101120Y-62695000D01*
X124242880Y-62695000D01*
X124748963Y-62594334D01*
X125322865Y-62210865D01*
X125706334Y-61636963D01*
X125840990Y-60960000D01*
X132223010Y-60960000D01*
X132357666Y-61636963D01*
X132741135Y-62210865D01*
X133315037Y-62594334D01*
X133821120Y-62695000D01*
X134962880Y-62695000D01*
X135468963Y-62594334D01*
X136042865Y-62210865D01*
X136426334Y-61636963D01*
X136560990Y-60960000D01*
X141823010Y-60960000D01*
X141957666Y-61636963D01*
X142341135Y-62210865D01*
X142915037Y-62594334D01*
X143421120Y-62695000D01*
X144562880Y-62695000D01*
X145068963Y-62594334D01*
X145642865Y-62210865D01*
X146026334Y-61636963D01*
X146160990Y-60960000D01*
X146026334Y-60283037D01*
X145642865Y-59709135D01*
X145068963Y-59325666D01*
X144562880Y-59225000D01*
X143421120Y-59225000D01*
X142915037Y-59325666D01*
X142341135Y-59709135D01*
X141957666Y-60283037D01*
X141823010Y-60960000D01*
X136560990Y-60960000D01*
X136426334Y-60283037D01*
X136042865Y-59709135D01*
X135468963Y-59325666D01*
X134962880Y-59225000D01*
X133821120Y-59225000D01*
X133315037Y-59325666D01*
X132741135Y-59709135D01*
X132357666Y-60283037D01*
X132223010Y-60960000D01*
X125840990Y-60960000D01*
X125706334Y-60283037D01*
X125322865Y-59709135D01*
X124748963Y-59325666D01*
X124242880Y-59225000D01*
X123101120Y-59225000D01*
X122595037Y-59325666D01*
X122021135Y-59709135D01*
X121637666Y-60283037D01*
X121503010Y-60960000D01*
X116240990Y-60960000D01*
X116106334Y-60283037D01*
X115722865Y-59709135D01*
X115148963Y-59325666D01*
X114642880Y-59225000D01*
X113501120Y-59225000D01*
X112995037Y-59325666D01*
X112421135Y-59709135D01*
X112037666Y-60283037D01*
X111903010Y-60960000D01*
X110038287Y-60960000D01*
X109983645Y-60828076D01*
X109593358Y-60399817D01*
X109434046Y-60325000D01*
X109593358Y-60250183D01*
X109983645Y-59821924D01*
X110153476Y-59411890D01*
X110032155Y-59182000D01*
X108839000Y-59182000D01*
X108585000Y-59182000D01*
X106299000Y-59182000D01*
X106045000Y-59182000D01*
X104851845Y-59182000D01*
X104730524Y-59411890D01*
X89610000Y-59411890D01*
X89610000Y-56040000D01*
X96589867Y-56040000D01*
X96697359Y-56580400D01*
X97003471Y-57038529D01*
X97461600Y-57344641D01*
X97865593Y-57425000D01*
X99238407Y-57425000D01*
X99642400Y-57344641D01*
X100100529Y-57038529D01*
X100406641Y-56580400D01*
X100419649Y-56515000D01*
X104657908Y-56515000D01*
X104773161Y-57094418D01*
X105101375Y-57585625D01*
X105420478Y-57798843D01*
X105290642Y-57859817D01*
X104900355Y-58288076D01*
X104730524Y-58698110D01*
X104851845Y-58928000D01*
X106045000Y-58928000D01*
X106045000Y-58908000D01*
X106299000Y-58908000D01*
X106299000Y-58928000D01*
X108585000Y-58928000D01*
X108585000Y-58908000D01*
X108839000Y-58908000D01*
X108839000Y-58928000D01*
X110032155Y-58928000D01*
X110153476Y-58698110D01*
X109983645Y-58288076D01*
X109593358Y-57859817D01*
X109463522Y-57798843D01*
X109782625Y-57585625D01*
X110110839Y-57094418D01*
X110226092Y-56515000D01*
X110110839Y-55935582D01*
X109782625Y-55444375D01*
X109291418Y-55116161D01*
X108858256Y-55030000D01*
X108565744Y-55030000D01*
X108132582Y-55116161D01*
X107641375Y-55444375D01*
X107442000Y-55742761D01*
X107242625Y-55444375D01*
X106751418Y-55116161D01*
X106318256Y-55030000D01*
X106025744Y-55030000D01*
X105592582Y-55116161D01*
X105101375Y-55444375D01*
X104773161Y-55935582D01*
X104657908Y-56515000D01*
X100419649Y-56515000D01*
X100514133Y-56040000D01*
X100406641Y-55499600D01*
X100100529Y-55041471D01*
X99642400Y-54735359D01*
X99238407Y-54655000D01*
X97865593Y-54655000D01*
X97461600Y-54735359D01*
X97003471Y-55041471D01*
X96697359Y-55499600D01*
X96589867Y-56040000D01*
X89610000Y-56040000D01*
X89610000Y-52310000D01*
X148090001Y-52310000D01*
X148090000Y-150890000D01*
G04 #@! TD*
M02*
