G04 #@! TF.GenerationSoftware,KiCad,Pcbnew,(5.0.0)*
G04 #@! TF.CreationDate,2018-08-16T17:52:27+08:00*
G04 #@! TF.ProjectId,Mixer,4D697865722E6B696361645F70636200,rev?*
G04 #@! TF.SameCoordinates,Original*
G04 #@! TF.FileFunction,Legend,Top*
G04 #@! TF.FilePolarity,Positive*
%FSLAX46Y46*%
G04 Gerber Fmt 4.6, Leading zero omitted, Abs format (unit mm)*
G04 Created by KiCad (PCBNEW (5.0.0)) date 08/16/18 17:52:27*
%MOMM*%
%LPD*%
G01*
G04 APERTURE LIST*
%ADD10C,0.120000*%
%ADD11C,0.150000*%
G04 APERTURE END LIST*
D10*
G04 #@! TO.C,RV8*
X113891000Y-128660000D02*
X113891000Y-124723000D01*
X113891000Y-120356000D02*
X113891000Y-116420000D01*
X123932000Y-128660000D02*
X123932000Y-124723000D01*
X123932000Y-120356000D02*
X123932000Y-116420000D01*
X113891000Y-128660000D02*
X115541000Y-128660000D01*
X117283000Y-128660000D02*
X118042000Y-128660000D01*
X119783000Y-128660000D02*
X120542000Y-128660000D01*
X122282000Y-128660000D02*
X123932000Y-128660000D01*
X113891000Y-116420000D02*
X123932000Y-116420000D01*
G04 #@! TO.C,RV7*
X113891000Y-96100000D02*
X123932000Y-96100000D01*
X122282000Y-108340000D02*
X123932000Y-108340000D01*
X119783000Y-108340000D02*
X120542000Y-108340000D01*
X117283000Y-108340000D02*
X118042000Y-108340000D01*
X113891000Y-108340000D02*
X115541000Y-108340000D01*
X123932000Y-100036000D02*
X123932000Y-96100000D01*
X123932000Y-108340000D02*
X123932000Y-104403000D01*
X113891000Y-100036000D02*
X113891000Y-96100000D01*
X113891000Y-108340000D02*
X113891000Y-104403000D01*
G04 #@! TO.C,RV6*
X113891000Y-88020000D02*
X113891000Y-84083000D01*
X113891000Y-79716000D02*
X113891000Y-75780000D01*
X123932000Y-88020000D02*
X123932000Y-84083000D01*
X123932000Y-79716000D02*
X123932000Y-75780000D01*
X113891000Y-88020000D02*
X115541000Y-88020000D01*
X117283000Y-88020000D02*
X118042000Y-88020000D01*
X119783000Y-88020000D02*
X120542000Y-88020000D01*
X122282000Y-88020000D02*
X123932000Y-88020000D01*
X113891000Y-75780000D02*
X123932000Y-75780000D01*
G04 #@! TO.C,RV5*
X113891000Y-55460000D02*
X123932000Y-55460000D01*
X122282000Y-67700000D02*
X123932000Y-67700000D01*
X119783000Y-67700000D02*
X120542000Y-67700000D01*
X117283000Y-67700000D02*
X118042000Y-67700000D01*
X113891000Y-67700000D02*
X115541000Y-67700000D01*
X123932000Y-59396000D02*
X123932000Y-55460000D01*
X123932000Y-67700000D02*
X123932000Y-63763000D01*
X113891000Y-59396000D02*
X113891000Y-55460000D01*
X113891000Y-67700000D02*
X113891000Y-63763000D01*
G04 #@! TO.C,RV4*
X134211000Y-128660000D02*
X134211000Y-124723000D01*
X134211000Y-120356000D02*
X134211000Y-116420000D01*
X144252000Y-128660000D02*
X144252000Y-124723000D01*
X144252000Y-120356000D02*
X144252000Y-116420000D01*
X134211000Y-128660000D02*
X135861000Y-128660000D01*
X137603000Y-128660000D02*
X138362000Y-128660000D01*
X140103000Y-128660000D02*
X140862000Y-128660000D01*
X142602000Y-128660000D02*
X144252000Y-128660000D01*
X134211000Y-116420000D02*
X144252000Y-116420000D01*
G04 #@! TO.C,RV3*
X134211000Y-96100000D02*
X144252000Y-96100000D01*
X142602000Y-108340000D02*
X144252000Y-108340000D01*
X140103000Y-108340000D02*
X140862000Y-108340000D01*
X137603000Y-108340000D02*
X138362000Y-108340000D01*
X134211000Y-108340000D02*
X135861000Y-108340000D01*
X144252000Y-100036000D02*
X144252000Y-96100000D01*
X144252000Y-108340000D02*
X144252000Y-104403000D01*
X134211000Y-100036000D02*
X134211000Y-96100000D01*
X134211000Y-108340000D02*
X134211000Y-104403000D01*
G04 #@! TO.C,RV1*
X134211000Y-67700000D02*
X134211000Y-63763000D01*
X134211000Y-59396000D02*
X134211000Y-55460000D01*
X144252000Y-67700000D02*
X144252000Y-63763000D01*
X144252000Y-59396000D02*
X144252000Y-55460000D01*
X134211000Y-67700000D02*
X135861000Y-67700000D01*
X137603000Y-67700000D02*
X138362000Y-67700000D01*
X140103000Y-67700000D02*
X140862000Y-67700000D01*
X142602000Y-67700000D02*
X144252000Y-67700000D01*
X134211000Y-55460000D02*
X144252000Y-55460000D01*
G04 #@! TO.C,RV2*
X134211000Y-75780000D02*
X144252000Y-75780000D01*
X142602000Y-88020000D02*
X144252000Y-88020000D01*
X140103000Y-88020000D02*
X140862000Y-88020000D01*
X137603000Y-88020000D02*
X138362000Y-88020000D01*
X134211000Y-88020000D02*
X135861000Y-88020000D01*
X144252000Y-79716000D02*
X144252000Y-75780000D01*
X144252000Y-88020000D02*
X144252000Y-84083000D01*
X134211000Y-79716000D02*
X134211000Y-75780000D01*
X134211000Y-88020000D02*
X134211000Y-84083000D01*
D11*
G04 #@! TO.C,J4*
X100352000Y-121920000D02*
G75*
G03X100352000Y-121920000I-1800000J0D01*
G01*
X101558659Y-121920000D02*
G75*
G03X101558659Y-121920000I-3006659J0D01*
G01*
X94052000Y-115920000D02*
X94052000Y-126420000D01*
X103052000Y-115920000D02*
X94052000Y-115920000D01*
X103052000Y-126420000D02*
X103052000Y-115920000D01*
X94052000Y-126420000D02*
X103052000Y-126420000D01*
X98552000Y-120120000D02*
X98552000Y-123720000D01*
X100352000Y-121920000D02*
X96752000Y-121920000D01*
G04 #@! TO.C,J1*
X100352000Y-60960000D02*
X96752000Y-60960000D01*
X98552000Y-59160000D02*
X98552000Y-62760000D01*
X94052000Y-65460000D02*
X103052000Y-65460000D01*
X103052000Y-65460000D02*
X103052000Y-54960000D01*
X103052000Y-54960000D02*
X94052000Y-54960000D01*
X94052000Y-54960000D02*
X94052000Y-65460000D01*
X101558659Y-60960000D02*
G75*
G03X101558659Y-60960000I-3006659J0D01*
G01*
X100352000Y-60960000D02*
G75*
G03X100352000Y-60960000I-1800000J0D01*
G01*
G04 #@! TO.C,J2*
X100352000Y-81280000D02*
G75*
G03X100352000Y-81280000I-1800000J0D01*
G01*
X101558659Y-81280000D02*
G75*
G03X101558659Y-81280000I-3006659J0D01*
G01*
X94052000Y-75280000D02*
X94052000Y-85780000D01*
X103052000Y-75280000D02*
X94052000Y-75280000D01*
X103052000Y-85780000D02*
X103052000Y-75280000D01*
X94052000Y-85780000D02*
X103052000Y-85780000D01*
X98552000Y-79480000D02*
X98552000Y-83080000D01*
X100352000Y-81280000D02*
X96752000Y-81280000D01*
G04 #@! TO.C,J6*
X140992000Y-142240000D02*
X137392000Y-142240000D01*
X139192000Y-140440000D02*
X139192000Y-144040000D01*
X134692000Y-146740000D02*
X143692000Y-146740000D01*
X143692000Y-146740000D02*
X143692000Y-136240000D01*
X143692000Y-136240000D02*
X134692000Y-136240000D01*
X134692000Y-136240000D02*
X134692000Y-146740000D01*
X142198659Y-142240000D02*
G75*
G03X142198659Y-142240000I-3006659J0D01*
G01*
X140992000Y-142240000D02*
G75*
G03X140992000Y-142240000I-1800000J0D01*
G01*
G04 #@! TO.C,J5*
X120672000Y-142240000D02*
G75*
G03X120672000Y-142240000I-1800000J0D01*
G01*
X121878659Y-142240000D02*
G75*
G03X121878659Y-142240000I-3006659J0D01*
G01*
X114372000Y-136240000D02*
X114372000Y-146740000D01*
X123372000Y-136240000D02*
X114372000Y-136240000D01*
X123372000Y-146740000D02*
X123372000Y-136240000D01*
X114372000Y-146740000D02*
X123372000Y-146740000D01*
X118872000Y-140440000D02*
X118872000Y-144040000D01*
X120672000Y-142240000D02*
X117072000Y-142240000D01*
G04 #@! TO.C,J3*
X100352000Y-101600000D02*
X96752000Y-101600000D01*
X98552000Y-99800000D02*
X98552000Y-103400000D01*
X94052000Y-106100000D02*
X103052000Y-106100000D01*
X103052000Y-106100000D02*
X103052000Y-95600000D01*
X103052000Y-95600000D02*
X94052000Y-95600000D01*
X94052000Y-95600000D02*
X94052000Y-106100000D01*
X101558659Y-101600000D02*
G75*
G03X101558659Y-101600000I-3006659J0D01*
G01*
X100352000Y-101600000D02*
G75*
G03X100352000Y-101600000I-1800000J0D01*
G01*
G04 #@! TO.C,RV8*
X118276761Y-115768380D02*
X117943428Y-115292190D01*
X117705333Y-115768380D02*
X117705333Y-114768380D01*
X118086285Y-114768380D01*
X118181523Y-114816000D01*
X118229142Y-114863619D01*
X118276761Y-114958857D01*
X118276761Y-115101714D01*
X118229142Y-115196952D01*
X118181523Y-115244571D01*
X118086285Y-115292190D01*
X117705333Y-115292190D01*
X118562476Y-114768380D02*
X118895809Y-115768380D01*
X119229142Y-114768380D01*
X119705333Y-115196952D02*
X119610095Y-115149333D01*
X119562476Y-115101714D01*
X119514857Y-115006476D01*
X119514857Y-114958857D01*
X119562476Y-114863619D01*
X119610095Y-114816000D01*
X119705333Y-114768380D01*
X119895809Y-114768380D01*
X119991047Y-114816000D01*
X120038666Y-114863619D01*
X120086285Y-114958857D01*
X120086285Y-115006476D01*
X120038666Y-115101714D01*
X119991047Y-115149333D01*
X119895809Y-115196952D01*
X119705333Y-115196952D01*
X119610095Y-115244571D01*
X119562476Y-115292190D01*
X119514857Y-115387428D01*
X119514857Y-115577904D01*
X119562476Y-115673142D01*
X119610095Y-115720761D01*
X119705333Y-115768380D01*
X119895809Y-115768380D01*
X119991047Y-115720761D01*
X120038666Y-115673142D01*
X120086285Y-115577904D01*
X120086285Y-115387428D01*
X120038666Y-115292190D01*
X119991047Y-115244571D01*
X119895809Y-115196952D01*
G04 #@! TO.C,RV7*
X118276761Y-95448380D02*
X117943428Y-94972190D01*
X117705333Y-95448380D02*
X117705333Y-94448380D01*
X118086285Y-94448380D01*
X118181523Y-94496000D01*
X118229142Y-94543619D01*
X118276761Y-94638857D01*
X118276761Y-94781714D01*
X118229142Y-94876952D01*
X118181523Y-94924571D01*
X118086285Y-94972190D01*
X117705333Y-94972190D01*
X118562476Y-94448380D02*
X118895809Y-95448380D01*
X119229142Y-94448380D01*
X119467238Y-94448380D02*
X120133904Y-94448380D01*
X119705333Y-95448380D01*
G04 #@! TO.C,RV6*
X118276761Y-75128380D02*
X117943428Y-74652190D01*
X117705333Y-75128380D02*
X117705333Y-74128380D01*
X118086285Y-74128380D01*
X118181523Y-74176000D01*
X118229142Y-74223619D01*
X118276761Y-74318857D01*
X118276761Y-74461714D01*
X118229142Y-74556952D01*
X118181523Y-74604571D01*
X118086285Y-74652190D01*
X117705333Y-74652190D01*
X118562476Y-74128380D02*
X118895809Y-75128380D01*
X119229142Y-74128380D01*
X119991047Y-74128380D02*
X119800571Y-74128380D01*
X119705333Y-74176000D01*
X119657714Y-74223619D01*
X119562476Y-74366476D01*
X119514857Y-74556952D01*
X119514857Y-74937904D01*
X119562476Y-75033142D01*
X119610095Y-75080761D01*
X119705333Y-75128380D01*
X119895809Y-75128380D01*
X119991047Y-75080761D01*
X120038666Y-75033142D01*
X120086285Y-74937904D01*
X120086285Y-74699809D01*
X120038666Y-74604571D01*
X119991047Y-74556952D01*
X119895809Y-74509333D01*
X119705333Y-74509333D01*
X119610095Y-74556952D01*
X119562476Y-74604571D01*
X119514857Y-74699809D01*
G04 #@! TO.C,RV5*
X118276761Y-54808380D02*
X117943428Y-54332190D01*
X117705333Y-54808380D02*
X117705333Y-53808380D01*
X118086285Y-53808380D01*
X118181523Y-53856000D01*
X118229142Y-53903619D01*
X118276761Y-53998857D01*
X118276761Y-54141714D01*
X118229142Y-54236952D01*
X118181523Y-54284571D01*
X118086285Y-54332190D01*
X117705333Y-54332190D01*
X118562476Y-53808380D02*
X118895809Y-54808380D01*
X119229142Y-53808380D01*
X120038666Y-53808380D02*
X119562476Y-53808380D01*
X119514857Y-54284571D01*
X119562476Y-54236952D01*
X119657714Y-54189333D01*
X119895809Y-54189333D01*
X119991047Y-54236952D01*
X120038666Y-54284571D01*
X120086285Y-54379809D01*
X120086285Y-54617904D01*
X120038666Y-54713142D01*
X119991047Y-54760761D01*
X119895809Y-54808380D01*
X119657714Y-54808380D01*
X119562476Y-54760761D01*
X119514857Y-54713142D01*
G04 #@! TO.C,RV4*
X138596761Y-115768380D02*
X138263428Y-115292190D01*
X138025333Y-115768380D02*
X138025333Y-114768380D01*
X138406285Y-114768380D01*
X138501523Y-114816000D01*
X138549142Y-114863619D01*
X138596761Y-114958857D01*
X138596761Y-115101714D01*
X138549142Y-115196952D01*
X138501523Y-115244571D01*
X138406285Y-115292190D01*
X138025333Y-115292190D01*
X138882476Y-114768380D02*
X139215809Y-115768380D01*
X139549142Y-114768380D01*
X140311047Y-115101714D02*
X140311047Y-115768380D01*
X140072952Y-114720761D02*
X139834857Y-115435047D01*
X140453904Y-115435047D01*
G04 #@! TO.C,RV3*
X138596761Y-95448380D02*
X138263428Y-94972190D01*
X138025333Y-95448380D02*
X138025333Y-94448380D01*
X138406285Y-94448380D01*
X138501523Y-94496000D01*
X138549142Y-94543619D01*
X138596761Y-94638857D01*
X138596761Y-94781714D01*
X138549142Y-94876952D01*
X138501523Y-94924571D01*
X138406285Y-94972190D01*
X138025333Y-94972190D01*
X138882476Y-94448380D02*
X139215809Y-95448380D01*
X139549142Y-94448380D01*
X139787238Y-94448380D02*
X140406285Y-94448380D01*
X140072952Y-94829333D01*
X140215809Y-94829333D01*
X140311047Y-94876952D01*
X140358666Y-94924571D01*
X140406285Y-95019809D01*
X140406285Y-95257904D01*
X140358666Y-95353142D01*
X140311047Y-95400761D01*
X140215809Y-95448380D01*
X139930095Y-95448380D01*
X139834857Y-95400761D01*
X139787238Y-95353142D01*
G04 #@! TO.C,RV1*
X138596761Y-54808380D02*
X138263428Y-54332190D01*
X138025333Y-54808380D02*
X138025333Y-53808380D01*
X138406285Y-53808380D01*
X138501523Y-53856000D01*
X138549142Y-53903619D01*
X138596761Y-53998857D01*
X138596761Y-54141714D01*
X138549142Y-54236952D01*
X138501523Y-54284571D01*
X138406285Y-54332190D01*
X138025333Y-54332190D01*
X138882476Y-53808380D02*
X139215809Y-54808380D01*
X139549142Y-53808380D01*
X140406285Y-54808380D02*
X139834857Y-54808380D01*
X140120571Y-54808380D02*
X140120571Y-53808380D01*
X140025333Y-53951238D01*
X139930095Y-54046476D01*
X139834857Y-54094095D01*
G04 #@! TO.C,RV2*
X138596761Y-75128380D02*
X138263428Y-74652190D01*
X138025333Y-75128380D02*
X138025333Y-74128380D01*
X138406285Y-74128380D01*
X138501523Y-74176000D01*
X138549142Y-74223619D01*
X138596761Y-74318857D01*
X138596761Y-74461714D01*
X138549142Y-74556952D01*
X138501523Y-74604571D01*
X138406285Y-74652190D01*
X138025333Y-74652190D01*
X138882476Y-74128380D02*
X139215809Y-75128380D01*
X139549142Y-74128380D01*
X139834857Y-74223619D02*
X139882476Y-74176000D01*
X139977714Y-74128380D01*
X140215809Y-74128380D01*
X140311047Y-74176000D01*
X140358666Y-74223619D01*
X140406285Y-74318857D01*
X140406285Y-74414095D01*
X140358666Y-74556952D01*
X139787238Y-75128380D01*
X140406285Y-75128380D01*
G04 #@! TO.C,J4*
X98218666Y-114472380D02*
X98218666Y-115186666D01*
X98171047Y-115329523D01*
X98075809Y-115424761D01*
X97932952Y-115472380D01*
X97837714Y-115472380D01*
X99123428Y-114805714D02*
X99123428Y-115472380D01*
X98885333Y-114424761D02*
X98647238Y-115139047D01*
X99266285Y-115139047D01*
G04 #@! TO.C,J1*
X98218666Y-53512380D02*
X98218666Y-54226666D01*
X98171047Y-54369523D01*
X98075809Y-54464761D01*
X97932952Y-54512380D01*
X97837714Y-54512380D01*
X99218666Y-54512380D02*
X98647238Y-54512380D01*
X98932952Y-54512380D02*
X98932952Y-53512380D01*
X98837714Y-53655238D01*
X98742476Y-53750476D01*
X98647238Y-53798095D01*
G04 #@! TO.C,J2*
X98218666Y-73832380D02*
X98218666Y-74546666D01*
X98171047Y-74689523D01*
X98075809Y-74784761D01*
X97932952Y-74832380D01*
X97837714Y-74832380D01*
X98647238Y-73927619D02*
X98694857Y-73880000D01*
X98790095Y-73832380D01*
X99028190Y-73832380D01*
X99123428Y-73880000D01*
X99171047Y-73927619D01*
X99218666Y-74022857D01*
X99218666Y-74118095D01*
X99171047Y-74260952D01*
X98599619Y-74832380D01*
X99218666Y-74832380D01*
G04 #@! TO.C,J6*
X138858666Y-134792380D02*
X138858666Y-135506666D01*
X138811047Y-135649523D01*
X138715809Y-135744761D01*
X138572952Y-135792380D01*
X138477714Y-135792380D01*
X139763428Y-134792380D02*
X139572952Y-134792380D01*
X139477714Y-134840000D01*
X139430095Y-134887619D01*
X139334857Y-135030476D01*
X139287238Y-135220952D01*
X139287238Y-135601904D01*
X139334857Y-135697142D01*
X139382476Y-135744761D01*
X139477714Y-135792380D01*
X139668190Y-135792380D01*
X139763428Y-135744761D01*
X139811047Y-135697142D01*
X139858666Y-135601904D01*
X139858666Y-135363809D01*
X139811047Y-135268571D01*
X139763428Y-135220952D01*
X139668190Y-135173333D01*
X139477714Y-135173333D01*
X139382476Y-135220952D01*
X139334857Y-135268571D01*
X139287238Y-135363809D01*
G04 #@! TO.C,J5*
X118538666Y-134792380D02*
X118538666Y-135506666D01*
X118491047Y-135649523D01*
X118395809Y-135744761D01*
X118252952Y-135792380D01*
X118157714Y-135792380D01*
X119491047Y-134792380D02*
X119014857Y-134792380D01*
X118967238Y-135268571D01*
X119014857Y-135220952D01*
X119110095Y-135173333D01*
X119348190Y-135173333D01*
X119443428Y-135220952D01*
X119491047Y-135268571D01*
X119538666Y-135363809D01*
X119538666Y-135601904D01*
X119491047Y-135697142D01*
X119443428Y-135744761D01*
X119348190Y-135792380D01*
X119110095Y-135792380D01*
X119014857Y-135744761D01*
X118967238Y-135697142D01*
G04 #@! TO.C,J3*
X98218666Y-94152380D02*
X98218666Y-94866666D01*
X98171047Y-95009523D01*
X98075809Y-95104761D01*
X97932952Y-95152380D01*
X97837714Y-95152380D01*
X98599619Y-94152380D02*
X99218666Y-94152380D01*
X98885333Y-94533333D01*
X99028190Y-94533333D01*
X99123428Y-94580952D01*
X99171047Y-94628571D01*
X99218666Y-94723809D01*
X99218666Y-94961904D01*
X99171047Y-95057142D01*
X99123428Y-95104761D01*
X99028190Y-95152380D01*
X98742476Y-95152380D01*
X98647238Y-95104761D01*
X98599619Y-95057142D01*
G04 #@! TD*
M02*
